<svg width="89" height="24" viewBox="0 0 89 24" fill="none" xmlns="http://www.w3.org/2000/svg">
<path d="M17.0928 10.2723H9.6353C9.54288 10.2723 9.45426 10.3091 9.38891 10.3744C9.32356 10.4398 9.28682 10.5284 9.28678 10.6208V14.267C9.28682 14.3594 9.32354 14.4481 9.38888 14.5135C9.45421 14.579 9.54283 14.6158 9.6353 14.616H12.5445V19.1459C12.5445 19.1459 11.8912 19.3687 10.0853 19.3687C7.9546 19.3687 4.97814 18.59 4.97814 12.045C4.97814 5.4987 8.07749 4.6372 10.9872 4.6372C13.506 4.6372 14.5911 5.08089 15.2815 5.29432C15.4984 5.36085 15.6991 5.14501 15.6991 4.95227L16.531 1.42956C16.531 1.33957 16.5005 1.23091 16.3978 1.15718C16.1175 0.95723 14.4068 0 10.0853 0C5.10676 0 0 2.11828 0 12.3002C0 22.4828 5.84685 24 10.7738 24C14.8533 24 17.328 22.2567 17.328 22.2567C17.4301 22.2001 17.4411 22.0576 17.4411 21.9922V10.6206C17.4411 10.4284 17.2852 10.2723 17.0928 10.2723ZM55.5259 1.22C55.5263 1.17424 55.5176 1.12885 55.5004 1.08645C55.4832 1.04404 55.4578 1.00545 55.4256 0.972893C55.3935 0.940336 55.3552 0.914455 55.313 0.896735C55.2708 0.879016 55.2255 0.869807 55.1798 0.869638H50.9805C50.9347 0.869807 50.8893 0.879005 50.847 0.896704C50.8048 0.914404 50.7664 0.940257 50.7341 0.972792C50.7018 1.00533 50.6762 1.04391 50.6588 1.08632C50.6414 1.12874 50.6326 1.17416 50.6327 1.22L50.6339 9.33482H44.0887V1.22C44.089 1.17423 44.0803 1.12883 44.0631 1.08642C44.0458 1.04401 44.0204 1.00542 43.9882 0.972871C43.956 0.940319 43.9177 0.914442 43.8755 0.896727C43.8333 0.879012 43.788 0.869807 43.7422 0.869638H39.5433C39.4509 0.870127 39.3624 0.907307 39.2973 0.973009C39.2323 1.03871 39.196 1.12755 39.1965 1.22V23.1926C39.1965 23.3863 39.3522 23.5439 39.5433 23.5439H43.7422C43.9342 23.5439 44.0887 23.3861 44.0887 23.1926V13.7941H50.6339L50.6224 23.1926C50.6224 23.3863 50.7784 23.5439 50.9704 23.5439H55.1794C55.3718 23.5439 55.5255 23.3861 55.5259 23.1926V1.22ZM25.0165 4.10352C25.0165 2.59136 23.8043 1.3695 22.3088 1.3695C20.8147 1.3695 19.6016 2.59136 19.6016 4.10352C19.6016 5.61383 20.8147 6.83882 22.3088 6.83882C23.8043 6.83882 25.0165 5.61383 25.0165 4.10352ZM24.7163 18.5577V8.41511C24.7165 8.32264 24.6801 8.23384 24.6149 8.1682C24.5498 8.10255 24.4613 8.06541 24.3688 8.06493H20.1831C19.9911 8.06493 19.8192 8.26302 19.8192 8.45576V22.9868C19.8192 23.414 20.0853 23.5408 20.4298 23.5408H24.2011C24.6148 23.5408 24.7163 23.3375 24.7163 22.9801V18.5577ZM71.4839 8.098H67.317C67.1259 8.098 66.9703 8.25545 66.9703 8.4493V19.2231C66.9703 19.2231 65.9116 19.9978 64.4093 19.9978C62.9069 19.9978 62.5083 19.3161 62.5083 17.8449V8.4493C62.5083 8.25545 62.3529 8.098 62.1618 8.098H57.9326C57.7419 8.098 57.5854 8.25545 57.5854 8.4493V18.5562C57.5854 22.9258 60.0208 23.9948 63.3713 23.9948C66.1197 23.9948 68.3356 22.4766 68.3356 22.4766C68.3356 22.4766 68.4411 23.2765 68.4888 23.3715C68.5366 23.4661 68.661 23.5617 68.7953 23.5617L71.4859 23.5498C71.6766 23.5498 71.8331 23.392 71.8331 23.1991L71.8317 8.44948C71.8317 8.25545 71.6759 8.098 71.4839 8.098ZM81.2289 19.9844C79.7837 19.9405 78.8033 19.2845 78.8033 19.2845V12.3264C78.8033 12.3264 79.7704 11.7336 80.9569 11.6276C82.4574 11.4932 83.9033 11.9465 83.9033 15.5258C83.9034 19.3003 83.2509 20.0452 81.2289 19.9844ZM82.8725 7.60461C80.5058 7.60461 78.8961 8.66051 78.8961 8.66051V1.22019C78.8961 1.02616 78.7411 0.869638 78.5496 0.869638H74.3387C74.2929 0.869856 74.2476 0.879097 74.2054 0.896834C74.1631 0.914571 74.1248 0.940457 74.0926 0.973012C74.0604 1.00557 74.0349 1.04415 74.0176 1.08656C74.0002 1.12897 73.9915 1.17438 73.9917 1.22019V23.1926C73.9917 23.3863 74.1473 23.5439 74.3393 23.5439H77.2611C77.3924 23.5439 77.4921 23.4761 77.5656 23.3575C77.6382 23.2394 77.743 22.3444 77.743 22.3444C77.743 22.3444 79.4649 23.9762 82.7245 23.9762C86.5512 23.9762 88.7458 22.0351 88.7458 15.2624C88.7458 8.48958 85.2408 7.60461 82.8725 7.60461ZM36.7845 8.06308H33.6347L33.6299 3.90172C33.6299 3.74428 33.5488 3.66556 33.3668 3.66556H29.0744C28.9075 3.66556 28.8179 3.7391 28.8179 3.89932V8.19964C28.8179 8.19964 26.6669 8.71872 26.5215 8.76085C26.449 8.78188 26.3852 8.8259 26.3398 8.88629C26.2945 8.94668 26.27 9.02017 26.27 9.0957V11.7979C26.27 11.9923 26.4252 12.1487 26.6172 12.1487H28.8179V18.6493C28.8179 23.478 32.2048 23.9523 34.4903 23.9523C35.5346 23.9523 36.7838 23.6171 36.99 23.5406C37.1148 23.4948 37.1872 23.3656 37.1872 23.2255L37.1907 20.253C37.1907 20.0589 37.027 19.9024 36.8426 19.9024C36.6591 19.9024 36.1895 19.9771 35.7061 19.9771C34.159 19.9771 33.6347 19.2577 33.6347 18.3265L33.6346 12.1485H36.7845C36.9765 12.1485 37.1319 11.992 37.1319 11.7977V8.41289C37.1322 8.36709 37.1234 8.3217 37.106 8.27932C37.0886 8.23694 37.0631 8.19839 37.0308 8.1659C36.9986 8.1334 36.9602 8.10759 36.9179 8.08995C36.8757 8.07231 36.8303 8.06318 36.7845 8.06308Z" fill="#121110"/>
</svg>
