<svg width="129" height="16" viewBox="0 0 129 16" fill="none" xmlns="http://www.w3.org/2000/svg">
<path d="M4.69237 7.29777C4.64537 7.23629 4.5833 7.18797 4.51216 7.15748C4.44102 7.127 4.36322 7.11537 4.28627 7.12373C4.20932 7.13208 4.13583 7.16014 4.0729 7.20519C4.00996 7.25024 3.95972 7.31075 3.92703 7.38089L0.0489264 15.1316C0.0135974 15.2023 -0.00308305 15.2808 0.000468709 15.3597C0.00402047 15.4386 0.0276866 15.5152 0.0692201 15.5824C0.110754 15.6496 0.168776 15.7051 0.237778 15.7435C0.30678 15.782 0.384472 15.8022 0.463477 15.8022H5.86354C5.95003 15.8042 6.03524 15.7811 6.10883 15.7356C6.18242 15.6901 6.24122 15.6243 6.27809 15.546C7.44295 13.1399 6.737 9.48142 4.69237 7.29777Z" fill="url(#paint0_linear_4_647)"/>
<path d="M7.53477 0.248645C6.56846 1.73491 6.00533 3.44679 5.90065 5.21627C5.79597 6.98575 6.15334 8.75204 6.93768 10.3418L9.5411 15.5466C9.57959 15.6236 9.63876 15.6883 9.71198 15.7335C9.7852 15.7788 9.86957 15.8027 9.95565 15.8028H15.3547C15.4337 15.8027 15.5114 15.7826 15.5804 15.7441C15.6494 15.7056 15.7075 15.6502 15.749 15.583C15.7905 15.5158 15.8142 15.4391 15.8177 15.3602C15.8213 15.2814 15.8046 15.2029 15.7693 15.1322C15.7693 15.1322 8.50569 0.608994 8.32315 0.245737C8.28705 0.171796 8.23084 0.109521 8.16096 0.066057C8.09108 0.0225928 8.01035 -0.00030061 7.92805 2.98068e-06C7.84574 0.000306572 7.76519 0.0237948 7.69563 0.0677734C7.62607 0.111752 7.57032 0.17444 7.53477 0.248645Z" fill="#2684FF"/>
<path d="M70.8641 6.46358C70.8641 8.38286 71.7548 9.90664 75.2387 10.5794C77.3172 11.0156 77.7526 11.3509 77.7526 12.0435C77.7526 12.7162 77.3163 13.1517 75.8523 13.1517C74.0828 13.1199 72.3487 12.6509 70.8047 11.7864V14.9125C71.8539 15.427 73.2394 16.0008 75.8127 16.0008C79.455 16.0008 80.9001 14.3772 80.9001 11.9643L70.8641 6.46358ZM80.9001 11.9643C80.9001 9.68879 79.6926 8.6201 76.2879 7.88826C74.4074 7.47266 73.9521 7.0573 73.9521 6.46358C73.9521 5.71235 74.6251 5.39514 75.8721 5.39514C77.3766 5.39514 78.8613 5.85024 80.2666 6.48345V3.49549C78.919 2.88238 77.4514 2.57819 75.9711 2.60517C72.6059 2.60517 70.8641 4.06934 70.8641 6.46358" fill="#0052CC"/>
<path d="M117.656 2.80273V15.8029H120.427V5.88957L121.595 8.52105L125.515 15.8029H128.999V2.80273H126.227V11.1925L125.178 8.75854L122.031 2.80273H117.656Z" fill="#0052CC"/>
<path d="M100.033 2.80273H97.0039V15.8029H100.033V2.80273Z" fill="#0052CC"/>
<path d="M93.5094 11.9643C93.5094 9.68879 92.3019 8.6201 88.8973 7.88826C87.0168 7.47266 86.5615 7.0573 86.5615 6.46358C86.5615 5.71235 87.2345 5.39514 88.4815 5.39514C89.986 5.39514 91.4706 5.85024 92.876 6.48345V3.49549C91.5284 2.88238 90.0608 2.57819 88.5804 2.60517C85.2153 2.60517 83.4735 4.06934 83.4735 6.46358C83.4735 8.38286 84.3641 9.90664 87.848 10.5794C89.9266 11.0156 90.362 11.3509 90.362 12.0435C90.362 12.7162 89.9256 13.1517 88.4616 13.1517C86.6922 13.1199 84.9581 12.6509 83.4141 11.7864V14.9125C84.4633 15.427 85.8488 16.0008 88.4221 16.0008C92.0643 16.0008 93.5094 14.3772 93.5094 11.9643Z" fill="#0052CC"/>
<path d="M47.3359 2.80273V15.8029H53.561L54.5411 12.9931H50.3842V2.80273H47.3359Z" fill="#0052CC"/>
<path d="M35.0391 2.80273V5.61234H38.4042V15.8029H41.4525V5.61234H45.0552V2.80273H35.0391Z" fill="#0052CC"/>
<path d="M30.6199 2.80273H26.6249L22.0898 15.8029H25.5532L26.1961 13.6134C27.7795 14.0782 29.4632 14.0782 31.0466 13.6134L31.6895 15.8029H35.1535L30.6199 2.80273ZM28.6223 11.2691C28.0581 11.2691 27.4969 11.1884 26.9556 11.0294L28.6223 5.35619L30.289 11.0314C29.7476 11.1896 29.1863 11.2697 28.6223 11.2691Z" fill="#0052CC"/>
<path d="M64.2954 2.80273H60.3007L55.7656 15.8029H59.2297L59.8726 13.6134C61.456 14.0782 63.1397 14.0782 64.7231 13.6134L65.366 15.8029H68.83L64.2954 2.80273ZM62.2981 11.2691C61.7339 11.2691 61.1727 11.1884 60.6314 11.0294L62.2981 5.35619L63.9647 11.0314C63.4234 11.1896 62.8621 11.2697 62.2981 11.2691Z" fill="#0052CC"/>
<path d="M110.944 2.80273H106.949L102.414 15.8029H105.878L106.521 13.6134C108.104 14.0782 109.788 14.0782 111.371 13.6134L112.014 15.8029H115.479L110.944 2.80273ZM108.945 11.2691C108.381 11.2691 107.82 11.1884 107.279 11.0294L108.945 5.35619L110.612 11.0314C110.071 11.1896 109.509 11.2697 108.945 11.2691Z" fill="#0052CC"/>
<defs>
<linearGradient id="paint0_linear_4_647" x1="6.81773" y1="8.49392" x2="2.72747" y2="15.5813" gradientUnits="userSpaceOnUse">
<stop stop-color="#0052CC"/>
<stop offset="0.923" stop-color="#2684FF"/>
</linearGradient>
</defs>
</svg>
