<svg width="104" height="69" viewBox="0 0 104 69" fill="none" xmlns="http://www.w3.org/2000/svg">
<g filter="url(#filter0_d_3194_2953)">
<rect x="2" y="0.799988" width="99.1667" height="56" rx="8" fill="white"/>
</g>
<g clip-path="url(#clip0_3194_2953)">
<path d="M51.3762 20.9319C51.3858 20.9158 51.3968 20.9158 51.41 20.9319L51.3902 20.948L51.3762 20.9319Z" fill="#0124DD"/>
<path d="M34.8783 26.4328C35.0858 25.8071 35.2825 25.2158 35.475 24.6294C35.4987 24.5578 35.5468 24.5414 35.6093 24.5299C36.6484 24.3366 37.6918 24.172 38.7532 24.2242C39.5021 24.2593 40.2224 24.4118 40.8673 24.8127C41.7419 25.3554 42.1419 26.1729 42.1986 27.1752C42.2317 27.7515 42.1376 28.3206 42.055 28.8848C41.8834 30.0345 41.7067 31.1829 41.5408 32.3326C41.5363 32.3808 41.5189 32.4269 41.4903 32.4661C41.4618 32.5053 41.4232 32.5361 41.3786 32.5553C40.7021 32.9254 39.9682 33.128 39.2142 33.2511C38.2811 33.4123 37.3293 33.4364 36.3892 33.3227C35.6057 33.2246 34.8754 32.9819 34.3066 32.4078C34.0598 32.1558 33.8682 31.8555 33.744 31.5258C33.6198 31.1961 33.5656 30.8443 33.585 30.4927C33.6044 30.141 33.6969 29.7972 33.8566 29.4831C34.0163 29.169 34.2397 28.8913 34.5127 28.6679C35.0958 28.1896 35.7852 27.952 36.5112 27.798C37.6107 27.5661 38.7201 27.5976 39.8303 27.6821C39.9689 27.6921 39.9991 27.6498 40.0055 27.5267C40.0551 26.6633 39.5352 26.0433 38.6225 25.8765C37.9891 25.7606 37.3672 25.8608 36.7453 25.9624C36.1108 26.0665 35.4862 26.2239 34.8783 26.4328ZM38.7618 29.0373C38.3666 29.0347 37.9718 29.0637 37.5812 29.1239C37.159 29.1955 36.7489 29.3065 36.4085 29.5857C36.0236 29.9014 35.9209 30.3252 35.9971 30.792C36.0689 31.2179 36.3676 31.4513 36.7547 31.5888C36.9321 31.651 37.1167 31.6907 37.304 31.7069C37.9963 31.7735 38.6684 31.6532 39.3363 31.4885C39.3816 31.4826 39.4231 31.4603 39.453 31.4259C39.4829 31.3914 39.4991 31.3472 39.4986 31.3017C39.5898 30.6252 39.6802 29.9479 39.7808 29.2728C39.798 29.1561 39.7592 29.1339 39.6616 29.1153C39.3641 29.0663 39.0633 29.0403 38.7618 29.0373Z" fill="#114185"/>
<path d="M66.9374 31.1476C66.8225 31.4955 66.722 31.8069 66.6157 32.1183C66.531 32.3739 66.4405 32.6273 66.3601 32.8851C66.3524 32.9245 66.3331 32.9608 66.3048 32.9893C66.2764 33.0179 66.2402 33.0374 66.2007 33.0454C65.102 33.3375 63.9889 33.4957 62.8543 33.3533C61.5617 33.1908 60.4932 32.6374 59.8383 31.4554C59.4354 30.7238 59.3076 29.927 59.3622 29.1058C59.4663 27.5437 60.1191 26.2486 61.3326 25.2456C62.0701 24.6357 62.9304 24.3221 63.8769 24.2291C64.5296 24.1653 65.1788 24.1775 65.8158 24.3543C67.1127 24.7123 67.9773 25.7181 68.1431 27.0497C68.2386 27.815 68.1431 28.5667 68.0189 29.3191C68.0038 29.4129 67.9564 29.4158 67.8846 29.4158C67.5363 29.4158 67.1873 29.4158 66.8391 29.4158C65.1635 29.4158 63.4879 29.4158 61.8123 29.4158C61.6773 29.4158 61.6378 29.4487 61.6357 29.5869C61.617 30.7123 62.2403 31.4554 63.3498 31.6451C64.1699 31.7883 64.9677 31.6645 65.7641 31.4912C66.1623 31.4024 66.5543 31.2876 66.9374 31.1476ZM64.0076 27.9546H65.6161C66.1073 27.9546 66.1073 27.9546 66.1238 27.465C66.1576 26.4734 65.5493 25.827 64.5605 25.7718C63.3778 25.7053 62.2626 26.5593 61.9754 27.8265C61.9517 27.9317 61.9754 27.9575 62.0831 27.9568C62.7229 27.9518 63.3613 27.9546 64.0076 27.9546Z" fill="#114185"/>
<path d="M71.0663 33.3816C70.0119 33.3746 68.9653 33.2006 67.9656 32.8661C67.8658 32.8318 67.8392 32.8031 67.8751 32.695C68.0393 32.1991 68.1966 31.7009 68.3469 31.2002C68.3842 31.0771 68.428 31.0871 68.5271 31.1344C69.4873 31.6026 70.5717 31.755 71.6243 31.5696C71.8712 31.5321 72.1056 31.4364 72.3079 31.2904C72.4015 31.2257 72.4794 31.1409 72.5358 31.0423C72.5922 30.9436 72.6257 30.8336 72.6338 30.7204C72.642 30.6071 72.6245 30.4935 72.5828 30.3878C72.5411 30.2822 72.4761 30.1872 72.3927 30.1099C72.2102 29.9414 72.0052 29.7988 71.7837 29.6861C71.2344 29.3797 70.6757 29.0926 70.1536 28.7375C68.7512 27.7803 68.9221 25.788 70.303 24.9138C70.9148 24.5265 71.5848 24.3325 72.2964 24.2588C73.4828 24.1364 74.6296 24.339 75.7599 24.6783C75.8633 24.7091 75.8898 24.737 75.8503 24.8466C75.6801 25.3169 75.5157 25.7901 75.3613 26.2662C75.3204 26.3915 75.2715 26.3822 75.1746 26.3378C74.4676 26.0052 73.6935 25.8387 72.9119 25.851C72.5327 25.8603 72.1629 25.9226 71.8419 26.1459C71.7054 26.2327 71.6013 26.3617 71.5455 26.5131C71.4898 26.6646 71.4854 26.8301 71.5331 26.9843C71.595 27.1571 71.7117 27.3052 71.8656 27.4059C72.1981 27.6551 72.5787 27.8233 72.9427 28.0223C73.3882 28.2542 73.8134 28.5229 74.2138 28.8256C75.3972 29.762 75.2773 31.546 74.142 32.4523C73.4095 33.0358 72.5521 33.2692 71.6401 33.3522C71.411 33.3723 71.1834 33.3759 71.0663 33.3816Z" fill="#114185"/>
<path d="M78.8127 33.382C77.7723 33.372 76.7399 33.1998 75.7529 32.8716C75.6387 32.8337 75.6092 32.8 75.6516 32.6797C75.8139 32.1943 75.9676 31.7061 76.1169 31.2164C76.1528 31.0976 76.1887 31.0804 76.3051 31.1362C77.2612 31.6001 78.3393 31.7529 79.3872 31.5729C79.6117 31.5378 79.8269 31.4579 80.0198 31.3381C80.4959 31.0353 80.5541 30.479 80.152 30.0896C79.9833 29.9385 79.7958 29.8097 79.594 29.7066C79.0195 29.3815 78.4228 29.0909 77.882 28.7043C76.6347 27.8058 76.7898 26.18 77.5524 25.3639C78.0666 24.8148 78.7158 24.5198 79.436 24.3616C80.3918 24.1468 81.3469 24.1984 82.3012 24.3745C82.7034 24.4461 83.0969 24.5549 83.4904 24.6608C83.6211 24.6973 83.6685 24.736 83.6132 24.8849C83.4473 25.3338 83.2965 25.7877 83.15 26.2451C83.1091 26.3704 83.0682 26.3883 82.9447 26.3346C82.2471 26.0081 81.4848 25.842 80.7142 25.8485C80.3552 25.855 80.0083 25.9079 79.6952 26.0955C79.3987 26.2723 79.2486 26.5294 79.2931 26.883C79.3211 27.1078 79.4568 27.2646 79.6277 27.3935C79.9868 27.6648 80.3997 27.8438 80.7904 28.0585C81.2356 28.3041 81.6751 28.5597 82.0636 28.8897C83.1522 29.8204 83.0294 31.5457 81.9372 32.4335C81.3505 32.911 80.6697 33.1587 79.9351 33.2868C79.5639 33.3469 79.1887 33.3788 78.8127 33.382Z" fill="#114185"/>
<path d="M50.3634 31.2743C50.3268 31.4891 50.2342 31.6817 50.166 31.8843C50.036 32.2702 49.8974 32.6524 49.7689 33.039C49.7594 33.0777 49.7379 33.1124 49.7075 33.1381C49.677 33.1638 49.6392 33.1793 49.5994 33.1822C48.7377 33.3254 47.8666 33.4163 46.9912 33.3505C45.685 33.2524 44.5648 32.7777 43.795 31.6681C43.2521 30.8863 43.0603 29.9979 43.1084 29.0622C43.1889 27.5015 43.8524 26.2243 45.0753 25.2464C45.7762 24.6865 46.6006 24.4116 47.4788 24.2971C48.5659 24.1435 49.673 24.2094 50.734 24.4911C50.9365 24.5462 51.1318 24.6235 51.3307 24.688C51.4025 24.7109 51.4212 24.7417 51.3946 24.8197C51.2252 25.3137 51.0571 25.8091 50.8984 26.3066C50.8632 26.4162 50.8137 26.394 50.7426 26.366C50.2356 26.1588 49.6986 26.0333 49.152 25.9945C47.9693 25.9279 46.941 26.2522 46.2028 27.2337C45.5112 28.1537 45.4042 29.6814 46.1446 30.6049C46.6049 31.1777 47.2124 31.4812 47.9334 31.565C48.7111 31.6552 49.4629 31.5056 50.2055 31.2929C50.2529 31.2793 50.301 31.27 50.3491 31.2586L50.3634 31.2743Z" fill="#114185"/>
<path d="M58.5501 31.2639C58.3849 31.7378 58.1953 32.2067 58.0596 32.6907C57.9612 33.0436 57.7953 33.2112 57.409 33.2498C56.3318 33.3572 55.2547 33.4775 54.1775 33.1933C52.4835 32.7444 51.3769 31.397 51.285 29.6459C51.1845 27.743 51.9155 26.2225 53.453 25.0978C54.0992 24.626 54.8533 24.4026 55.6403 24.3002C56.7272 24.1471 57.8338 24.2129 58.8947 24.4935C59.0915 24.5472 59.2804 24.6274 59.4764 24.684C59.5791 24.714 59.582 24.7606 59.5482 24.8501C59.3838 25.329 59.2208 25.8079 59.0678 26.2905C59.0312 26.4057 58.9874 26.4014 58.8933 26.3656C58.1407 26.0793 57.3709 25.9239 56.5588 26.0077C55.1793 26.1552 54.1294 27.0644 53.8644 28.4024C53.6734 29.3682 53.8486 30.2516 54.6206 30.9353C55.236 31.4794 55.985 31.6311 56.7828 31.5846C57.3456 31.5477 57.9018 31.4419 58.4388 31.2696C58.4711 31.2639 58.4998 31.2374 58.5501 31.2639Z" fill="#114185"/>
<path d="M31.193 29.2942L22.2476 20.3761V21.7449L29.82 29.2942L29.8229 29.297L23.2637 35.8362L23.2558 35.8283L16.701 29.2942L16.6952 29.2885L19.9131 26.0805H18.5163L15.2957 29.2913L15.2985 29.2942L23.253 37.2243L23.2558 37.2214L31.2002 29.3013L31.193 29.2942Z" fill="#FE6309"/>
<path d="M22.2447 22.6871V24.0559L27.502 29.297L23.2666 33.5195L19.0276 29.2942L19.0219 29.2884L22.2397 26.0805H20.843L17.6223 29.2913L17.6252 29.2942L22.565 34.2189L23.2558 34.9076L23.9581 34.2082L28.8793 29.3013L22.2447 22.6871Z" fill="#FE6309"/>
<path d="M26.5605 29.294L23.9373 26.676L23.2393 25.9801L22.5528 26.6645L19.9159 29.2912L22.5542 31.9214L23.245 32.6101L23.9459 31.9107L26.5677 29.3012L26.5605 29.294ZM23.2572 31.227L21.3183 29.294L21.3126 29.2883L23.2465 27.3604L25.1853 29.2933L23.2572 31.227Z" fill="#FE6309"/>
</g>
<defs>
<filter id="filter0_d_3194_2953" x="0" y="0.799988" width="103.167" height="68" filterUnits="userSpaceOnUse" color-interpolation-filters="sRGB">
<feFlood flood-opacity="0" result="BackgroundImageFix"/>
<feColorMatrix in="SourceAlpha" type="matrix" values="0 0 0 0 0 0 0 0 0 0 0 0 0 0 0 0 0 0 127 0" result="hardAlpha"/>
<feMorphology radius="28" operator="erode" in="SourceAlpha" result="effect1_dropShadow_3194_2953"/>
<feOffset dy="10"/>
<feGaussianBlur stdDeviation="15"/>
<feColorMatrix type="matrix" values="0 0 0 0 0.129412 0 0 0 0 0.2 0 0 0 0 0.309804 0 0 0 0.6 0"/>
<feBlend mode="normal" in2="BackgroundImageFix" result="effect1_dropShadow_3194_2953"/>
<feBlend mode="normal" in="SourceGraphic" in2="effect1_dropShadow_3194_2953" result="shape"/>
</filter>
<clipPath id="clip0_3194_2953">
<rect x="14.8334" y="20.05" width="69.4167" height="17.5" rx="8" fill="white"/>
</clipPath>
</defs>
</svg>
