<svg width="107" height="70" viewBox="0 0 107 70" fill="none" xmlns="http://www.w3.org/2000/svg">
<g filter="url(#filter0_d_3194_3145)">
<rect x="2.33331" width="102" height="57.6" rx="8" fill="white"/>
</g>
<path d="M41.8438 26.4448H40.6989V31.9419H41.8438V26.4448Z" fill="#2A3362"/>
<path d="M46.2749 29.9914C46.2749 30.7501 45.7519 31.091 45.0554 31.091C44.3589 31.091 43.8934 30.7501 43.8934 30.0299V28.0709H42.7485V30.2779C42.7485 31.3768 43.4869 32.0195 44.715 32.0195C45.4868 32.0195 45.9182 31.7542 46.2074 31.4544H46.2742L46.3737 31.9425H47.4269V28.0709H46.2749V29.9914Z" fill="#2A3362"/>
<path d="M57.5057 31.1759C56.6678 31.1759 56.1952 30.8198 56.1206 30.3012H59.7543C59.7711 30.1933 59.7794 30.0845 59.7792 29.9755C59.7714 28.5829 58.6421 27.9933 57.4339 27.9933C56.0318 27.9933 54.9778 28.7758 54.9778 30.0379C54.9778 31.2376 55.9906 32.0195 57.5086 32.0195C58.7785 32.0195 59.6242 31.4936 59.7991 30.6878H58.6677C58.5262 31.0055 58.1197 31.1759 57.5057 31.1759ZM57.4347 28.8375C58.1652 28.8375 58.5881 29.1393 58.6549 29.567H56.1455C56.2528 29.1572 56.6764 28.8375 57.4311 28.8375H57.4347Z" fill="#2A3362"/>
<path d="M61.7243 28.6266H61.6532L61.5452 28.0689H60.5048V31.9426H61.6497V30.278C61.6497 29.5266 62.1137 29.1088 62.9772 29.1088C63.1341 29.1068 63.2908 29.1196 63.4448 29.1472V28.0709H63.2849C62.5217 28.0709 62.0476 28.2181 61.7243 28.6266Z" fill="#2A3362"/>
<path d="M69.0663 30.7342H69.0002L68.0209 28.3109H66.8426L65.8803 30.7269H65.8057L64.8932 28.0709H63.7561L65.1583 31.9425H66.4034L67.399 29.4722H67.4651L68.4444 31.9425H69.6974L71.0995 28.0709H69.9624L69.0663 30.7342Z" fill="#2A3362"/>
<path d="M75.6564 30.8151V29.5193C75.6564 28.4661 74.7019 27.994 73.5151 27.994C72.2544 27.994 71.4662 28.5517 71.3582 29.3866H72.5031C72.5863 29.0226 72.9181 28.8216 73.5151 28.8216C74.1121 28.8216 74.5101 29.0305 74.5101 29.4563V29.5551L72.6431 29.6877C71.7804 29.7501 71.1507 30.1062 71.1507 30.8649C71.1507 31.6468 71.8727 32.0182 72.9345 32.0182C73.7916 32.0182 74.3139 31.7953 74.6337 31.4591H74.6906C74.8704 31.8371 75.2349 31.9412 75.6315 31.9412H76.1126V31.1527H76.0046C75.7637 31.1527 75.6564 31.0446 75.6564 30.8151ZM74.5108 30.4046C74.5108 31.0168 73.729 31.2177 73.0589 31.2177C72.6026 31.2177 72.3041 31.1096 72.3041 30.8151C72.3041 30.5499 72.5614 30.4206 72.9437 30.3894L74.5115 30.2813L74.5108 30.4046Z" fill="#2A3362"/>
<path d="M79.8891 28.0709L78.5531 30.8741H78.4785L77.126 28.0709H75.8895L77.8225 31.9425H79.192L81.1165 28.0709H79.8891Z" fill="#2A3362"/>
<path d="M84.7765 30.6878C84.6343 31.0055 84.2285 31.1759 83.6145 31.1759C82.7766 31.1759 82.304 30.8198 82.2294 30.3012H85.8631C85.8798 30.1933 85.8882 30.0845 85.888 29.9755C85.8801 28.5829 84.7509 27.9933 83.5427 27.9933C82.1406 27.9933 81.0873 28.7758 81.0873 30.0379C81.0873 31.2376 82.0993 32.0195 83.6173 32.0195C84.8873 32.0195 85.733 31.4936 85.9079 30.6878H84.7765ZM83.5399 28.8375C84.2705 28.8375 84.6933 29.1393 84.7601 29.567H82.2514C82.3602 29.1572 82.7823 28.8375 83.537 28.8375H83.5399Z" fill="#2A3362"/>
<path d="M38.8384 27.7857C38.8384 27.4448 39.0956 27.2982 39.4275 27.2982C39.5819 27.2996 39.7354 27.3203 39.8838 27.3599L40.0749 26.5853C39.7978 26.4939 39.5061 26.4468 39.2122 26.446C38.3658 26.446 37.6857 26.8645 37.6857 27.7313V28.0708H36.6978V28.9191H37.6857V31.9425H38.8384V28.9184H40.129V28.0708H38.8384V27.7857Z" fill="#2A3362"/>
<path d="M49.9534 26.9792H48.8873L48.8277 28.0709H47.9265V28.9191H48.8063V30.8277C48.8063 31.4776 49.1617 32.0214 50.2277 32.0214C50.504 32.0214 50.7796 31.993 51.0492 31.9366V31.1215C50.8937 31.154 50.7352 31.1722 50.5759 31.1759C50.0038 31.1759 49.9541 30.8741 49.9541 30.6414V28.9171H51.0912V28.0709H49.9534V26.9792Z" fill="#2A3362"/>
<path d="M53.5486 26.9792H52.4862L52.4265 28.0709H51.5232V28.9191H52.403V30.8277C52.403 31.4776 52.7583 32.0214 53.8244 32.0214C54.1001 32.0206 54.3749 31.9915 54.6438 31.9346V31.1215C54.4883 31.154 54.3298 31.1722 54.1705 31.1759C53.5984 31.1759 53.5486 30.8741 53.5486 30.6414V28.9171H54.6893V28.0709H53.5486V26.9792Z" fill="#2A3362"/>
<path d="M20.7609 26.2982C20.7609 25.6768 20.9557 25.1462 21.3643 24.7649L22.075 25.4281C21.284 26.1635 21.9748 28.4502 24.2269 30.5538C26.479 32.6575 28.9309 33.3014 29.7211 32.5646L30.4318 33.2278C29.0986 34.4719 26.0619 33.5892 23.5198 31.2164C21.7566 29.5703 20.7609 27.7028 20.7609 26.2982Z" fill="#009A46"/>
<path d="M25.2424 33.7995C24.5765 33.7995 24.008 33.6178 23.5986 33.2365L24.3093 32.5733C25.0989 33.3101 27.5493 32.6655 29.8035 30.5625C32.0578 28.4595 32.7472 26.1729 31.9576 25.4361L32.6683 24.7729C34.0022 26.017 33.0556 28.8508 30.5128 31.223C28.7489 32.871 26.7476 33.7995 25.2424 33.7995Z" fill="#FF5805"/>
<path d="M30.748 30.274C30.3166 29.1148 29.4354 27.8759 28.2663 26.7856C25.7243 24.4128 22.6875 23.5294 21.3543 24.7742C21.2598 24.8631 21.3415 25.0826 21.5377 25.2656C21.7338 25.4487 21.969 25.5243 22.0636 25.4361C22.8538 24.6993 25.3042 25.3439 27.5578 27.4475C28.6238 28.4423 29.4183 29.5531 29.8014 30.5811C30.1368 31.4823 30.1041 32.2092 29.7133 32.5739C29.618 32.6621 29.7005 32.8823 29.8959 33.0647C30.0914 33.2471 30.3273 33.324 30.4225 33.2351C31.1055 32.5978 31.2213 31.5447 30.748 30.274Z" fill="#F5AFCB"/>
<path d="M32.6669 24.7742C31.9825 24.1355 30.8553 24.0274 29.4923 24.4698C28.2507 24.8716 26.9225 25.6947 25.7541 26.7849C23.212 29.1571 22.2654 31.9909 23.5986 33.2357C23.6939 33.3239 23.9291 33.2477 24.1252 33.0653C24.3214 32.8829 24.4031 32.6627 24.3079 32.5739C23.5162 31.8371 24.2091 29.5504 26.4634 27.4468C27.5294 26.452 28.7198 25.7106 29.8213 25.3531C30.7871 25.0408 31.566 25.0706 31.9576 25.4354C32.0521 25.5236 32.2881 25.4473 32.4835 25.2642C32.6789 25.0812 32.7614 24.8624 32.6669 24.7742Z" fill="#FF9B00"/>
<defs>
<filter id="filter0_d_3194_3145" x="0.333313" y="0" width="106" height="69.6" filterUnits="userSpaceOnUse" color-interpolation-filters="sRGB">
<feFlood flood-opacity="0" result="BackgroundImageFix"/>
<feColorMatrix in="SourceAlpha" type="matrix" values="0 0 0 0 0 0 0 0 0 0 0 0 0 0 0 0 0 0 127 0" result="hardAlpha"/>
<feMorphology radius="28" operator="erode" in="SourceAlpha" result="effect1_dropShadow_3194_3145"/>
<feOffset dy="10"/>
<feGaussianBlur stdDeviation="15"/>
<feColorMatrix type="matrix" values="0 0 0 0 0.129412 0 0 0 0 0.2 0 0 0 0 0.309804 0 0 0 0.6 0"/>
<feBlend mode="normal" in2="BackgroundImageFix" result="effect1_dropShadow_3194_3145"/>
<feBlend mode="normal" in="SourceGraphic" in2="effect1_dropShadow_3194_3145" result="shape"/>
</filter>
</defs>
</svg>
