<svg width="103" height="58" viewBox="0 0 103 58" fill="none" xmlns="http://www.w3.org/2000/svg">
<g clip-path="url(#clip0_3194_2966)">
<g filter="url(#filter0_d_3194_2966)">
<rect x="0.166687" width="102" height="57.6" rx="8" fill="white"/>
</g>
<g clip-path="url(#clip1_3194_2966)">
<path fill-rule="evenodd" clip-rule="evenodd" d="M38.538 29.4923L38.7989 27.9435C38.7989 27.9435 36.7903 27.2631 35.1556 28.5249V34.7209H36.8915V29.6869C37.5833 29.1055 38.538 29.4923 38.538 29.4923Z" fill="#03435F"/>
<mask id="mask0_3194_2966" style="mask-type:alpha" maskUnits="userSpaceOnUse" x="35" y="27" width="4" height="8">
<path d="M35.1555 28.5248C35.9421 27.9179 36.8152 27.7603 37.5094 27.7604C38.2581 27.7604 38.7989 27.9435 38.7989 27.9435L38.538 29.4924C38.538 29.4924 37.5832 29.1056 36.8915 29.6869V34.7209H35.1555V28.5248Z" fill="#03435F"/>
</mask>
<g mask="url(#mask0_3194_2966)">
<path fill-rule="evenodd" clip-rule="evenodd" d="M-70.5173 53.9247L173.949 53.9247L173.949 -307.298H-70.5173L-70.5173 53.9247Z" fill="#03435F"/>
</g>
<mask id="mask1_3194_2966" style="mask-type:alpha" maskUnits="userSpaceOnUse" x="35" y="27" width="4" height="8">
<path d="M35.1555 28.5248C35.9421 27.9179 36.8151 27.7604 37.5094 27.7604C38.2581 27.7604 38.7989 27.9435 38.7989 27.9435L38.538 29.4924C38.538 29.4924 37.5832 29.1056 36.8915 29.6869V34.7209H35.1555V28.5248Z" fill="#03435F"/>
</mask>
<g mask="url(#mask1_3194_2966)">
<path fill-rule="evenodd" clip-rule="evenodd" d="M32.2452 37.7565H41.7092V24.7249H32.2452V37.7565Z" fill="#03435F"/>
</g>
<path fill-rule="evenodd" clip-rule="evenodd" d="M23.572 26.177L25.3072 25.8361V27.8512H27.0242V29.4627H25.3072V31.866C25.3072 32.2754 25.3706 32.6004 25.5004 32.8408C25.6287 33.0848 25.886 33.2057 26.2725 33.2057C26.4614 33.2057 26.6512 33.1868 26.8513 33.1467C27.0458 33.106 27.2272 33.0536 27.3904 32.985L27.6359 34.4945C27.4259 34.5885 27.1938 34.6701 26.9378 34.7392C26.6811 34.8077 26.3659 34.8434 25.9934 34.8434C25.5199 34.8434 25.1286 34.7714 24.8175 34.6286C24.5079 34.4858 24.259 34.2854 24.0735 34.0296C23.8879 33.7762 23.7575 33.4651 23.6842 33.1009C23.6096 32.7373 23.572 32.3358 23.572 31.893V26.177Z" fill="#03435F"/>
<mask id="mask2_3194_2966" style="mask-type:alpha" maskUnits="userSpaceOnUse" x="23" y="25" width="5" height="10">
<path d="M23.5721 26.177L25.3073 25.836V27.8512H27.0243V29.4627H25.3073V31.866C25.3073 32.2755 25.3708 32.6004 25.5004 32.8407C25.6287 33.0848 25.8861 33.2057 26.2725 33.2057C26.4614 33.2057 26.6511 33.1868 26.8513 33.1467C27.0459 33.1059 27.2273 33.0535 27.3905 32.9851L27.6359 34.4944C27.426 34.5885 27.1938 34.6701 26.9378 34.7393C26.6811 34.8077 26.3659 34.8433 25.9934 34.8433C25.5198 34.8433 25.1287 34.7713 24.8176 34.6285C24.5079 34.4857 24.2589 34.2853 24.0735 34.0297C23.8879 33.7761 23.7576 33.4651 23.6844 33.1008C23.6097 32.7373 23.5721 32.3359 23.5721 31.8929V26.177Z" fill="#03435F"/>
</mask>
<g mask="url(#mask2_3194_2966)">
<path fill-rule="evenodd" clip-rule="evenodd" d="M-70.5173 53.9246L173.949 53.9246L173.949 -307.298H-70.5173L-70.5173 53.9246Z" fill="#03435F"/>
</g>
<mask id="mask3_3194_2966" style="mask-type:alpha" maskUnits="userSpaceOnUse" x="23" y="25" width="5" height="10">
<path d="M23.5721 26.177L25.3073 25.836V27.8512H27.0243V29.4627H25.3073V31.866C25.3073 32.2755 25.3708 32.6004 25.5004 32.8407C25.6287 33.0848 25.8861 33.2057 26.2725 33.2057C26.4614 33.2057 26.6511 33.1868 26.8513 33.1467C27.0459 33.1059 27.2273 33.0535 27.3905 32.9851L27.6359 34.4944C27.426 34.5885 27.1938 34.6701 26.9378 34.7393C26.6811 34.8077 26.3659 34.8433 25.9934 34.8433C25.5198 34.8433 25.1287 34.7713 24.8176 34.6285C24.5079 34.4857 24.2589 34.2853 24.0735 34.0297C23.8879 33.7761 23.7576 33.4651 23.6844 33.1008C23.6097 32.7373 23.5721 32.3359 23.5721 31.8929V26.177Z" fill="#03435F"/>
</mask>
<g mask="url(#mask3_3194_2966)">
<path fill-rule="evenodd" clip-rule="evenodd" d="M20.6617 37.8788H30.5461V22.8004H20.6617V37.8788Z" fill="#03435F"/>
</g>
<path fill-rule="evenodd" clip-rule="evenodd" d="M41.3689 33.3334C41.6863 33.3334 41.9108 33.2968 42.0441 33.2284C42.1765 33.1592 42.2407 33.0237 42.2407 32.8256C42.2407 32.669 42.157 32.5328 41.9854 32.4169C41.8139 32.2989 41.5558 32.1678 41.2058 32.0184C40.9345 31.9055 40.6876 31.789 40.4651 31.6688C40.2454 31.5464 40.0571 31.4036 39.9016 31.2338C39.7467 31.0649 39.6267 30.8622 39.5403 30.6263C39.4538 30.3945 39.4127 30.1141 39.4127 29.7833C39.4127 29.1429 39.6267 28.6351 40.0529 28.2628C40.4797 27.8921 41.0642 27.7027 41.8104 27.7027C42.1836 27.7027 42.5406 27.7398 42.8824 27.8149C43.2234 27.8877 43.4962 27.9708 43.6962 28.0545L43.3943 29.5625C43.192 29.4846 42.9724 29.4161 42.7359 29.3564C42.4995 29.2953 42.2331 29.2631 41.9387 29.2631C41.3955 29.2631 41.1234 29.4336 41.1234 29.7709C41.1234 29.8488 41.1353 29.9181 41.159 29.9785C41.1827 30.0398 41.2288 30.098 41.2972 30.1541C41.3689 30.2095 41.4624 30.2721 41.5837 30.3363C41.7043 30.404 41.8578 30.4739 42.0441 30.5533C42.4227 30.7107 42.7373 30.8637 42.9856 31.0182C43.2345 31.1726 43.4298 31.3351 43.5742 31.5157C43.7179 31.6921 43.8198 31.8874 43.8769 32.1043C43.9341 32.3208 43.9641 32.5706 43.9641 32.8555C43.9641 33.5308 43.7367 34.0414 43.2841 34.3868C42.8293 34.7307 42.1863 34.904 41.3557 34.904C40.8131 34.904 40.3611 34.8537 40.0006 34.7482C39.6386 34.6454 39.3889 34.5567 39.2495 34.4881L39.5403 32.9159C39.8339 33.0456 40.1394 33.1461 40.4477 33.222C40.7601 33.2963 41.0642 33.3334 41.3689 33.3334Z" fill="#03435F"/>
<mask id="mask4_3194_2966" style="mask-type:alpha" maskUnits="userSpaceOnUse" x="39" y="27" width="5" height="8">
<path d="M40.0529 28.263C40.4797 27.8921 41.0642 27.7027 41.8104 27.7027C42.1836 27.7027 42.5407 27.7398 42.8824 27.8149C43.2234 27.8877 43.4961 27.9707 43.6963 28.0545L43.3943 29.5625C43.192 29.4846 42.9724 29.4161 42.7359 29.3564C42.4995 29.2952 42.233 29.2633 41.9388 29.2633C41.3954 29.2633 41.1235 29.4335 41.1235 29.7709C41.1235 29.8488 41.1352 29.9181 41.1589 29.9785C41.1827 30.0398 41.2289 30.098 41.2972 30.1541C41.3689 30.2095 41.4625 30.2721 41.5838 30.3363C41.7044 30.4039 41.8577 30.474 42.0441 30.5533C42.4228 30.7107 42.7373 30.8637 42.9856 31.0182C43.2346 31.1726 43.4299 31.335 43.5743 31.5157C43.7179 31.6921 43.8197 31.8873 43.8769 32.1043C43.9342 32.3208 43.964 32.5706 43.964 32.8555C43.964 33.5308 43.7366 34.0415 43.2841 34.3868C42.8294 34.7307 42.1863 34.904 41.3557 34.904C40.8131 34.904 40.3612 34.8537 40.0006 34.7482C39.6386 34.6454 39.389 34.5567 39.2495 34.4881L39.5403 32.9159C39.834 33.0457 40.1394 33.1461 40.4477 33.222C40.7601 33.2961 41.0642 33.3334 41.3689 33.3334C41.6862 33.3334 41.9109 33.297 42.0441 33.2284C42.1766 33.1592 42.2407 33.0237 42.2407 32.8256C42.2407 32.669 42.1571 32.5328 41.9855 32.4169C41.8139 32.2989 41.5558 32.1678 41.2057 32.0184C40.9344 31.9055 40.6876 31.789 40.465 31.6688C40.2455 31.5464 40.0571 31.4036 39.9017 31.2338C39.7467 31.0648 39.6268 30.8622 39.5403 30.6263C39.4538 30.3944 39.4127 30.1141 39.4127 29.7833C39.4127 29.143 39.6268 28.6352 40.0529 28.263Z" fill="#03435F"/>
</mask>
<g mask="url(#mask4_3194_2966)">
<path fill-rule="evenodd" clip-rule="evenodd" d="M-70.5173 53.9247L173.949 53.9247L173.949 -307.298H-70.5173L-70.5173 53.9247Z" fill="#03435F"/>
</g>
<mask id="mask5_3194_2966" style="mask-type:alpha" maskUnits="userSpaceOnUse" x="39" y="27" width="5" height="8">
<path d="M40.0529 28.263C40.4797 27.8921 41.0642 27.7027 41.8104 27.7027C42.1836 27.7027 42.5407 27.7398 42.8824 27.8149C43.2234 27.8877 43.4961 27.9707 43.6963 28.0545L43.3943 29.5625C43.192 29.4846 42.9724 29.4161 42.7359 29.3564C42.4995 29.2952 42.233 29.2633 41.9388 29.2633C41.3954 29.2633 41.1235 29.4335 41.1235 29.7709C41.1235 29.8488 41.1352 29.9181 41.1589 29.9785C41.1827 30.0398 41.2289 30.098 41.2972 30.1541C41.3689 30.2095 41.4625 30.2721 41.5838 30.3363C41.7044 30.4039 41.8577 30.474 42.0441 30.5533C42.4228 30.7107 42.7373 30.8637 42.9856 31.0182C43.2346 31.1726 43.4299 31.335 43.5743 31.5157C43.7179 31.6921 43.8197 31.8873 43.8769 32.1043C43.9342 32.3208 43.964 32.5706 43.964 32.8555C43.964 33.5308 43.7366 34.0415 43.2841 34.3868C42.8294 34.7307 42.1863 34.904 41.3557 34.904C40.8131 34.904 40.3612 34.8537 40.0006 34.7482C39.6386 34.6454 39.389 34.5567 39.2495 34.4881L39.5403 32.9159C39.834 33.0457 40.1394 33.1461 40.4477 33.222C40.7601 33.2961 41.0642 33.3334 41.3689 33.3334C41.6862 33.3334 41.9109 33.297 42.0441 33.2284C42.1766 33.1592 42.2407 33.0237 42.2407 32.8256C42.2407 32.669 42.1571 32.5328 41.9855 32.4169C41.8139 32.2989 41.5558 32.1678 41.2057 32.0184C40.9344 31.9055 40.6876 31.789 40.465 31.6688C40.2455 31.5464 40.0571 31.4036 39.9017 31.2338C39.7467 31.0648 39.6268 30.8622 39.5403 30.6263C39.4538 30.3944 39.4127 30.1141 39.4127 29.7833C39.4127 29.143 39.6268 28.6352 40.0529 28.263Z" fill="#03435F"/>
</mask>
<g mask="url(#mask5_3194_2966)">
<path fill-rule="evenodd" clip-rule="evenodd" d="M36.3392 37.9395H46.8745V24.6671H36.3392V37.9395Z" fill="#03435F"/>
</g>
<path fill-rule="evenodd" clip-rule="evenodd" d="M49.312 30.7971C49.1565 31.4557 48.9926 32.1114 48.8176 32.7597C48.6432 33.4103 48.4576 34.0646 48.2659 34.7231H46.9151C46.7748 34.3588 46.6222 33.9261 46.4589 33.4241C46.2942 32.92 46.1262 32.3729 45.9498 31.7777C45.7753 31.1846 45.5969 30.5567 45.4141 29.8923C45.2307 29.2308 45.0528 28.562 44.8827 27.8852H46.7114C46.772 28.1963 46.841 28.538 46.9156 28.9058C46.9896 29.2745 47.0677 29.6541 47.1493 30.0446C47.231 30.4337 47.3181 30.8247 47.4073 31.2196C47.4973 31.6145 47.5895 31.9926 47.6828 32.3562C47.784 31.9752 47.883 31.5861 47.98 31.1876C48.0755 30.7884 48.1697 30.3964 48.2596 30.0111C48.3482 29.6264 48.4354 29.2527 48.5149 28.8928C48.5958 28.5335 48.6677 28.1963 48.7311 27.8852H49.9872C50.0513 28.1963 50.1189 28.5335 50.1977 28.8928C50.2744 29.2527 50.3561 29.6264 50.4426 30.0111C50.5262 30.3964 50.6176 30.7884 50.709 31.1876C50.803 31.5861 50.8994 31.9752 50.9991 32.3562C51.0932 31.9926 51.1867 31.6145 51.2808 31.2196C51.375 30.8247 51.4635 30.4337 51.5445 30.0446C51.6254 29.6541 51.7035 29.2745 51.7789 28.9058C51.8535 28.538 51.9211 28.1963 51.9831 27.8852H53.7881C53.6166 28.562 53.4401 29.2308 53.2567 29.8923C53.0719 30.5567 52.8954 31.1846 52.719 31.7777C52.5452 32.3729 52.3737 32.92 52.207 33.4241C52.039 33.9261 51.8841 34.3588 51.7461 34.7231H50.3952C50.1998 34.0646 50.0102 33.4103 49.8233 32.7597C49.637 32.1114 49.4682 31.4557 49.312 30.7971Z" fill="#03435F"/>
<mask id="mask6_3194_2966" style="mask-type:alpha" maskUnits="userSpaceOnUse" x="44" y="27" width="10" height="8">
<path d="M51.9831 27.8853H53.7881C53.6166 28.5621 53.4401 29.2309 53.2566 29.8922C53.0718 30.5568 52.8954 31.1848 52.7189 31.7778C52.5452 32.373 52.3737 32.9201 52.2069 33.4242C52.0389 33.9262 51.8841 34.3588 51.746 34.7231H50.3951C50.1998 34.0646 50.0102 33.4103 49.8233 32.7597C49.637 32.1114 49.4682 31.4558 49.312 30.7971C49.1564 31.4558 48.9925 32.1114 48.8176 32.7597C48.6432 33.4103 48.4576 34.0646 48.2658 34.7231H46.9149C46.7747 34.3588 46.622 33.9262 46.4588 33.4242C46.2942 32.9201 46.1261 32.373 45.9498 31.7778C45.7753 31.1848 45.5968 30.5568 45.4141 29.8922C45.2307 29.2309 45.0528 28.5621 44.8827 27.8853H46.7112C46.772 28.1963 46.841 28.538 46.9156 28.9059C46.9896 29.2745 47.0676 29.6541 47.1493 30.0445C47.2308 30.4336 47.3181 30.8248 47.4073 31.2197C47.4973 31.6145 47.5895 31.9926 47.6828 32.3563C47.7839 31.9752 47.8829 31.5861 47.9798 31.1876C48.0754 30.7885 48.1697 30.3965 48.2596 30.0112C48.3481 29.6263 48.4353 29.2526 48.5149 28.8929C48.5958 28.5336 48.6677 28.1963 48.731 27.8853H49.9872C50.0512 28.1963 50.1189 28.5336 50.1977 28.8929C50.2744 29.2526 50.3561 29.6263 50.4425 30.0112C50.5262 30.3965 50.6175 30.7885 50.709 31.1876C50.803 31.5861 50.8994 31.9752 50.999 32.3563C51.0932 31.9926 51.1866 31.6145 51.2808 31.2197C51.375 30.8248 51.4635 30.4336 51.5445 30.0445C51.6254 29.6541 51.7035 29.2745 51.7788 28.9059C51.8535 28.538 51.9211 28.1963 51.9831 27.8853Z" fill="#03435F"/>
</mask>
<g mask="url(#mask6_3194_2966)">
<path fill-rule="evenodd" clip-rule="evenodd" d="M-70.5173 53.9247L173.949 53.9247L173.949 -307.298H-70.5173L-70.5173 53.9247Z" fill="#03435F"/>
</g>
<mask id="mask7_3194_2966" style="mask-type:alpha" maskUnits="userSpaceOnUse" x="44" y="27" width="10" height="8">
<path d="M51.9831 27.8853H53.7881C53.6166 28.5621 53.4401 29.2309 53.2566 29.8922C53.0718 30.5568 52.8954 31.1848 52.7189 31.7778C52.5452 32.373 52.3737 32.9201 52.2069 33.4242C52.0389 33.9262 51.8841 34.3588 51.746 34.7231H50.3951C50.1998 34.0646 50.0102 33.4103 49.8233 32.7597C49.637 32.1114 49.4682 31.4558 49.312 30.7971C49.1564 31.4558 48.9925 32.1114 48.8176 32.7597C48.6432 33.4103 48.4576 34.0646 48.2658 34.7231H46.9149C46.7747 34.3588 46.622 33.9262 46.4588 33.4242C46.2942 32.9201 46.1261 32.373 45.9498 31.7778C45.7753 31.1848 45.5968 30.5568 45.4141 29.8922C45.2307 29.2309 45.0528 28.5621 44.8827 27.8853H46.7112C46.772 28.1963 46.841 28.538 46.9156 28.9059C46.9896 29.2745 47.0676 29.6541 47.1493 30.0445C47.2308 30.4336 47.3181 30.8248 47.4073 31.2197C47.4973 31.6145 47.5895 31.9926 47.6828 32.3563C47.7839 31.9752 47.8829 31.5861 47.9798 31.1876C48.0754 30.7885 48.1697 30.3965 48.2596 30.0112C48.3481 29.6263 48.4353 29.2526 48.5149 28.8929C48.5958 28.5336 48.6677 28.1963 48.731 27.8853H49.9872C50.0512 28.1963 50.1189 28.5336 50.1977 28.8929C50.2744 29.2526 50.3561 29.6263 50.4425 30.0112C50.5262 30.3965 50.6175 30.7885 50.709 31.1876C50.803 31.5861 50.8994 31.9752 50.999 32.3563C51.0932 31.9926 51.1866 31.6145 51.2808 31.2197C51.375 30.8248 51.4635 30.4336 51.5445 30.0445C51.6254 29.6541 51.7035 29.2745 51.7788 28.9059C51.8535 28.538 51.9211 28.1963 51.9831 27.8853Z" fill="#03435F"/>
</mask>
<g mask="url(#mask7_3194_2966)">
<path fill-rule="evenodd" clip-rule="evenodd" d="M41.9724 37.7587H56.6984V24.8498H41.9724V37.7587Z" fill="#03435F"/>
</g>
<path fill-rule="evenodd" clip-rule="evenodd" d="M55.0146 34.7205H56.7471V27.884H55.0146V34.7205Z" fill="#03435F"/>
<mask id="mask8_3194_2966" style="mask-type:alpha" maskUnits="userSpaceOnUse" x="55" y="27" width="2" height="8">
<path d="M55.0146 34.7206V27.8841H56.7472V34.7206H55.0146Z" fill="#03435F"/>
</mask>
<g mask="url(#mask8_3194_2966)">
<path fill-rule="evenodd" clip-rule="evenodd" d="M-70.5173 53.9247L173.949 53.9247L173.949 -307.298H-70.5173L-70.5173 53.9247Z" fill="#03435F"/>
</g>
<mask id="mask9_3194_2966" style="mask-type:alpha" maskUnits="userSpaceOnUse" x="55" y="27" width="2" height="8">
<path d="M55.0146 34.7206V27.8841H56.7472V34.7206H55.0146Z" fill="#03435F"/>
</mask>
<g mask="url(#mask9_3194_2966)">
<path fill-rule="evenodd" clip-rule="evenodd" d="M52.1043 37.756H59.6573V24.8485H52.1043V37.756Z" fill="#03435F"/>
</g>
<path fill-rule="evenodd" clip-rule="evenodd" d="M58.1252 26.1791L59.859 25.836V27.8875H61.5747V29.496H59.859V31.9017C59.859 32.3088 59.9231 32.6368 60.0508 32.8764C60.1784 33.119 60.4371 33.2407 60.8243 33.2407C61.0119 33.2407 61.2043 33.2232 61.401 33.1831C61.5997 33.1437 61.7797 33.0877 61.9436 33.0199L62.1871 34.528C61.977 34.624 61.7434 34.7057 61.4889 34.7756C61.2314 34.844 60.9198 34.879 60.5459 34.879C60.0717 34.879 59.6805 34.8077 59.3701 34.6634C59.0591 34.5228 58.8107 34.324 58.6253 34.066C58.4397 33.8125 58.3101 33.4999 58.2355 33.1379C58.1601 32.773 58.1252 32.3694 58.1252 31.9285V26.1791Z" fill="#03435F"/>
<mask id="mask10_3194_2966" style="mask-type:alpha" maskUnits="userSpaceOnUse" x="58" y="25" width="5" height="10">
<path d="M58.1252 26.1791L59.8589 25.836V27.8875H61.5747V29.496H59.8589V31.9017C59.8589 32.3088 59.9232 32.6367 60.0508 32.8764C60.1785 33.119 60.4371 33.2406 60.8242 33.2406C61.0118 33.2406 61.2044 33.2232 61.401 33.1831C61.5997 33.1436 61.7798 33.0877 61.9435 33.0199L62.187 34.5279C61.9771 34.624 61.7434 34.7057 61.489 34.7756C61.2315 34.844 60.9199 34.879 60.5459 34.879C60.0718 34.879 59.6804 34.8077 59.3702 34.6634C59.059 34.5227 58.8108 34.324 58.6253 34.0661C58.4398 33.8125 58.3101 33.5001 58.2354 33.1379C58.1602 32.773 58.1252 32.3692 58.1252 31.9286V26.1791Z" fill="#03435F"/>
</mask>
<g mask="url(#mask10_3194_2966)">
<path fill-rule="evenodd" clip-rule="evenodd" d="M-70.5173 53.9247L173.949 53.9247L173.949 -307.298H-70.5173L-70.5173 53.9247Z" fill="#03435F"/>
</g>
<mask id="mask11_3194_2966" style="mask-type:alpha" maskUnits="userSpaceOnUse" x="58" y="25" width="5" height="10">
<path d="M58.1252 26.1791L59.8589 25.836V27.8875H61.5747V29.496H59.8589V31.9017C59.8589 32.3088 59.9232 32.6367 60.0508 32.8764C60.1785 33.119 60.4371 33.2406 60.8242 33.2406C61.0118 33.2406 61.2044 33.2232 61.401 33.1831C61.5997 33.1436 61.7798 33.0877 61.9435 33.0199L62.187 34.5279C61.9771 34.624 61.7434 34.7057 61.489 34.7756C61.2315 34.844 60.9199 34.879 60.5459 34.879C60.0718 34.879 59.6804 34.8077 59.3702 34.6634C59.059 34.5227 58.8108 34.324 58.6253 34.0661C58.4398 33.8125 58.3101 33.5001 58.2354 33.1379C58.1602 32.773 58.1252 32.3692 58.1252 31.9286V26.1791Z" fill="#03435F"/>
</mask>
<g mask="url(#mask11_3194_2966)">
<path fill-rule="evenodd" clip-rule="evenodd" d="M55.2148 37.9146H65.0974V22.8004H55.2148V37.9146Z" fill="#03435F"/>
</g>
<path fill-rule="evenodd" clip-rule="evenodd" d="M62.7997 31.3058C62.7997 30.811 62.8717 30.3449 63.0153 29.9078C63.1589 29.4692 63.3662 29.089 63.6375 28.7633C63.9094 28.4377 64.2386 28.1811 64.6277 27.9896C65.0148 27.8009 65.457 27.7033 65.9536 27.7033C66.2792 27.7033 66.5785 27.7376 66.8504 27.8016C67.1226 27.868 67.3876 27.9605 67.642 28.0806L67.2823 29.6274C67.1184 29.5588 66.9404 29.4991 66.7452 29.4452C66.5513 29.3941 66.333 29.3673 66.0931 29.3673C65.5812 29.3673 65.1982 29.5457 64.9478 29.9012C64.6933 30.2575 64.5691 30.7245 64.5691 31.3058C64.5691 31.9199 64.687 32.397 64.9256 32.7352C65.1599 33.0724 65.5742 33.2422 66.1635 33.2422C66.3734 33.2422 66.5973 33.2195 66.8393 33.1766C67.0793 33.1329 67.3003 33.0644 67.504 32.9683L67.7468 34.555C67.5443 34.6504 67.2934 34.7305 66.9907 34.8011C66.6866 34.8698 66.3538 34.9054 65.9899 34.9054C65.4311 34.9054 64.9486 34.8107 64.5461 34.6248C64.1432 34.4391 63.8104 34.1855 63.5509 33.865C63.2894 33.5438 63.1011 33.165 62.9805 32.7278C62.8598 32.29 62.7997 31.8151 62.7997 31.3058Z" fill="#03435F"/>
<mask id="mask12_3194_2966" style="mask-type:alpha" maskUnits="userSpaceOnUse" x="62" y="27" width="6" height="8">
<path d="M64.6277 27.9896C65.0148 27.8009 65.457 27.7033 65.9536 27.7033C66.2792 27.7033 66.5785 27.7374 66.8504 27.8015C67.1224 27.868 67.3876 27.9604 67.642 28.0806L67.2823 29.6273C67.1182 29.5588 66.9404 29.4991 66.7451 29.4452C66.5512 29.394 66.333 29.3672 66.093 29.3672C65.5812 29.3672 65.1982 29.5457 64.9478 29.9012C64.6933 30.2574 64.5691 30.7244 64.5691 31.3058C64.5691 31.9199 64.6871 32.397 64.9256 32.7352C65.1599 33.0724 65.5741 33.2422 66.1634 33.2422C66.3734 33.2422 66.5973 33.2195 66.8393 33.1766C67.0793 33.1329 67.3003 33.0644 67.5039 32.9682L67.7467 34.555C67.5444 34.6504 67.2934 34.7304 66.9906 34.8011C66.6866 34.8697 66.3539 34.9054 65.9899 34.9054C65.431 34.9054 64.9486 34.8106 64.5461 34.6247C64.1432 34.439 63.8104 34.1855 63.5508 33.8651C63.2895 33.5438 63.1011 33.165 62.9805 32.7278C62.8598 32.29 62.7997 31.815 62.7997 31.3058C62.7997 30.811 62.8717 30.3449 63.0153 29.9078C63.1589 29.4692 63.3662 29.0889 63.6374 28.7631C63.9094 28.4376 64.2386 28.1811 64.6277 27.9896Z" fill="#03435F"/>
</mask>
<g mask="url(#mask12_3194_2966)">
<path fill-rule="evenodd" clip-rule="evenodd" d="M-70.5173 53.9247L173.949 53.9247L173.949 -307.298H-70.5173L-70.5173 53.9247Z" fill="#03435F"/>
</g>
<mask id="mask13_3194_2966" style="mask-type:alpha" maskUnits="userSpaceOnUse" x="62" y="27" width="6" height="8">
<path d="M64.6277 27.9896C65.0148 27.8009 65.457 27.7033 65.9536 27.7033C66.2792 27.7033 66.5785 27.7374 66.8504 27.8015C67.1224 27.868 67.3876 27.9604 67.642 28.0806L67.2823 29.6273C67.1182 29.5588 66.9404 29.4991 66.7451 29.4452C66.5512 29.394 66.333 29.3672 66.093 29.3672C65.5812 29.3672 65.1982 29.5457 64.9478 29.9012C64.6933 30.2574 64.5691 30.7244 64.5691 31.3058C64.5691 31.9199 64.6871 32.397 64.9256 32.7352C65.1599 33.0724 65.5741 33.2422 66.1634 33.2422C66.3734 33.2422 66.5973 33.2195 66.8393 33.1766C67.0793 33.1329 67.3003 33.0644 67.5039 32.9682L67.7467 34.555C67.5444 34.6504 67.2934 34.7304 66.9906 34.8011C66.6866 34.8697 66.3539 34.9054 65.9899 34.9054C65.431 34.9054 64.9486 34.8106 64.5461 34.6247C64.1432 34.439 63.8104 34.1855 63.5508 33.8651C63.2895 33.5438 63.1011 33.165 62.9805 32.7278C62.8598 32.29 62.7997 31.815 62.7997 31.3058C62.7997 30.811 62.8717 30.3449 63.0153 29.9078C63.1589 29.4692 63.3662 29.0889 63.6374 28.7631C63.9094 28.4376 64.2386 28.1811 64.6277 27.9896Z" fill="#03435F"/>
</mask>
<g mask="url(#mask13_3194_2966)">
<path fill-rule="evenodd" clip-rule="evenodd" d="M59.8895 37.9409H70.6569V24.6677H59.8895V37.9409Z" fill="#03435F"/>
</g>
<path fill-rule="evenodd" clip-rule="evenodd" d="M68.8676 34.7207V26.1766L70.6021 25.8365V27.9127C70.7178 27.8697 70.8664 27.8282 71.0506 27.7889C71.2319 27.7503 71.4097 27.7298 71.58 27.7298C72.0757 27.7298 72.4879 27.8063 72.8184 27.9572C73.1477 28.1087 73.4134 28.3237 73.61 28.6012C73.8095 28.8773 73.9476 29.208 74.0307 29.5876C74.1108 29.97 74.1512 30.3956 74.1512 30.8633V34.7207H72.4174V31.0956C72.4174 30.4719 72.3456 30.0305 72.2027 29.769C72.059 29.5117 71.7926 29.3814 71.4055 29.3814C71.248 29.3814 71.1041 29.3968 70.9675 29.4259C70.8322 29.4565 70.7102 29.49 70.6021 29.5242V34.7207H68.8676Z" fill="#03435F"/>
<mask id="mask14_3194_2966" style="mask-type:alpha" maskUnits="userSpaceOnUse" x="68" y="25" width="7" height="10">
<path d="M68.8676 26.1765L70.602 25.8364V27.9128C70.7178 27.8696 70.8664 27.8281 71.0506 27.7889C71.2319 27.7502 71.4097 27.7299 71.58 27.7299C72.0757 27.7299 72.488 27.8064 72.8185 27.9571C73.1477 28.1088 73.4135 28.3236 73.61 28.6012C73.8094 28.8773 73.9477 29.2079 74.0307 29.5877C74.1108 29.97 74.1512 30.3955 74.1512 30.8633V34.7206H72.4175V31.0955C72.4175 30.472 72.3455 30.0304 72.2027 29.7689C72.059 29.5118 71.7926 29.3814 71.4055 29.3814C71.2479 29.3814 71.1041 29.3967 70.9675 29.4259C70.8322 29.4564 70.7102 29.4899 70.602 29.5242V34.7206H68.8676V26.1765Z" fill="#03435F"/>
</mask>
<g mask="url(#mask14_3194_2966)">
<path fill-rule="evenodd" clip-rule="evenodd" d="M-70.5173 53.9247L173.949 53.9247L173.949 -307.298H-70.5173L-70.5173 53.9247Z" fill="#03435F"/>
</g>
<mask id="mask15_3194_2966" style="mask-type:alpha" maskUnits="userSpaceOnUse" x="68" y="25" width="7" height="10">
<path d="M68.8676 26.1765L70.602 25.8364V27.9128C70.7178 27.8696 70.8664 27.8281 71.0506 27.7889C71.2319 27.7502 71.4097 27.7299 71.58 27.7299C72.0757 27.7299 72.488 27.8064 72.8185 27.9571C73.1477 28.1088 73.4135 28.3236 73.61 28.6012C73.8094 28.8773 73.9477 29.2079 74.0307 29.5877C74.1108 29.97 74.1512 30.3955 74.1512 30.8633V34.7206H72.4175V31.0955C72.4175 30.472 72.3455 30.0304 72.2027 29.7689C72.059 29.5118 71.7926 29.3814 71.4055 29.3814C71.2479 29.3814 71.1041 29.3967 70.9675 29.4259C70.8322 29.4564 70.7102 29.4899 70.602 29.5242V34.7206H68.8676V26.1765Z" fill="#03435F"/>
</mask>
<g mask="url(#mask15_3194_2966)">
<path fill-rule="evenodd" clip-rule="evenodd" d="M65.9573 37.7562H77.0615V22.8008H65.9573V37.7562Z" fill="#03435F"/>
</g>
<path fill-rule="evenodd" clip-rule="evenodd" d="M16.5749 34.7229V28.5276C16.5749 28.5276 17.4467 27.7502 19.3534 27.7502C21.0886 27.7502 22.0414 28.7185 22.0414 30.8494V34.7229H20.3083V30.8494C20.3083 29.4922 19.7 29.3982 19.1804 29.3982C18.6609 29.3982 18.3129 29.6866 18.3129 29.6866V34.7229H16.5749Z" fill="#03435F"/>
<mask id="mask16_3194_2966" style="mask-type:alpha" maskUnits="userSpaceOnUse" x="16" y="27" width="7" height="8">
<path d="M16.575 28.5276C16.575 28.5276 17.4467 27.7502 19.3535 27.7502C21.0886 27.7502 22.0413 28.7184 22.0413 30.8495V34.7229H20.3083V30.8495C20.3083 29.492 19.7001 29.3982 19.1805 29.3982C18.6609 29.3982 18.3129 29.6868 18.3129 29.6868V34.7229H16.575V28.5276Z" fill="#03435F"/>
</mask>
<g mask="url(#mask16_3194_2966)">
<path fill-rule="evenodd" clip-rule="evenodd" d="M-70.5173 53.9247L173.949 53.9247L173.949 -307.298H-70.5173L-70.5173 53.9247Z" fill="#03435F"/>
</g>
<mask id="mask17_3194_2966" style="mask-type:alpha" maskUnits="userSpaceOnUse" x="16" y="27" width="7" height="8">
<path d="M16.575 28.5276C16.575 28.5276 17.4467 27.7502 19.3535 27.7502C21.0886 27.7502 22.0413 28.7184 22.0413 30.8495V34.7229H20.3083V30.8495C20.3083 29.492 19.7001 29.3982 19.1805 29.3982C18.6609 29.3982 18.3129 29.6868 18.3129 29.6868V34.7229H16.575V28.5276Z" fill="#03435F"/>
</mask>
<g mask="url(#mask17_3194_2966)">
<path fill-rule="evenodd" clip-rule="evenodd" d="M13.6647 37.7585H24.9516V24.7149H13.6647V37.7585Z" fill="#03435F"/>
</g>
<path fill-rule="evenodd" clip-rule="evenodd" d="M13.3096 34.723V26.1774L15.0447 25.8364V34.723H13.3096Z" fill="#03435F"/>
<mask id="mask18_3194_2966" style="mask-type:alpha" maskUnits="userSpaceOnUse" x="13" y="25" width="3" height="10">
<path d="M13.3096 26.1775L15.0447 25.8364V34.723H13.3096V26.1775Z" fill="#03435F"/>
</mask>
<g mask="url(#mask18_3194_2966)">
<path fill-rule="evenodd" clip-rule="evenodd" d="M-70.5173 53.9247L173.949 53.9247L173.949 -307.298H-70.5173L-70.5173 53.9247Z" fill="#03435F"/>
</g>
<mask id="mask19_3194_2966" style="mask-type:alpha" maskUnits="userSpaceOnUse" x="13" y="25" width="3" height="10">
<path d="M13.3096 26.1775L15.0447 25.8364V34.723H13.3096V26.1775Z" fill="#03435F"/>
</mask>
<g mask="url(#mask19_3194_2966)">
<path fill-rule="evenodd" clip-rule="evenodd" d="M10.3992 37.7585H17.9551V22.801H10.3992V37.7585Z" fill="#03435F"/>
</g>
<path fill-rule="evenodd" clip-rule="evenodd" d="M33.7988 31.7953H29.8959C29.8959 31.7953 29.9831 33.2472 31.7162 33.2472C32.5839 33.2472 33.4515 32.9579 33.4515 32.9579L33.6251 34.5089C33.6251 34.5089 32.7582 34.8929 31.5447 34.8929C29.8088 34.8929 28.2479 33.926 28.2479 31.2154C28.2479 29.0837 29.4615 27.7301 31.196 27.7301C33.7988 27.7301 33.9731 30.631 33.7988 31.7953ZM31.1109 29.0837C29.9831 29.0837 29.8959 30.4387 29.8959 30.4387H32.323C32.323 30.4387 32.2379 29.0837 31.1109 29.0837Z" fill="#03435F"/>
<mask id="mask20_3194_2966" style="mask-type:alpha" maskUnits="userSpaceOnUse" x="28" y="27" width="6" height="8">
<path d="M28.248 31.2154C28.248 29.0837 29.4615 27.7301 31.196 27.7301C33.7987 27.7301 33.973 30.6311 33.7987 31.7953H29.896C29.896 31.7953 29.9831 33.2472 31.7161 33.2472C32.5838 33.2472 33.4514 32.9579 33.4514 32.9579L33.6251 34.5089C33.6251 34.5089 32.7582 34.893 31.5447 34.893C29.8088 34.893 28.248 33.9262 28.248 31.2154ZM31.1109 29.0837C29.9831 29.0837 29.896 30.4388 29.896 30.4388H32.323C32.323 30.4388 32.2379 29.0837 31.1109 29.0837Z" fill="#03435F"/>
</mask>
<g mask="url(#mask20_3194_2966)">
<path fill-rule="evenodd" clip-rule="evenodd" d="M-70.5173 53.9247L173.949 53.9247L173.949 -307.298H-70.5173L-70.5173 53.9247Z" fill="#03435F"/>
</g>
<mask id="mask21_3194_2966" style="mask-type:alpha" maskUnits="userSpaceOnUse" x="28" y="27" width="6" height="8">
<path d="M28.248 31.2154C28.248 29.0837 29.4615 27.7301 31.196 27.7301C33.7987 27.7301 33.973 30.6311 33.7987 31.7953H29.896C29.896 31.7953 29.9831 33.2472 31.7161 33.2472C32.5838 33.2472 33.4514 32.9579 33.4514 32.9579L33.6251 34.5089C33.6251 34.5089 32.7582 34.893 31.5447 34.893C29.8088 34.893 28.248 33.9262 28.248 31.2154ZM31.1109 29.0837C29.9831 29.0837 29.896 30.4388 29.896 30.4388H32.323C32.323 30.4388 32.2379 29.0837 31.1109 29.0837Z" fill="#03435F"/>
</mask>
<g mask="url(#mask21_3194_2966)">
<path fill-rule="evenodd" clip-rule="evenodd" d="M25.3376 37.9284H36.7576V24.6946H25.3376V37.9284Z" fill="#03435F"/>
</g>
<mask id="mask22_3194_2966" style="mask-type:alpha" maskUnits="userSpaceOnUse" x="76" y="24" width="12" height="16">
<path d="M76.4495 25.8381C76.4495 25.425 81.438 24.5336 84.7837 24.5336C86.2345 24.5336 87.3763 24.7012 87.6684 25.1481C89.1748 27.2229 78.5698 40.2401 77.6862 39.8452C76.9775 39.6478 83.3402 31.3623 82.2795 28.0076C81.7501 26.2336 76.4495 26.431 76.4495 25.8381Z" fill="#ED342B"/>
</mask>
<g mask="url(#mask22_3194_2966)">
<path fill-rule="evenodd" clip-rule="evenodd" d="M73.5393 42.8895H90.7249V21.4981H73.5393V42.8895Z" fill="#ED342B"/>
</g>
<mask id="mask23_3194_2966" style="mask-type:alpha" maskUnits="userSpaceOnUse" x="85" y="18" width="6" height="6">
<path d="M85.4599 20.7096C85.4599 19.2926 86.4887 18.146 87.7566 18.146C89.0258 18.146 90.0532 19.2926 90.0532 20.7096C90.0532 22.1272 89.0258 23.2739 87.7566 23.2739C86.4887 23.2739 85.4599 22.1272 85.4599 20.7096Z" fill="#ED342B"/>
</mask>
<g mask="url(#mask23_3194_2966)">
<path fill-rule="evenodd" clip-rule="evenodd" d="M82.5497 26.3094H92.9635V15.1104H82.5497V26.3094Z" fill="#ED342B"/>
</g>
</g>
</g>
<defs>
<filter id="filter0_d_3194_2966" x="-1.83331" y="0" width="106" height="69.6" filterUnits="userSpaceOnUse" color-interpolation-filters="sRGB">
<feFlood flood-opacity="0" result="BackgroundImageFix"/>
<feColorMatrix in="SourceAlpha" type="matrix" values="0 0 0 0 0 0 0 0 0 0 0 0 0 0 0 0 0 0 127 0" result="hardAlpha"/>
<feMorphology radius="28" operator="erode" in="SourceAlpha" result="effect1_dropShadow_3194_2966"/>
<feOffset dy="10"/>
<feGaussianBlur stdDeviation="15"/>
<feColorMatrix type="matrix" values="0 0 0 0 0.129412 0 0 0 0 0.2 0 0 0 0 0.309804 0 0 0 0.6 0"/>
<feBlend mode="normal" in2="BackgroundImageFix" result="effect1_dropShadow_3194_2966"/>
<feBlend mode="normal" in="SourceGraphic" in2="effect1_dropShadow_3194_2966" result="shape"/>
</filter>
<clipPath id="clip0_3194_2966">
<rect width="102" height="57.6" fill="white" transform="translate(0.166687)"/>
</clipPath>
<clipPath id="clip1_3194_2966">
<rect width="77" height="22" fill="white" transform="translate(13.1667 18)"/>
</clipPath>
</defs>
</svg>
