<svg width="104" height="69" viewBox="0 0 104 69" fill="none" xmlns="http://www.w3.org/2000/svg">
<g filter="url(#filter0_d_3194_3103)">
<rect x="2.16663" y="0.799988" width="99.1667" height="56" rx="8" fill="white"/>
</g>
<g clip-path="url(#clip0_3194_3103)">
<path d="M62.3683 21.1105C62.3938 26.8385 57.745 31.7184 51.7595 31.7261C45.92 31.7329 41.127 27.0255 41.1316 21.0996C41.1361 15.0963 46.0247 10.4703 51.7695 10.4826C57.6513 10.4949 62.3969 15.2965 62.3683 21.1105ZM52.1694 16.9168C52.1508 18.6303 53.5872 20.019 55.2707 20.0185C56.8801 20.0185 58.3693 18.719 58.3729 16.9122C58.3766 15.0886 56.8869 13.7982 55.2862 13.795C53.6318 13.7918 52.1499 15.1705 52.1694 16.9168Z" fill="#DB353A"/>
<path d="M72.3205 41.8963C72.2855 41.8845 72.275 41.8922 72.2641 41.9104C72.0034 42.3527 71.5943 42.5929 71.1106 42.6875C70.2548 42.8573 69.4576 42.693 68.7533 42.1688C68.1727 41.7366 67.8469 41.1401 67.7523 40.4294C67.6474 39.7106 67.7602 38.9768 68.0762 38.3227C68.5372 37.3672 69.3016 36.7917 70.3321 36.5687C70.7497 36.4726 71.181 36.4511 71.6061 36.505C72.6667 36.6502 73.3884 37.2235 73.7801 38.2131C73.9172 38.5479 73.9883 38.906 73.9894 39.2678C73.9817 40.3329 74.0272 41.3967 74.0459 42.4614C74.0547 42.8817 73.983 43.2998 73.8347 43.6931C73.4935 44.5958 72.8651 45.211 71.951 45.5158C71.2147 45.7642 70.4206 45.7848 69.6724 45.575C69.396 45.5025 69.135 45.3806 68.9021 45.2151C68.5085 44.9321 68.2869 44.5612 68.3106 44.0621C68.3188 43.8865 68.3106 43.7099 68.3128 43.5338C68.3128 43.4993 68.3206 43.4629 68.3561 43.4515C68.3728 43.4479 68.3903 43.4491 68.4064 43.455C68.4225 43.4609 68.4366 43.4712 68.4471 43.4847C68.6062 43.6345 68.7886 43.7575 68.9872 43.8487C69.261 43.9759 69.551 44.0651 69.8489 44.114C70.1528 44.1649 70.4613 44.182 70.7689 44.1649C71.0208 44.1568 71.2693 44.1054 71.5038 44.013C71.9515 43.831 72.219 43.4974 72.3128 43.0283C72.363 42.7891 72.375 42.5434 72.3482 42.3003C72.3337 42.1652 72.3296 42.0264 72.3205 41.8963ZM72.2882 39.6213C72.2882 39.2091 72.2427 38.9525 72.1294 38.7013C71.9055 38.1976 71.4765 37.9651 70.94 37.9924C70.4036 38.0197 69.9845 38.2863 69.7224 38.7609C69.5782 39.0126 69.4918 39.2932 69.4697 39.5825C69.4475 39.8717 69.49 40.1623 69.5941 40.433C69.8112 41.0245 70.3676 41.4377 71.1671 41.2711C71.6676 41.1665 71.9861 40.8407 72.1649 40.3716C72.2523 40.1318 72.2941 39.8778 72.2882 39.6227V39.6213Z" fill="#686767"/>
<path d="M35.3126 37.0045C35.2498 36.9991 35.2216 36.9522 35.1866 36.919C34.7252 36.4931 34.1714 36.282 33.5563 36.2065C33.1898 36.1615 32.8192 36.1622 32.4529 36.2087C32.202 36.2325 31.9572 36.3004 31.7299 36.4094C31.3573 36.6005 31.1762 36.9035 31.1885 37.3248C31.1897 37.4215 31.2119 37.5168 31.2534 37.6042C31.295 37.6915 31.3549 37.7688 31.4292 37.8308C31.5448 37.9281 31.6746 38.0073 31.8141 38.0656C32.1306 38.1993 32.4587 38.3039 32.7942 38.3782C33.079 38.4464 33.3665 38.5056 33.6491 38.5834C34.0312 38.6845 34.3918 38.8541 34.7134 39.0839C35.1756 39.4197 35.4869 39.8624 35.5551 40.432C35.7084 41.6924 35.2066 42.9022 33.8202 43.4091C33.1959 43.6366 32.5462 43.6912 31.8873 43.6393C31.5607 43.621 31.2376 43.5629 30.925 43.4664C30.709 43.3992 30.5035 43.3021 30.3144 43.178C29.8808 42.8831 29.6551 42.4741 29.6442 41.9495C29.6392 41.7147 29.6442 41.4799 29.6442 41.2451C29.6442 41.1928 29.687 41.1705 29.7275 41.1996C29.7811 41.2397 29.8317 41.2843 29.8844 41.3252C30.6861 41.9476 31.592 42.1897 32.5976 42.0723C32.815 42.0525 33.0285 42.0015 33.2314 41.9208C33.4553 41.8262 33.6382 41.6842 33.7406 41.4585C33.8639 41.1855 33.8666 40.9048 33.7983 40.6218C33.7638 40.4789 33.6618 40.3738 33.5463 40.286C33.4166 40.193 33.2744 40.1187 33.124 40.0653C32.7386 39.9257 32.3431 39.8152 31.941 39.735C31.637 39.6744 31.3378 39.5913 31.046 39.4865C30.7218 39.3706 30.4197 39.2001 30.1529 38.9824C29.6305 38.5429 29.4094 37.9732 29.4631 37.3085C29.5605 36.1387 30.2107 35.367 31.2635 34.9097C31.6344 34.7506 32.0318 34.6625 32.4352 34.6499C32.922 34.6312 33.4075 34.6399 33.8848 34.7559C34.1469 34.8145 34.3985 34.9132 34.6305 35.0485C34.8726 35.1862 35.0705 35.3899 35.2011 35.6359C35.2755 35.7681 35.3192 35.9154 35.329 36.0668C35.3367 36.3598 35.339 36.6533 35.3412 36.9467C35.3412 36.9649 35.3244 36.9859 35.3126 37.0045Z" fill="#686767"/>
<path d="M44.0063 40.7997C43.6964 40.7997 43.3861 40.7997 43.0758 40.7997C42.9812 40.7997 42.9561 40.8325 42.9762 40.9239C43.0256 41.1544 43.1309 41.3693 43.2828 41.5496C43.5586 41.8776 43.9171 42.0623 44.3293 42.1547C44.6697 42.2311 45.0118 42.2179 45.3558 42.1893C45.615 42.1684 45.871 42.118 46.1188 42.0391C46.4159 41.9473 46.6922 41.7981 46.9319 41.6001C46.9838 41.5546 47.0352 41.5791 47.0352 41.6433C47.0352 41.8863 47.0498 42.1288 47.0097 42.3713C46.9847 42.5418 46.9244 42.7052 46.8327 42.8511C46.7409 42.997 46.6198 43.1221 46.4769 43.2185C46.2332 43.384 45.9572 43.4958 45.667 43.5465C45.1552 43.6466 44.6401 43.689 44.1173 43.6203C42.8674 43.4569 41.6821 42.5551 41.3113 41.1728C41.1963 40.7431 41.1569 40.2966 41.1948 39.8533C41.2203 39.4601 41.2954 39.0716 41.4182 38.6972C41.6671 37.9774 42.088 37.3872 42.7377 36.975C43.1704 36.702 43.6455 36.5559 44.1537 36.4986C44.6798 36.4316 45.2143 36.5078 45.7007 36.7193C46.5133 37.0778 47.0338 37.688 47.2254 38.5616C47.2974 38.8643 47.3078 39.1784 47.2559 39.4852C47.189 39.8492 47.0097 40.1395 46.6971 40.3433C46.4687 40.485 46.2172 40.5855 45.9541 40.6405C45.5531 40.7304 45.1442 40.7804 44.7334 40.7897C44.4904 40.797 44.2474 40.7897 44.0054 40.7897L44.0063 40.7997ZM43.8024 39.5903C44.1419 39.5867 44.51 39.5903 44.8758 39.538C45.0503 39.5179 45.2212 39.4742 45.384 39.4083C45.4749 39.3734 45.5526 39.3112 45.6065 39.2301C45.6604 39.1491 45.6877 39.0533 45.6848 38.9561C45.6902 38.567 45.5355 38.2244 45.1388 38.0461C44.7842 37.8866 44.3854 37.8544 44.0099 37.9551C43.5572 38.0724 43.261 38.3773 43.0772 38.7986C42.9884 39.0011 42.963 39.2172 42.9439 39.4356C42.932 39.5671 42.9461 39.5862 43.0717 39.5876C43.3056 39.5921 43.5399 39.5903 43.8024 39.5903Z" fill="#686767"/>
<path d="M66.663 41.2433C66.663 41.8803 66.663 42.5173 66.663 43.1543C66.663 43.2048 66.663 43.2553 66.663 43.3053C66.6589 43.4951 66.6557 43.4992 66.4623 43.501C66.2612 43.501 66.0596 43.5083 65.8617 43.4614C65.4286 43.359 65.1232 43.1156 64.994 42.6784C64.9553 42.5478 64.9604 42.4126 64.9604 42.2784C64.9604 41.4312 64.9604 40.5841 64.9604 39.7372C64.9635 39.4769 64.935 39.2172 64.8757 38.9637C64.8422 38.825 64.7892 38.6917 64.7183 38.5679C64.5943 38.3457 64.394 38.1758 64.1545 38.0897C63.8623 37.9777 63.5424 37.9591 63.2391 38.0365C62.9758 38.1017 62.7471 38.2643 62.5989 38.4915C62.4685 38.6877 62.3852 38.9115 62.3555 39.1453C62.3302 39.328 62.3175 39.5123 62.3173 39.6967C62.3194 40.8713 62.3194 42.0455 62.3173 43.2194C62.3173 43.5269 62.3373 43.501 62.0288 43.501C61.8613 43.5074 61.6935 43.4964 61.5283 43.4682C61.01 43.3627 60.6843 43.0132 60.6288 42.4918C60.6197 42.4 60.6155 42.3078 60.616 42.2156C60.616 41.3178 60.616 40.4203 60.616 39.5234C60.616 39.1594 60.6501 38.8027 60.7639 38.4564C61.0587 37.5596 61.647 36.9463 62.5484 36.6537C63.2259 36.4339 63.9134 36.4026 64.6041 36.6009C65.6884 36.9135 66.3331 37.6406 66.5815 38.7317C66.6393 39.0118 66.6664 39.2974 66.6625 39.5835C66.6652 40.1358 66.663 40.6896 66.663 41.2433Z" fill="#676767"/>
<path d="M36.7313 38.9738C36.7313 38.2772 36.7313 37.581 36.7313 36.8849C36.7283 36.7508 36.7356 36.6166 36.7532 36.4836C36.8401 35.9244 37.1704 35.5253 37.6177 35.2123C37.837 35.0594 38.0918 35.0626 38.3457 35.0831C38.367 35.0844 38.3869 35.094 38.4012 35.11C38.4154 35.1259 38.4228 35.1468 38.4216 35.1682C38.4248 35.2269 38.4248 35.2856 38.4248 35.3443C38.4248 35.6796 38.4248 36.0154 38.4248 36.3507C38.4248 36.4094 38.4248 36.4681 38.4248 36.5268C38.4232 36.5394 38.4243 36.5522 38.4282 36.5643C38.4322 36.5763 38.4387 36.5874 38.4474 36.5966C38.4561 36.6059 38.4668 36.6131 38.4786 36.6177C38.4905 36.6223 38.5032 36.6242 38.5158 36.6233C38.5832 36.6233 38.6501 36.626 38.7169 36.626H40.4787C40.5292 36.626 40.5793 36.626 40.6298 36.626C40.7931 36.6296 40.7967 36.6324 40.7995 36.7984C40.7995 36.9413 40.7995 37.0837 40.7995 37.2261C40.7963 37.7112 40.5028 38.0529 40.0223 38.1225C39.8976 38.1387 39.7719 38.1464 39.646 38.1457C39.3357 38.1489 39.0254 38.1457 38.7151 38.1457C38.6564 38.1457 38.5977 38.1457 38.539 38.1457C38.4576 38.1502 38.4312 38.1744 38.4262 38.2485C38.4226 38.2986 38.4235 38.3491 38.4235 38.3996C38.4235 39.1961 38.4235 39.993 38.4235 40.7902C38.417 40.9831 38.4373 41.1761 38.484 41.3635C38.6014 41.773 38.853 42.0005 39.2925 42.0405C39.7625 42.0805 40.2316 42.056 40.6716 41.8485C40.7649 41.803 40.7967 41.8244 40.7981 41.9222C40.7981 42.1042 40.8049 42.2917 40.7981 42.4755C40.7767 42.9186 40.5633 43.2344 40.1556 43.4169C40.0026 43.4864 39.8392 43.5304 39.672 43.547C39.2015 43.5925 38.7333 43.5743 38.277 43.4351C37.5153 43.2035 37.0371 42.6966 36.8341 41.9295C36.7622 41.6532 36.7267 41.3687 36.7286 41.0832C36.7286 40.3788 36.7286 39.6743 36.7286 38.9697L36.7313 38.9738Z" fill="#686868"/>
<path d="M52.938 38.097C52.938 36.9231 52.938 35.7495 52.938 34.5762C52.938 34.3351 52.9302 34.3446 53.1727 34.3455C53.2988 34.3455 53.4243 34.3455 53.5499 34.3483C53.6927 34.3521 53.8338 34.3801 53.9672 34.4311C54.3107 34.5548 54.5163 34.801 54.6042 35.1518C54.6366 35.2992 54.651 35.45 54.6469 35.6009C54.6469 37.4282 54.6469 39.2555 54.6469 41.0827C54.6469 41.2001 54.6469 41.318 54.6547 41.4344C54.6833 41.7875 54.8672 42.0082 55.2057 42.0987C55.3515 42.1379 55.5019 42.1575 55.6529 42.157C55.8208 42.157 55.9883 42.157 56.1562 42.1597C56.2121 42.1597 56.2558 42.1816 56.2576 42.2443C56.264 42.4718 56.2736 42.6993 56.2121 42.9187C56.1816 43.0457 56.1194 43.163 56.0313 43.2595C55.9433 43.356 55.8322 43.4286 55.7084 43.4706C55.5913 43.5141 55.4689 43.5418 55.3444 43.5529C54.9678 43.5874 54.588 43.548 54.2265 43.4369C53.5372 43.2185 53.145 42.738 52.998 42.041C52.9568 41.8268 52.9382 41.6088 52.9425 41.3908C52.9398 40.293 52.9383 39.1951 52.938 38.097Z" fill="#686868"/>
<path d="M50.001 41.3124C50.001 41.9673 50.001 42.6218 50.001 43.2757C50.001 43.5032 49.9982 43.5032 49.7821 43.5032C49.566 43.5032 49.3458 43.5078 49.131 43.4577C48.7447 43.3713 48.4558 43.1684 48.3329 42.7752C48.2937 42.6467 48.2742 42.5129 48.2751 42.3785C48.2751 41.3215 48.2701 40.2645 48.2783 39.2076C48.2745 38.7613 48.3677 38.3195 48.5513 37.9127C48.8967 37.171 49.4777 36.7433 50.2803 36.61C50.6113 36.5486 50.9509 36.55 51.2813 36.6141C51.438 36.6444 51.5882 36.702 51.7249 36.7843C51.8787 36.8726 52.0066 36.9997 52.0961 37.1527C52.1856 37.3058 52.2334 37.4796 52.235 37.6569C52.2414 37.8244 52.2382 37.9923 52.235 38.1602C52.235 38.2821 52.2022 38.3012 52.078 38.2621C52.0221 38.2448 51.9675 38.2225 51.9115 38.2048C51.5905 38.103 51.2511 38.0731 50.9173 38.1174C50.5342 38.1684 50.2699 38.3749 50.1279 38.7339C50.0639 38.8894 50.0267 39.0547 50.0178 39.2226C50.0096 39.4151 50.0028 39.608 50.0023 39.8009C49.9996 40.3046 50.001 40.8078 50.001 41.3124Z" fill="#686868"/>
<path d="M56.9179 39.3205C56.9179 38.5482 56.9179 37.7764 56.9179 37.005C56.9179 36.7816 56.9179 36.7811 57.1349 36.7775C57.3361 36.769 57.5377 36.781 57.7364 36.8134C58.1869 36.9044 58.4644 37.1711 58.5732 37.6138C58.6108 37.7779 58.6284 37.9459 58.6255 38.1143C58.6234 39.121 58.6234 40.1278 58.6255 41.1346C58.6255 41.2433 58.6228 41.353 58.6332 41.4612C58.6655 41.7911 58.8125 42.0405 59.2124 42.1219C59.3943 42.1518 59.5787 42.1637 59.763 42.1574C59.9873 42.1574 59.9864 42.1551 59.985 42.3785C59.9916 42.563 59.978 42.7476 59.9445 42.9291C59.8726 43.2476 59.6865 43.4464 59.3658 43.5206C59.2598 43.5454 59.1515 43.5594 59.0427 43.5624C58.7741 43.5711 58.5057 43.5405 58.246 43.4714C57.609 43.2967 57.2068 42.8836 57.0239 42.2548C56.9503 41.9962 56.9144 41.7283 56.9174 41.4594C56.9174 40.7464 56.9174 40.0335 56.9174 39.3209L56.9179 39.3205Z" fill="#686868"/>
<path d="M56.7667 35.1409C56.7673 34.8787 56.8717 34.6274 57.0571 34.442C57.2425 34.2565 57.4937 34.152 57.7559 34.1513C58.3074 34.1513 58.7806 34.6159 58.7633 35.1564C58.7597 35.4195 58.6533 35.6708 58.4668 35.8564C58.2803 36.0421 58.0286 36.1473 57.7655 36.1497C57.6332 36.1506 57.5021 36.1251 57.3799 36.0746C57.2576 36.0241 57.1467 35.9497 57.0536 35.8557C56.9606 35.7617 56.8873 35.65 56.838 35.5273C56.7887 35.4045 56.7645 35.2732 56.7667 35.1409V35.1409Z" fill="#686868"/>
<path d="M56.7326 45.8661C56.7818 45.8206 56.8236 45.7814 56.8691 45.7478C57.1599 45.5307 57.6249 45.6477 57.6881 46.0567C57.7004 46.1141 57.7085 46.1724 57.7123 46.231C57.715 46.474 57.7123 46.7174 57.7123 46.959C57.7123 47.0095 57.7123 47.0659 57.6458 47.0764C57.6165 47.0811 57.5865 47.0769 57.5597 47.0643C57.5328 47.0517 57.5104 47.0314 57.4952 47.0059C57.4712 46.9612 57.4612 46.9103 57.4666 46.8598C57.4666 46.6755 57.4666 46.4908 57.4666 46.3061C57.4694 46.2136 57.4529 46.1216 57.4183 46.0358C57.3678 45.9189 57.2791 45.8702 57.133 45.877C56.9965 45.8834 56.9001 45.9475 56.8714 46.0699C56.8524 46.1597 56.8427 46.2512 56.8427 46.3429C56.8387 46.5445 56.8427 46.7456 56.8427 46.9472C56.8427 46.9963 56.8482 47.0532 56.7886 47.075C56.7516 47.0839 56.7126 47.0783 56.6796 47.0595C56.6465 47.0406 56.6219 47.0099 56.6107 46.9735C56.5993 46.9162 56.5938 46.8578 56.5943 46.7993C56.592 46.6482 56.5943 46.4972 56.592 46.3443C56.5914 46.2606 56.5819 46.1771 56.5638 46.0954C56.5499 46.0289 56.5122 45.9699 56.4579 45.9292C56.4035 45.8885 56.3362 45.8689 56.2685 45.8743C56.1261 45.877 56.0447 45.943 55.9955 46.0899C55.9716 46.1788 55.9619 46.271 55.9669 46.3629C55.9669 46.5727 55.9669 46.7824 55.9632 46.9922C55.9634 47.0067 55.9599 47.0209 55.9529 47.0336C55.9459 47.0463 55.9357 47.0569 55.9233 47.0644C55.911 47.072 55.8969 47.0761 55.8824 47.0766C55.8679 47.077 55.8536 47.0736 55.8408 47.0668C55.7462 47.0322 55.7207 46.9563 55.7203 46.8675C55.7203 46.6491 55.7153 46.4312 55.7234 46.2132C55.728 46.1295 55.7473 46.0473 55.7803 45.9703C55.8372 45.8376 55.9434 45.7323 56.0766 45.6766C56.2098 45.621 56.3594 45.6194 56.4938 45.6722C56.5911 45.7155 56.6562 45.7928 56.7326 45.8661Z" fill="#706E6E"/>
<path d="M62.0976 46.1442C62.1099 46.1897 62.1513 46.2024 62.1831 46.2256C62.4561 46.4222 62.3692 46.8049 62.1599 46.9659C62.1139 47.0022 62.0618 47.03 62.0061 47.0483C61.7882 47.1126 61.557 47.1168 61.3368 47.0606C61.1931 47.0269 61.1134 46.9182 61.0962 46.7698C61.0921 46.7281 61.0906 46.6862 61.0916 46.6442C61.0916 46.2752 61.0916 45.9062 61.0916 45.5372C61.0916 45.3388 61.0939 45.337 61.2959 45.2979C61.4942 45.2603 61.6974 45.2564 61.8969 45.2865C62.1413 45.322 62.3374 45.4935 62.3128 45.7934C62.3091 45.8864 62.2699 45.9745 62.2032 46.0395C62.1695 46.0737 62.1149 46.0901 62.0976 46.1442ZM61.3364 46.5082C61.3364 46.5501 61.3364 46.5915 61.3364 46.6333C61.3355 46.65 61.3355 46.6667 61.3364 46.6834C61.3473 46.7867 61.3874 46.8454 61.4806 46.8622C61.628 46.8956 61.7817 46.8875 61.9247 46.839C62.0612 46.7867 62.1153 46.6834 62.1017 46.5168C62.0903 46.3803 62.0303 46.3039 61.8906 46.2771C61.7922 46.2593 61.6925 46.2502 61.5926 46.2498C61.3246 46.2466 61.335 46.2375 61.3364 46.5091V46.5082ZM61.6176 46.0532C61.709 46.0487 61.8002 46.0391 61.8906 46.0245C62.0052 46.0004 62.0667 45.9108 62.0726 45.7866C62.0771 45.6551 62.0271 45.5723 61.9188 45.5281C61.8166 45.4925 61.7081 45.4787 61.6003 45.4876C61.3519 45.4954 61.3359 45.5108 61.3364 45.7606C61.3337 46.0664 61.3123 46.0445 61.6176 46.0523V46.0532Z" fill="#737070"/>
<path d="M44.9136 46.2238C44.9068 46.341 44.885 46.4569 44.849 46.5687C44.7229 46.9168 44.4468 47.1147 44.0864 47.1074C43.9176 47.1067 43.7536 47.0506 43.6198 46.9477C43.4859 46.8448 43.3896 46.7008 43.3457 46.5377C43.271 46.2958 43.277 46.0361 43.3629 45.7979C43.4917 45.4316 43.7724 45.2492 44.1769 45.2678C44.515 45.2833 44.7812 45.504 44.8735 45.8525C44.9064 45.9734 44.9199 46.0987 44.9136 46.2238V46.2238ZM43.5377 46.161C43.534 46.2699 43.5494 46.3786 43.5832 46.4822C43.6546 46.7393 43.853 46.8835 44.121 46.8826C44.3712 46.8826 44.5596 46.7352 44.6328 46.4841C44.6875 46.2907 44.6875 46.0859 44.6328 45.8926C44.5637 45.6296 44.3794 45.4881 44.1032 45.4831C43.8425 45.4831 43.6555 45.615 43.58 45.8653C43.5475 45.9603 43.5332 46.0606 43.5377 46.161V46.161Z" fill="#706E6E"/>
<path d="M47.8401 46.7638C47.8833 46.9094 47.821 46.9881 47.715 47.0431C47.3624 47.2251 46.9069 47.0559 46.7763 46.6837C46.7302 46.5613 46.7133 46.4297 46.7271 46.2996C46.7408 46.1695 46.7848 46.0444 46.8555 45.9343C46.936 45.7995 47.0662 45.7016 47.2181 45.6619C47.37 45.6221 47.5315 45.6437 47.6677 45.7218C47.7529 45.7685 47.8218 45.8402 47.865 45.9273C47.9082 46.0143 47.9237 46.1126 47.9093 46.2087C47.9056 46.2549 47.8894 46.2992 47.8624 46.3369C47.8353 46.3746 47.7985 46.4042 47.7559 46.4225C47.6635 46.4636 47.5632 46.484 47.462 46.4826C47.3282 46.4826 47.194 46.4826 47.0598 46.488C47.0495 46.4887 47.0396 46.4917 47.0307 46.4968C47.0217 46.5019 47.0141 46.509 47.0084 46.5176C47.0027 46.5261 46.999 46.5358 46.9977 46.546C46.9963 46.5562 46.9973 46.5666 47.0006 46.5763C47.0461 46.7506 47.1904 46.8648 47.3874 46.8803C47.5157 46.8903 47.6026 46.8684 47.8401 46.7638ZM47.3191 46.2842C47.3592 46.2815 47.4602 46.2801 47.5585 46.2651C47.6445 46.2519 47.6804 46.1859 47.669 46.0986C47.6658 46.0522 47.6488 46.0078 47.6202 45.9712C47.5915 45.9345 47.5526 45.9073 47.5084 45.8929C47.3078 45.8256 47.0662 45.8884 46.9952 46.1509C46.9715 46.2382 46.9975 46.2801 47.0839 46.2837C47.1422 46.2865 47.1999 46.2842 47.3191 46.2842Z" fill="#737070"/>
<path d="M59.1606 46.7461C59.1815 46.9426 59.0951 47.0286 58.9663 47.0673C58.4899 47.2088 58.1255 46.9704 58.0449 46.5522C58.0018 46.3442 58.0404 46.1275 58.1528 45.9471C58.3138 45.6841 58.6223 45.5735 58.8935 45.6823C58.9772 45.7117 59.0516 45.7631 59.1087 45.831C59.1658 45.899 59.2037 45.981 59.2184 46.0686C59.2457 46.2174 59.2033 46.4021 58.9827 46.4512C58.9176 46.4663 58.8514 46.4762 58.7847 46.4808C58.6842 46.4863 58.5832 46.4808 58.4831 46.4858C58.4271 46.4858 58.3534 46.4617 58.322 46.5195C58.2815 46.595 58.3311 46.6642 58.3793 46.7229C58.4917 46.8594 58.6419 46.8944 58.8093 46.8771C58.9345 46.8592 59.0543 46.8145 59.1606 46.7461V46.7461ZM58.2961 46.2715C58.4774 46.2944 58.661 46.2935 58.8421 46.2688C58.9722 46.2524 59.0177 46.1486 58.9586 46.0285C58.9426 45.9945 58.9197 45.9642 58.8914 45.9396C58.863 45.915 58.8298 45.8966 58.7938 45.8857C58.5295 45.8015 58.3052 45.9707 58.2984 46.272L58.2961 46.2715Z" fill="#737070"/>
<path d="M62.7077 46.009C62.6736 45.9094 62.7163 45.8343 62.7887 45.7692C62.9775 45.6 63.3665 45.5954 63.5622 45.7601C63.6055 45.7938 63.6412 45.8362 63.6671 45.8846C63.693 45.9329 63.7084 45.9862 63.7123 46.0409C63.7219 46.2684 63.7255 46.4932 63.7123 46.7184C63.7093 46.7947 63.6829 46.8683 63.6367 46.9291C63.5905 46.9899 63.5266 47.035 63.4539 47.0583C63.2808 47.1279 63.0873 47.1265 62.9152 47.0546C62.7468 46.9846 62.639 46.8654 62.6422 46.6733C62.6399 46.5887 62.6646 46.5056 62.7127 46.4359C62.7608 46.3662 62.8298 46.3136 62.9097 46.2857C62.9798 46.2587 63.0528 46.2401 63.1272 46.2302C63.2014 46.2188 63.2773 46.2202 63.3547 46.2147C63.4553 46.2074 63.4885 46.1642 63.4685 46.0709C63.4614 46.0205 63.4372 45.9741 63.3999 45.9396C63.3626 45.905 63.3145 45.8844 63.2637 45.8812C63.1223 45.8558 62.9764 45.8777 62.8487 45.9435C62.8032 45.9667 62.7718 46.0127 62.7077 46.009ZM63.2924 46.4267C63.1281 46.4267 63.0562 46.4422 62.9816 46.4932C62.9575 46.5095 62.9373 46.5309 62.9225 46.5559C62.9076 46.5809 62.8985 46.6089 62.8957 46.6378C62.8929 46.6668 62.8966 46.696 62.9064 46.7234C62.9162 46.7507 62.9319 46.7756 62.9525 46.7962C63.0621 46.8936 63.1914 46.9027 63.326 46.8599C63.4516 46.8199 63.4762 46.717 63.478 46.6024C63.478 46.5778 63.478 46.5528 63.478 46.5277C63.4735 46.4527 63.4512 46.4317 63.3679 46.4272C63.3424 46.4258 63.3174 46.4267 63.2924 46.4267V46.4267Z" fill="#737070"/>
<path d="M65.8372 46.206C65.9282 46.196 65.9487 46.146 65.9819 46.1109C66.0852 46.0017 66.1871 45.8902 66.2899 45.7806C66.3326 45.7305 66.3898 45.6948 66.4536 45.6785C66.5174 45.6622 66.5847 45.6661 66.6462 45.6896C66.6462 45.7478 66.6007 45.7651 66.5743 45.7933C66.4519 45.9194 66.3254 46.0418 66.2057 46.1701C66.0519 46.3348 66.0519 46.3066 66.1998 46.4958C66.3336 46.6674 66.4664 46.8398 66.6525 46.9609C66.6876 46.9836 66.673 47.0469 66.6325 47.0637C66.5909 47.0843 66.544 47.0918 66.498 47.0852C66.4521 47.0786 66.4092 47.0583 66.375 47.0268C66.3074 46.9646 66.2438 46.898 66.1848 46.8275C66.0974 46.7261 66.0146 46.6205 65.93 46.5168C65.9235 46.5065 65.9137 46.4987 65.9022 46.4948C65.8907 46.4909 65.8781 46.4911 65.8668 46.4954C65.834 46.5068 65.8395 46.5354 65.839 46.5582C65.8358 46.7088 65.8363 46.8594 65.8317 47.01C65.8306 47.0224 65.8266 47.0343 65.8198 47.0448C65.8131 47.0553 65.8039 47.0639 65.793 47.07C65.7822 47.0761 65.77 47.0795 65.7575 47.0798C65.7451 47.0801 65.7328 47.0774 65.7216 47.0719C65.6972 47.0657 65.6749 47.053 65.6571 47.0351C65.6393 47.0173 65.6267 46.9949 65.6206 46.9704C65.6105 46.9213 65.6052 46.8713 65.6047 46.8212C65.6047 46.3276 65.6047 45.8337 65.6047 45.3392C65.6047 45.3229 65.6047 45.306 65.6047 45.2892C65.6074 45.2378 65.6106 45.1845 65.6784 45.1804C65.7078 45.1765 65.7376 45.1826 65.7631 45.1979C65.7885 45.2132 65.8079 45.2368 65.8181 45.2646C65.8322 45.3126 65.8383 45.3625 65.8363 45.4125C65.8363 45.5968 65.8363 45.781 65.8363 45.9653L65.8372 46.206Z" fill="#706E6E"/>
<path d="M39.9513 46.3766C39.9543 46.4814 39.9367 46.5858 39.8995 46.6838C39.813 46.9245 39.652 47.0764 39.3867 47.101C39.1214 47.1256 38.8734 47.0077 38.7583 46.7725C38.6901 46.6415 38.657 46.4951 38.6622 46.3475C38.6674 46.1999 38.7107 46.0562 38.7879 45.9303C38.9071 45.7228 39.1064 45.6341 39.3389 45.6436C39.4536 45.6436 39.5657 45.6773 39.6614 45.7405C39.7571 45.8036 39.8321 45.8935 39.8772 45.999C39.9315 46.1172 39.957 46.2467 39.9513 46.3766V46.3766ZM39.7034 46.3889C39.7111 46.2759 39.6865 46.1631 39.6324 46.0636C39.5027 45.8288 39.1501 45.8093 39.0008 46.0272C38.8703 46.2169 38.883 46.5586 39.0291 46.7352C39.0712 46.7876 39.1265 46.8279 39.1894 46.8519C39.2522 46.8759 39.3203 46.8827 39.3867 46.8717C39.5327 46.853 39.6228 46.7607 39.6706 46.6219C39.6949 46.5467 39.706 46.4679 39.7034 46.3889V46.3889Z" fill="#706E6E"/>
<path d="M55.4013 46.363C55.4033 46.4781 55.3826 46.5925 55.3404 46.6997C55.2539 46.9308 55.0933 47.0741 54.8399 47.0982C54.5864 47.1223 54.3785 47.0345 54.2342 46.8198C54.0591 46.5577 54.0786 46.1191 54.2725 45.8706C54.5409 45.5267 55.1088 45.5794 55.3117 45.9671C55.3714 46.0905 55.4021 46.2259 55.4013 46.363V46.363ZM55.1543 46.3943C55.1591 46.2728 55.1301 46.1523 55.0705 46.0463C54.934 45.8274 54.5996 45.8133 54.4527 46.0208C54.3189 46.2096 54.328 46.5518 54.4727 46.7292C54.6424 46.9367 55.0096 46.9435 55.1165 46.6273C55.1427 46.5531 55.1555 46.4748 55.1543 46.3962V46.3943Z" fill="#706E6E"/>
<path d="M40.2744 46.1286C40.2744 46.0113 40.2744 45.8943 40.2744 45.7769C40.2744 45.7314 40.2839 45.6905 40.3322 45.6782C40.3526 45.6729 40.3739 45.6723 40.3946 45.6765C40.4152 45.6807 40.4346 45.6895 40.4514 45.7023C40.4683 45.7147 40.4824 45.7305 40.4927 45.7487C40.5031 45.7669 40.5094 45.787 40.5114 45.8079C40.5174 45.8661 40.5205 45.9244 40.521 45.983C40.521 46.1168 40.5183 46.251 40.5233 46.3848C40.524 46.4683 40.5347 46.5514 40.5551 46.6323C40.566 46.6752 40.5855 46.7154 40.6125 46.7504C40.6396 46.7854 40.6735 46.8145 40.7123 46.8358C40.751 46.8572 40.7937 46.8703 40.8378 46.8744C40.8818 46.8786 40.9262 46.8736 40.9683 46.8598C41.0136 46.8495 41.0554 46.8272 41.0892 46.7952C41.123 46.7631 41.1475 46.7226 41.1603 46.6778C41.1854 46.5891 41.1971 46.497 41.1948 46.4048C41.1948 46.1955 41.1948 45.9862 41.1948 45.7769C41.1948 45.7351 41.1948 45.6896 41.249 45.6782C41.2693 45.6725 41.2907 45.6718 41.3113 45.6761C41.332 45.6804 41.3513 45.6895 41.3677 45.7028C41.3924 45.7248 41.4111 45.7527 41.4223 45.7838C41.4352 45.8234 41.4418 45.8649 41.4419 45.9066C41.4419 46.1077 41.4419 46.3084 41.4419 46.5095C41.4405 46.5429 41.4369 46.5762 41.431 46.6091C41.3696 47.0086 41.0033 47.2188 40.6266 47.0687C40.5477 47.0387 40.4775 46.9899 40.4219 46.9264C40.3664 46.8629 40.3273 46.7868 40.3081 46.7047C40.2865 46.6151 40.2739 46.5237 40.2703 46.4317C40.2639 46.3316 40.2703 46.231 40.2703 46.1305L40.2744 46.1286Z" fill="#737070"/>
<path d="M50.1001 45.6464C50.046 45.6464 50.0164 45.5981 49.9745 45.5749C49.8894 45.5247 49.7937 45.4953 49.695 45.4891C49.5964 45.483 49.4977 45.5003 49.407 45.5396C49.3163 45.5789 49.2363 45.6392 49.1733 45.7154C49.1104 45.7916 49.0664 45.8816 49.045 45.9781C49.0027 46.1594 49.0227 46.3496 49.1018 46.5182C49.2292 46.8089 49.5491 46.9427 49.8585 46.8489C49.9295 46.8237 49.9969 46.7895 50.0592 46.747C50.0656 46.7437 50.0728 46.7419 50.0801 46.7419C50.0874 46.7419 50.0946 46.7437 50.101 46.747C50.1062 46.7533 50.1101 46.7606 50.1125 46.7684C50.1148 46.7762 50.1156 46.7844 50.1147 46.7925C50.1101 46.8387 50.0947 46.8831 50.0697 46.9221C50.0447 46.9612 50.0109 46.9938 49.9709 47.0173C49.9144 47.0537 49.8513 47.0785 49.7853 47.0905C49.6238 47.124 49.4559 47.1075 49.3041 47.0433C49.1522 46.9791 49.0234 46.8702 48.9349 46.7311C48.7246 46.3894 48.716 46.0336 48.9103 45.6805C49.0654 45.3988 49.3758 45.2137 49.7875 45.2751C49.8591 45.2824 49.9272 45.3097 49.984 45.3539C50.0408 45.398 50.084 45.4573 50.1088 45.5249C50.118 45.5441 50.122 45.5655 50.1205 45.5868C50.119 45.6081 50.1119 45.6286 50.1001 45.6464V45.6464Z" fill="#737070"/>
<path d="M65.243 46.5937C65.243 46.7192 65.243 46.8448 65.243 46.9704C65.243 47.0209 65.2398 47.0741 65.1702 47.0796C65.141 47.0854 65.1107 47.081 65.0843 47.0673C65.058 47.0536 65.037 47.0313 65.025 47.0041C65.0084 46.9569 65.0004 46.9071 65.0014 46.8571C64.9982 46.6897 65.0014 46.5222 64.9986 46.3566C64.9986 46.2729 64.9914 46.1893 64.9772 46.1068C64.9499 45.9703 64.8571 45.8966 64.7124 45.8793C64.5432 45.8616 64.434 45.9107 64.3712 46.0322C64.3342 46.1077 64.3167 46.1912 64.3202 46.2752C64.3202 46.4763 64.3202 46.6774 64.3202 46.8785C64.3211 46.9287 64.3184 46.9789 64.312 47.0286C64.3057 47.0655 64.2724 47.0778 64.2365 47.0787C64.207 47.0804 64.1777 47.0724 64.153 47.056C64.1284 47.0396 64.1098 47.0156 64.1 46.9877C64.0857 46.9486 64.0786 46.9073 64.0791 46.8658C64.0772 46.6565 64.0772 46.4472 64.0791 46.2379C64.0824 46.1363 64.1107 46.0371 64.1615 45.9491C64.2124 45.8611 64.2841 45.7871 64.3705 45.7335C64.4568 45.6799 64.555 45.6484 64.6564 45.6418C64.7578 45.6353 64.8593 45.6539 64.9518 45.6959C65.0285 45.731 65.0943 45.7862 65.1423 45.8555C65.1904 45.9248 65.2188 46.0058 65.2248 46.09C65.2434 46.2556 65.2434 46.4239 65.2516 46.5905L65.243 46.5937Z" fill="#706E6E"/>
<path d="M50.3731 46.1504C50.3731 46.0167 50.3731 45.8829 50.3731 45.7491C50.3731 45.6936 50.4218 45.6659 50.4777 45.6768C50.5112 45.6819 50.542 45.6981 50.5651 45.7229C50.5883 45.7477 50.6023 45.7795 50.6051 45.8133C50.6123 45.8796 50.6153 45.9463 50.6142 46.013C50.6174 46.1887 50.612 46.3647 50.6233 46.5399C50.6329 46.6933 50.708 46.8097 50.8636 46.8584C50.903 46.8731 50.9451 46.8792 50.987 46.8766C51.029 46.8739 51.0699 46.8624 51.1072 46.8429C51.1444 46.8234 51.1771 46.7962 51.2032 46.7632C51.2293 46.7303 51.2481 46.6921 51.2585 46.6514C51.2759 46.5782 51.2837 46.5031 51.2817 46.428C51.2849 46.2191 51.2817 46.0098 51.2845 45.8005C51.2845 45.7523 51.2776 45.6954 51.3436 45.6795C51.3763 45.6719 51.4107 45.676 51.4408 45.6911C51.4708 45.7062 51.4945 45.7314 51.5079 45.7623C51.5188 45.7848 51.5253 45.8092 51.527 45.8342C51.527 46.0854 51.5402 46.3347 51.5229 46.5868C51.4997 46.9153 51.2867 47.1009 50.96 47.1078C50.6456 47.1141 50.414 46.9212 50.3795 46.6018C50.3697 46.4515 50.3687 46.3008 50.3763 46.1504H50.3731Z" fill="#737070"/>
<path d="M46.3955 46.5659C46.3955 46.717 46.3982 46.8676 46.3955 47.0182C46.3955 47.0696 46.35 47.0846 46.3045 47.0792C46.224 47.0696 46.1766 47.0309 46.1648 46.9586C46.1581 46.9088 46.1552 46.8586 46.1562 46.8084C46.1562 46.6578 46.1562 46.5068 46.1562 46.3557C46.1576 46.2971 46.1561 46.2385 46.1516 46.1801C46.1248 45.9248 45.8809 45.7938 45.6511 45.9112C45.6096 45.9319 45.5739 45.9627 45.5472 46.0006C45.5205 46.0386 45.5037 46.0826 45.4982 46.1287C45.4884 46.2041 45.4842 46.2801 45.4855 46.3562C45.4855 46.5573 45.4855 46.7584 45.4855 46.9595C45.4855 47.0091 45.4855 47.0646 45.4223 47.0792C45.3893 47.0864 45.3548 47.0817 45.3249 47.066C45.295 47.0502 45.2716 47.0245 45.2589 46.9932C45.2482 46.9616 45.2423 46.9287 45.2416 46.8954C45.2416 46.6679 45.2334 46.4404 45.2416 46.2165C45.2657 45.681 45.7599 45.5572 46.0866 45.6878C46.2886 45.7683 46.3759 45.9371 46.3941 46.1428C46.4064 46.2838 46.3964 46.4272 46.3964 46.5696L46.3955 46.5659Z" fill="#747373"/>
<path d="M51.8864 46.7448C51.9827 46.7975 52.085 46.8382 52.1913 46.8658C52.2896 46.8888 52.3927 46.8819 52.487 46.8458C52.519 46.8351 52.5468 46.8147 52.5666 46.7875C52.5864 46.7602 52.5972 46.7275 52.5976 46.6938C52.6034 46.6603 52.5975 46.6258 52.5809 46.5961C52.5644 46.5663 52.5381 46.5432 52.5066 46.5305C52.4215 46.4973 52.3328 46.4727 52.2454 46.4449C52.1723 46.4276 52.1005 46.405 52.0307 46.3771C51.8696 46.2989 51.8141 46.1496 51.8705 45.9767C51.8903 45.9125 51.9251 45.8539 51.972 45.8056C52.1385 45.6359 52.4643 45.5868 52.6722 45.7037C52.715 45.7296 52.753 45.7627 52.7846 45.8016C52.8301 45.8543 52.8328 45.9426 52.7996 45.9617C52.7541 45.9886 52.7213 45.9517 52.6863 45.9353C52.5711 45.8832 52.4433 45.8652 52.3182 45.8835C52.2593 45.8897 52.2038 45.9142 52.1594 45.9535C52.1417 45.9677 52.1278 45.986 52.1189 46.0069C52.1101 46.0278 52.1066 46.0506 52.1088 46.0732C52.1109 46.0958 52.1187 46.1175 52.1314 46.1363C52.144 46.1551 52.1612 46.1705 52.1813 46.181C52.2346 46.2045 52.2896 46.2239 52.346 46.2388C52.4411 46.2698 52.5393 46.2934 52.6317 46.3298C52.937 46.454 52.8856 46.834 52.7159 46.9759C52.5462 47.1179 52.1945 47.1497 52.0047 47.0278C51.9763 47.0102 51.9511 46.9879 51.9301 46.9618C51.9097 46.9348 51.8953 46.9038 51.8878 46.8708C51.8836 46.8289 51.8831 46.7867 51.8864 46.7448V46.7448Z" fill="#737070"/>
<path d="M38.4922 45.3929C38.4795 45.466 38.4523 45.5357 38.4121 45.5981C38.3038 45.8053 38.1783 46.0032 38.0372 46.1896C37.9636 46.2809 37.9273 46.3966 37.9357 46.5135C37.9421 46.6642 37.9357 46.8148 37.9357 46.9658C37.9357 47.0163 37.9307 47.0705 37.8634 47.0773C37.83 47.0831 37.7957 47.0772 37.7662 47.0606C37.7366 47.0441 37.7138 47.0178 37.7014 46.9863C37.6916 46.9458 37.6869 46.9042 37.6873 46.8625C37.6873 46.737 37.6818 46.6114 37.6873 46.4858C37.6913 46.3855 37.6604 46.2869 37.5999 46.2069C37.4358 45.9742 37.2962 45.7252 37.1831 45.4639C37.1645 45.4265 37.1503 45.3871 37.1408 45.3465C37.1392 45.3383 37.1394 45.3299 37.1414 45.3218C37.1435 45.3137 37.1474 45.3062 37.1528 45.2999C37.1582 45.2935 37.1649 45.2885 37.1725 45.2851C37.1802 45.2818 37.1885 45.2802 37.1968 45.2805C37.2385 45.2736 37.2814 45.2802 37.3192 45.2992C37.3569 45.3183 37.3877 45.3488 37.407 45.3865C37.4525 45.467 37.4852 45.553 37.5303 45.6331C37.6076 45.7719 37.6886 45.9089 37.7719 46.0426C37.8069 46.0995 37.8483 46.0968 37.8884 46.0394C38.0108 45.8594 38.1191 45.6702 38.2123 45.4734C38.2361 45.4201 38.2625 45.368 38.2915 45.3173C38.3238 45.2668 38.3766 45.2718 38.428 45.2882C38.449 45.2957 38.4669 45.3102 38.4785 45.3292C38.4902 45.3483 38.495 45.3707 38.4922 45.3929V45.3929Z" fill="#747373"/>
<path d="M53.4221 45.4043C53.4771 45.4834 53.392 45.609 53.4903 45.6554C53.5599 45.6886 53.6541 45.6691 53.7374 45.6727C53.7624 45.6727 53.7874 45.6727 53.8125 45.6727C53.8634 45.6727 53.9198 45.6727 53.9217 45.7437C53.9258 45.7736 53.9188 45.8041 53.902 45.8292C53.8853 45.8543 53.8599 45.8725 53.8307 45.8802C53.7737 45.8925 53.7159 45.9007 53.6578 45.9048C53.6163 45.9089 53.574 45.9048 53.5322 45.9102C53.4903 45.9157 53.4512 45.938 53.4507 45.9862C53.4507 46.2137 53.4425 46.4385 53.4539 46.6637C53.4603 46.8002 53.5499 46.8712 53.6873 46.8757C53.7289 46.8741 53.7704 46.87 53.8115 46.8635C53.883 46.8571 53.9166 46.8999 53.8984 46.9663C53.8912 46.9948 53.8767 47.0209 53.8562 47.0421C53.8358 47.0632 53.8102 47.0787 53.782 47.0869C53.5144 47.1779 53.2646 47.0359 53.2105 46.7611C53.2029 46.72 53.199 46.6782 53.1991 46.6364C53.1991 46.3352 53.1991 46.034 53.1991 45.7323C53.1928 45.6396 53.2205 45.5477 53.2769 45.4739C53.3142 45.4284 53.3561 45.3847 53.4221 45.4043Z" fill="#737070"/>
<path d="M59.5573 46.5327C59.5573 46.424 59.5523 46.3152 59.5573 46.2069C59.5606 46.0978 59.5889 45.9908 59.6401 45.8943C59.6891 45.8055 59.7675 45.7366 59.8619 45.6994C59.9562 45.6622 60.0606 45.659 60.157 45.6905C60.1976 45.7024 60.2327 45.7282 60.2561 45.7634C60.2795 45.7986 60.2897 45.841 60.2849 45.883C60.2849 45.9157 60.2703 45.9485 60.223 45.9385C60.1746 45.9257 60.1253 45.9165 60.0756 45.9112C59.9286 45.9025 59.854 45.9567 59.8258 46.0982C59.8114 46.1804 59.8042 46.2636 59.8044 46.3471C59.8017 46.5564 59.8044 46.7652 59.8044 46.9745C59.8044 47.0164 59.8007 47.0601 59.7539 47.0783C59.7255 47.0856 59.6955 47.0845 59.6677 47.0752C59.6398 47.066 59.6153 47.0488 59.5969 47.0259C59.5686 46.9841 59.554 46.9345 59.555 46.884C59.555 46.7666 59.555 46.6496 59.555 46.5327H59.5573Z" fill="#747373"/>
<path d="M41.8182 46.5286C41.8182 46.4198 41.8182 46.3111 41.8182 46.2028C41.8186 46.0848 41.8524 45.9693 41.9155 45.8697C41.9646 45.7908 42.0381 45.7301 42.1248 45.6968C42.2115 45.6634 42.3067 45.6593 42.396 45.685C42.4249 45.6905 42.4521 45.7029 42.4752 45.7212C42.4982 45.7395 42.5165 45.7632 42.5284 45.7901C42.5392 45.8082 42.5457 45.8284 42.5476 45.8494C42.5495 45.8703 42.5467 45.8914 42.5393 45.9111C42.5134 45.9621 42.4688 45.9343 42.4306 45.9257C42.4063 45.9192 42.3815 45.9145 42.3564 45.9116C42.1767 45.8979 42.0921 45.9648 42.0721 46.1477C42.0616 46.2474 42.0657 46.3484 42.0648 46.4485C42.0648 46.6305 42.0648 46.8161 42.0602 46.9999C42.0602 47.065 42.0088 47.095 41.9342 47.0755C41.901 47.0685 41.8713 47.0502 41.8502 47.0236C41.8292 46.9969 41.8182 46.9638 41.8191 46.9299C41.815 46.7961 41.8191 46.6623 41.8191 46.5286H41.8182Z" fill="#747373"/>
<path d="M52.1694 16.9167C52.1499 15.1705 53.6318 13.7918 55.2862 13.795C56.8869 13.7982 58.3766 15.0886 58.3729 16.9122C58.3693 18.719 56.8801 20.0185 55.2707 20.0185C53.5872 20.0185 52.1508 18.6303 52.1694 16.9167Z" fill="#FFFEFE"/>
<path d="M43.8025 39.5903C43.5399 39.5903 43.3056 39.5903 43.0713 39.5903C42.9457 39.5903 42.9316 39.5698 42.9434 39.4383C42.9625 39.2213 42.9889 39.0052 43.0767 38.8013C43.2587 38.38 43.5568 38.0733 44.0095 37.9578C44.385 37.8571 44.7838 37.8893 45.1384 38.0488C45.5356 38.2253 45.6903 38.5679 45.6844 38.9588C45.6873 39.056 45.66 39.1518 45.6061 39.2329C45.5522 39.3139 45.4744 39.3762 45.3836 39.411C45.2208 39.476 45.05 39.5187 44.8758 39.538C44.51 39.5917 44.1419 39.5867 43.8025 39.5903Z" fill="#FCFCFC"/>
<path d="M61.3364 46.5091C61.3364 46.2361 61.3245 46.2465 61.5944 46.2506C61.6943 46.2511 61.794 46.2602 61.8924 46.2779C62.0321 46.3048 62.0921 46.3803 62.1035 46.5177C62.1172 46.6842 62.0621 46.7875 61.9265 46.8399C61.7835 46.8884 61.6298 46.8964 61.4824 46.8631C61.3914 46.8462 61.3491 46.7875 61.3382 46.6842C61.3373 46.6676 61.3373 46.6509 61.3382 46.6342C61.3359 46.5905 61.3364 46.5509 61.3364 46.5091Z" fill="#F7F8F8"/>
<path d="M61.6176 46.0522C61.3123 46.0449 61.3336 46.0663 61.3336 45.7614C61.3336 45.5098 61.3491 45.4943 61.5975 45.4884C61.7054 45.4795 61.8139 45.4933 61.916 45.5289C62.0261 45.5744 62.0744 45.6559 62.0698 45.7874C62.0648 45.9116 62.0034 46.0012 61.8878 46.0253C61.7983 46.0392 61.7081 46.0482 61.6176 46.0522V46.0522Z" fill="#F7F8F8"/>
<path d="M43.5376 46.161C43.5342 46.0604 43.5496 45.9601 43.5831 45.8652C43.6587 45.615 43.8457 45.4807 44.1064 45.483C44.3826 45.4857 44.5669 45.6272 44.636 45.8925C44.6906 46.0859 44.6906 46.2906 44.636 46.484C44.5628 46.7352 44.3744 46.8812 44.1241 46.8826C43.8561 46.8826 43.6578 46.7393 43.5863 46.4822C43.5515 46.3788 43.535 46.2701 43.5376 46.161V46.161Z" fill="#F7F8F8"/>
<path d="M47.3192 46.2842C47.2009 46.2842 47.1422 46.2865 47.0839 46.2842C46.9975 46.2806 46.9715 46.2387 46.9952 46.1514C47.0662 45.8888 47.3078 45.826 47.5084 45.8934C47.5526 45.9078 47.5916 45.935 47.6202 45.9717C47.6488 46.0083 47.6658 46.0527 47.6691 46.099C47.6804 46.1864 47.6445 46.2524 47.5585 46.2656C47.4602 46.2801 47.3592 46.2815 47.3192 46.2842Z" fill="#F7F8F8"/>
<path d="M58.2983 46.272C58.3051 45.9712 58.5258 45.802 58.7947 45.8861C58.8306 45.8971 58.8638 45.9155 58.8922 45.9401C58.9206 45.9647 58.9435 45.995 58.9594 46.029C59.0185 46.1491 58.973 46.2529 58.8429 46.2692C58.6623 46.2938 58.4792 46.2947 58.2983 46.272V46.272Z" fill="#F7F8F8"/>
<path d="M63.2923 46.4267C63.3174 46.4267 63.3424 46.4267 63.367 46.4267C63.4502 46.4312 63.4725 46.4522 63.4771 46.5273C63.4771 46.5523 63.4771 46.5773 63.4771 46.6019C63.4771 46.7165 63.4507 46.8194 63.3251 46.8594C63.1886 46.9022 63.0612 46.8931 62.9515 46.7957C62.931 46.7751 62.9153 46.7502 62.9054 46.7229C62.8956 46.6955 62.892 46.6663 62.8948 46.6373C62.8975 46.6084 62.9067 46.5804 62.9215 46.5554C62.9364 46.5304 62.9566 46.509 62.9807 46.4927C63.0562 46.4422 63.1281 46.4267 63.2923 46.4267Z" fill="#F7F8F8"/>
<path d="M39.7034 46.389C39.7062 46.4685 39.6951 46.548 39.6706 46.6237C39.6228 46.7602 39.5341 46.8549 39.3867 46.8735C39.3203 46.8846 39.2522 46.8777 39.1894 46.8538C39.1265 46.8298 39.0712 46.7895 39.0291 46.737C38.883 46.5605 38.8703 46.2188 39.0008 46.0291C39.1501 45.8111 39.5013 45.8307 39.6324 46.0655C39.6862 46.1644 39.7108 46.2766 39.7034 46.389V46.389Z" fill="#F7F8F8"/>
<path d="M55.1542 46.3962C55.1557 46.4754 55.1429 46.5544 55.1165 46.6291C55.0095 46.9453 54.6423 46.9385 54.4726 46.731C54.3279 46.5536 54.3188 46.2114 54.4526 46.0226C54.5996 45.8151 54.9331 45.8292 55.0705 46.0481C55.1301 46.1541 55.1591 46.2746 55.1542 46.3962V46.3962Z" fill="#F7F8F8"/>
</g>
<defs>
<filter id="filter0_d_3194_3103" x="0.166626" y="0.799988" width="103.167" height="68" filterUnits="userSpaceOnUse" color-interpolation-filters="sRGB">
<feFlood flood-opacity="0" result="BackgroundImageFix"/>
<feColorMatrix in="SourceAlpha" type="matrix" values="0 0 0 0 0 0 0 0 0 0 0 0 0 0 0 0 0 0 127 0" result="hardAlpha"/>
<feMorphology radius="28" operator="erode" in="SourceAlpha" result="effect1_dropShadow_3194_3103"/>
<feOffset dy="10"/>
<feGaussianBlur stdDeviation="15"/>
<feColorMatrix type="matrix" values="0 0 0 0 0.129412 0 0 0 0 0.2 0 0 0 0 0.309804 0 0 0 0.6 0"/>
<feBlend mode="normal" in2="BackgroundImageFix" result="effect1_dropShadow_3194_3103"/>
<feBlend mode="normal" in="SourceGraphic" in2="effect1_dropShadow_3194_3103" result="shape"/>
</filter>
<clipPath id="clip0_3194_3103">
<rect x="28.9999" y="6.04999" width="45.5" height="45.5" rx="8" fill="white"/>
</clipPath>
</defs>
</svg>
