<svg width="24" height="24" viewBox="0 0 24 24" fill="none" xmlns="http://www.w3.org/2000/svg">
<path fillRule="evenodd" clipRule="evenodd" d="M12.7494 5.2515V6.00075C12.7396 6.48 12.2124 6.86925 11.7519 6.70725C11.4616 6.60525 11.2576 6.31125 11.2509 6.00075V5.2515H9.00386C8.42036 5.22375 8.03861 4.473 8.43761 4.01175C8.54711 3.88575 8.69786 3.79875 8.86211 3.76725C8.92436 3.75525 8.94086 3.75675 9.00386 3.75375H11.2509V3.0045C11.2539 2.88225 11.2651 2.8425 11.2884 2.7705C11.3881 2.469 11.6949 2.25525 12.0151 2.25525C12.4119 2.271 12.7404 2.57025 12.7494 3.0045V3.75375H17.2434V3.0045C17.2464 2.88225 17.2576 2.8425 17.2809 2.7705C17.3806 2.469 17.6874 2.25525 18.0076 2.25525C18.4044 2.271 18.7329 2.57025 18.7419 3.0045V3.75375H19.4934C19.5196 3.75375 19.5196 3.75375 19.5466 3.7545C20.6941 3.78975 21.7156 4.7775 21.7381 5.973C21.7651 10.4775 21.7381 14.982 21.7381 19.4857C21.7306 20.6475 20.7444 21.708 19.5189 21.7305C14.5149 21.7612 9.51086 21.7312 4.50761 21.7312C3.33911 21.7237 2.28536 20.7195 2.26286 19.512C2.23436 15.0075 2.26211 10.503 2.26211 5.9985C2.26961 4.827 3.28361 3.76125 4.50761 3.75375H5.25836V3.0045C5.26136 2.88225 5.27261 2.8425 5.29586 2.7705C5.39561 2.469 5.70236 2.25525 6.02261 2.25525C6.14411 2.2605 6.18461 2.2725 6.25586 2.298C6.54611 2.4 6.75086 2.694 6.75686 3.0045V6.00075C6.74711 6.48 6.21986 6.86925 5.75936 6.70725C5.46911 6.60525 5.26511 6.31125 5.25836 6.00075V5.25075C5.00561 5.25 4.75286 5.25 4.50011 5.2515C4.11311 5.259 3.76811 5.60025 3.76061 5.99175C3.73286 10.4917 3.73286 14.9925 3.76061 19.4932C3.76811 19.881 4.10861 20.2252 4.50011 20.2327C9.50036 20.2635 14.5006 20.2635 19.5001 20.2327C19.8879 20.2252 20.2321 19.8847 20.2396 19.4932C20.2674 14.9925 20.2674 10.4917 20.2396 5.991C20.2329 5.6025 19.8969 5.2545 19.4881 5.2515H18.7419V6.00075C18.7306 6.552 18.0061 6.957 17.5359 6.594C17.3544 6.4545 17.2479 6.23175 17.2434 6.00075V5.2515H12.7494ZM6.00761 17.2365C6.42086 17.2365 6.75686 17.5725 6.75686 17.9857C6.75686 18.399 6.42086 18.735 6.00761 18.735C5.59436 18.735 5.25836 18.399 5.25836 17.9857C5.25836 17.5725 5.59436 17.2365 6.00761 17.2365ZM9.00386 17.2365C9.41711 17.2365 9.75311 17.5725 9.75311 17.9857C9.75311 18.399 9.41711 18.735 9.00386 18.735C8.59061 18.735 8.25461 18.399 8.25461 17.9857C8.25461 17.5725 8.59061 17.2365 9.00386 17.2365ZM12.0001 17.2365C12.4134 17.2365 12.7494 17.5725 12.7494 17.9857C12.7494 18.399 12.4134 18.735 12.0001 18.735C11.5869 18.735 11.2509 18.399 11.2509 17.9857C11.2509 17.5725 11.5869 17.2365 12.0001 17.2365ZM6.00761 14.2402C6.42086 14.2402 6.75686 14.5762 6.75686 14.9895C6.75686 15.4027 6.42086 15.7387 6.00761 15.7387C5.59436 15.7387 5.25836 15.4027 5.25836 14.9895C5.25836 14.5762 5.59436 14.2402 6.00761 14.2402ZM9.00386 14.2402C9.41711 14.2402 9.75311 14.5762 9.75311 14.9895C9.75311 15.4027 9.41711 15.7387 9.00386 15.7387C8.59061 15.7387 8.25461 15.4027 8.25461 14.9895C8.25461 14.5762 8.59061 14.2402 9.00386 14.2402ZM12.0001 14.2402C12.4134 14.2402 12.7494 14.5762 12.7494 14.9895C12.7494 15.4027 12.4134 15.7387 12.0001 15.7387C11.5869 15.7387 11.2509 15.4027 11.2509 14.9895C11.2509 14.5762 11.5869 14.2402 12.0001 14.2402ZM14.9964 14.2402C15.4096 14.2402 15.7456 14.5762 15.7456 14.9895C15.7456 15.4027 15.4096 15.7387 14.9964 15.7387C14.5831 15.7387 14.2471 15.4027 14.2471 14.9895C14.2471 14.5762 14.5831 14.2402 14.9964 14.2402ZM17.9926 14.2402C18.4059 14.2402 18.7419 14.5762 18.7419 14.9895C18.7419 15.4027 18.4059 15.7387 17.9926 15.7387C17.5794 15.7387 17.2434 15.4027 17.2434 14.9895C17.2434 14.5762 17.5794 14.2402 17.9926 14.2402ZM9.00386 11.244C9.41711 11.244 9.75311 11.58 9.75311 11.9932C9.75311 12.4065 9.41711 12.7425 9.00386 12.7425C8.59061 12.7425 8.25461 12.4065 8.25461 11.9932C8.25461 11.58 8.59061 11.244 9.00386 11.244ZM12.0001 11.244C12.4134 11.244 12.7494 11.58 12.7494 11.9932C12.7494 12.4065 12.4134 12.7425 12.0001 12.7425C11.5869 12.7425 11.2509 12.4065 11.2509 11.9932C11.2509 11.58 11.5869 11.244 12.0001 11.244ZM14.9964 11.244C15.4096 11.244 15.7456 11.58 15.7456 11.9932C15.7456 12.4065 15.4096 12.7425 14.9964 12.7425C14.5831 12.7425 14.2471 12.4065 14.2471 11.9932C14.2471 11.58 14.5831 11.244 14.9964 11.244ZM17.9926 11.244C18.4059 11.244 18.7419 11.58 18.7419 11.9932C18.7419 12.4065 18.4059 12.7425 17.9926 12.7425C17.5794 12.7425 17.2434 12.4065 17.2434 11.9932C17.2434 11.58 17.5794 11.244 17.9926 11.244Z" fill="#34A853"/>
</svg>
