<svg width="18" height="18" viewBox="0 0 18 18" fill="none" xmlns="http://www.w3.org/2000/svg">
<path d="M9 0C7.21997 0 5.47991 0.527841 3.99987 1.51677C2.51983 2.50571 1.36628 3.91131 0.685088 5.55585C0.00389957 7.20038 -0.17433 9.00998 0.172937 10.7558C0.520204 12.5016 1.37737 14.1053 2.63604 15.364C3.89472 16.6226 5.49836 17.4798 7.24419 17.8271C8.99002 18.1743 10.7996 17.9961 12.4442 17.3149C14.0887 16.6337 15.4943 15.4802 16.4832 14.0001C17.4722 12.5201 18 10.78 18 9C18 6.61305 17.0518 4.32387 15.364 2.63604C13.6761 0.948212 11.387 0 9 0ZM13.245 7.1925L9 11.43C8.57813 11.8514 8.00626 12.088 7.41 12.088C6.81375 12.088 6.24188 11.8514 5.82 11.43L4.755 10.3725C4.68508 10.3026 4.6296 10.2196 4.59176 10.1282C4.55391 10.0368 4.53444 9.9389 4.53444 9.84C4.53444 9.74111 4.55391 9.64318 4.59176 9.55181C4.6296 9.46045 4.68508 9.37743 4.755 9.3075C4.82493 9.23757 4.90795 9.1821 4.99932 9.14426C5.09068 9.10641 5.18861 9.08693 5.2875 9.08693C5.3864 9.08693 5.48432 9.10641 5.57569 9.14426C5.66706 9.1821 5.75008 9.23757 5.82 9.3075L6.8775 10.3725C6.94723 10.4428 7.03018 10.4986 7.12157 10.5367C7.21297 10.5747 7.311 10.5943 7.41 10.5943C7.50901 10.5943 7.60704 10.5747 7.69844 10.5367C7.78983 10.4986 7.87278 10.4428 7.9425 10.3725L12.18 6.1275C12.2499 6.05757 12.333 6.0021 12.4243 5.96426C12.5157 5.92641 12.6136 5.90693 12.7125 5.90693C12.8114 5.90693 12.9093 5.92641 13.0007 5.96426C13.0921 6.0021 13.1751 6.05757 13.245 6.1275C13.3149 6.19743 13.3704 6.28045 13.4082 6.37181C13.4461 6.46318 13.4656 6.56111 13.4656 6.66C13.4656 6.75889 13.4461 6.85682 13.4082 6.94819C13.3704 7.03955 13.3149 7.12257 13.245 7.1925Z" fill="#3CAB52"/>
</svg>
