<svg width="37" height="41" viewBox="0 0 37 41" fill="none" xmlns="http://www.w3.org/2000/svg">
<path d="M35.843 17.1887C33.4859 14.7587 30.4663 13.0753 27.1599 12.3479C24.7325 11.7378 22.2433 11.407 19.7408 11.362V4.66332C19.7012 3.52788 19.2136 2.45433 18.3846 1.67745C17.5556 0.900568 16.4527 0.483581 15.3171 0.517686C14.1815 0.483581 13.0786 0.900568 12.2496 1.67745C11.4206 2.45433 10.933 3.52788 10.8934 4.66332L10.8934 17.3024L8.87113 15.3054C7.98031 14.4316 6.78225 13.9421 5.5344 13.9421C4.28655 13.9421 3.0885 14.4316 2.19768 15.3054C1.75135 15.7367 1.3961 16.253 1.15294 16.824C0.909791 17.395 0.783685 18.0089 0.782095 18.6295C0.75892 19.8328 1.21338 20.9962 2.04601 21.8651L7.93583 28.8419C8.21998 30.6245 8.83285 32.3389 9.74323 33.8976C10.4084 35.0962 11.2619 36.1802 12.2711 37.1079V39.5346C12.2671 39.8807 12.3959 40.2151 12.631 40.469C12.8661 40.7229 13.1896 40.877 13.535 40.8997H31.116C31.4613 40.877 31.7848 40.7229 32.0199 40.469C32.255 40.2151 32.3839 39.8807 32.3799 39.5346V36.1221C34.8635 33.1649 36.2083 29.4174 36.1716 25.5558V17.9723C36.1558 17.681 36.0397 17.4041 35.843 17.1887ZM33.6438 25.619C33.7246 28.9794 32.5533 32.2498 30.3576 34.795C30.0786 35.0222 29.8976 35.348 29.8521 35.705V38.435H14.8621V36.5644C14.8624 36.3574 14.8118 36.1535 14.7149 35.9705C14.6179 35.7876 14.4775 35.6313 14.306 35.5154C13.3587 34.7388 12.5766 33.7805 12.0056 32.6969C11.2005 31.3335 10.6843 29.8192 10.4889 28.2479C10.4754 27.9744 10.3734 27.7127 10.1982 27.5022L3.97979 20.1462C3.77726 19.9464 3.61644 19.7082 3.50668 19.4457C3.39691 19.1832 3.34039 18.9015 3.34039 18.6169C3.34039 18.3323 3.39691 18.0506 3.50668 17.7881C3.61644 17.5256 3.77726 17.2874 3.97979 17.0876C4.39595 16.6777 4.95662 16.448 5.54072 16.448C6.12483 16.448 6.6855 16.6777 7.10165 17.0876L10.8934 20.8793V24.848L13.4212 23.5841L13.4212 4.66332C13.4662 4.20062 13.6889 3.77343 14.0425 3.47167C14.3962 3.16991 14.8531 3.01714 15.3171 3.04551C15.7811 3.01714 16.238 3.16991 16.5916 3.47167C16.9452 3.77343 17.168 4.20062 17.2129 4.66332V19.5775L19.7408 20.121V13.9025C20.8015 13.9234 21.8604 13.9994 22.9132 14.13V20.7403L24.9354 21.1826V14.4207C25.4537 14.5218 25.9845 14.6356 26.528 14.7746C27.1833 14.9461 27.8288 15.1528 28.4618 15.3939V21.9031L30.484 22.3454V16.3166C31.6329 16.8965 32.6962 17.6323 33.6438 18.5031V25.619Z" fill="#EB001B"/>
</svg>
