<svg width="382" height="244" viewBox="0 0 382 244" fill="none" xmlns="http://www.w3.org/2000/svg">
<path d="M381.257 200.239H0.743538C0.580398 200.239 0.423939 200.174 0.308582 200.058C0.193225 199.942 0.128418 199.784 0.128418 199.621C0.131567 199.458 0.197387 199.302 0.312069 199.187C0.426751 199.072 0.581384 199.006 0.743538 199.002H381.257C381.419 199.006 381.574 199.072 381.688 199.187C381.803 199.302 381.869 199.458 381.872 199.621C381.872 199.784 381.807 199.942 381.692 200.058C381.576 200.174 381.42 200.239 381.257 200.239Z" fill="#D1D3D4"/>
<path d="M30.9831 67.0883C12.6156 80.5257 10.1551 108.538 9.68765 129.578C9.22015 149.357 13.6121 168.246 17.7211 187.543C21.7317 206.42 36.9744 216.717 55.1696 220.92C82.2349 227.212 111.761 227.942 139.232 224.901C166.703 221.86 167.417 194.663 164.661 172.4C163.898 166.219 159.58 162.399 154.917 159.061C149.149 155.189 144.116 150.312 140.056 144.659C127.028 125.709 126.278 103.185 117.592 82.5654C110.727 66.2353 95.4477 54.8623 77.7199 55.431C59.9922 55.9996 43.1994 58.163 30.9831 67.0883Z" fill="white"/>
<path d="M108.033 227.299C90.2079 227.398 72.429 225.474 55.034 221.563C28.3255 215.382 19.6769 199.695 17.118 187.667L16.2568 183.612C12.3324 165.316 8.62935 148.047 9.07224 129.565C10.0933 86.9539 21.1286 73.5288 30.626 66.5814L30.9828 67.0883L30.626 66.5814C43.5559 57.1369 61.6773 55.3321 77.7073 54.8129C95.0045 54.2813 110.924 65.0485 118.158 82.3182C121.337 90.3611 123.935 98.6238 125.933 107.042C129.254 119.713 132.699 132.804 140.573 144.326C144.054 149.419 148.446 153.684 155.335 158.579C160.06 161.954 164.538 165.996 165.325 172.338C167.859 192.723 165.78 206.84 158.965 215.506C154.487 221.205 147.893 224.579 139.355 225.531C128.954 226.693 118.498 227.283 108.033 227.299ZM31.3519 67.6075C13.7102 80.501 10.8315 107.524 10.3025 129.615C9.87189 147.948 13.5503 165.155 17.4502 183.377L18.3236 187.432C20.7841 199.114 29.2359 214.294 55.317 220.376C80.5615 226.261 109.558 227.633 139.158 224.344C147.351 223.442 153.675 220.216 157.944 214.789C164.538 206.395 166.555 192.537 164.095 172.536C163.357 166.639 159.1 162.844 154.61 159.63C147.659 154.685 143.168 150.296 139.601 145.08C131.604 133.385 128.147 120.17 124.838 107.401C122.846 99.0348 120.265 90.8222 117.112 82.825C110.05 66.0251 94.6231 55.4928 77.8304 56.0738C61.9972 56.593 44.0972 58.3607 31.438 67.6075H31.3519Z" fill="#231F20"/>
<path d="M79.2083 171.547C75.9199 171.544 72.6342 171.359 69.3663 170.99C63.0967 170.276 56.9144 168.93 50.9127 166.973C42.7439 164.315 37.2571 161.274 33.1358 157.145C26.8738 150.853 24.5241 142.311 23.5768 136.34C21.4854 122.445 23.5768 107.092 25.09 99.1799C26.0778 93.7558 28.235 88.6146 31.4101 84.1171C34.5853 79.6197 38.7014 75.8749 43.4698 73.1457C50.0885 69.2764 57.9866 66.7793 67.5948 65.5183C77.6828 64.1956 84.9412 65.2835 90.4404 68.9302C99.4211 74.8887 101.98 86.3482 103.825 97.5729L106.962 116.623C107.725 121.357 108.783 127.835 112.486 130.888C113.792 131.882 115.198 132.735 116.681 133.435C119.277 134.745 121.947 136.117 123.46 139.097C125.318 142.805 126.105 148.986 124.198 153.053C122.082 157.528 117.764 160.47 114.713 162.288C103.922 168.525 91.6563 171.724 79.2083 171.547ZM75.3576 66.2106C72.8557 66.2295 70.3574 66.407 67.8777 66.7422C58.4295 67.9784 50.6544 70.4508 44.2202 74.1593C39.6025 76.7966 35.6164 80.4193 32.5428 84.7722C29.4693 89.1251 27.383 94.1022 26.431 99.353C24.9178 107.24 22.8263 122.433 24.9178 136.154C25.7912 141.989 28.1041 150.21 34.1323 156.267C38.1059 160.26 43.4329 163.202 51.3556 165.798C57.255 167.732 63.3351 169.058 69.5017 169.754C86.1714 171.646 101.611 168.691 114.147 161.224C117.063 159.481 121.172 156.688 123.14 152.571C124.887 148.863 124.149 143.127 122.427 139.702C121.098 137.082 118.736 135.87 116.189 134.584C114.627 133.85 113.146 132.95 111.773 131.902C107.701 128.552 106.606 121.79 105.806 116.87L102.669 97.8201C100.873 86.8674 98.3877 75.6922 89.8252 70.0181C86.073 67.4468 81.3489 66.2106 75.3576 66.2106Z" fill="#D1D3D4"/>
<path d="M33.9106 152.225C33.7874 152.225 33.6669 152.189 33.5641 152.121C33.4612 152.053 33.3807 151.956 33.3324 151.842C33.3024 151.766 33.2875 151.686 33.2886 151.604C33.2897 151.523 33.3068 151.443 33.3388 151.368C33.3708 151.294 33.4171 151.226 33.4751 151.169C33.5331 151.113 33.6017 151.068 33.6768 151.038C41.575 147.75 46.8404 148.566 47.0619 148.566C47.1426 148.578 47.2202 148.606 47.2902 148.648C47.3602 148.691 47.4212 148.746 47.4698 148.812C47.5183 148.878 47.5535 148.953 47.5732 149.033C47.5929 149.113 47.5968 149.196 47.5847 149.277C47.5726 149.358 47.5447 149.436 47.5026 149.506C47.4605 149.576 47.405 149.638 47.3393 149.687C47.2736 149.735 47.199 149.771 47.1197 149.79C47.0405 149.81 46.9581 149.814 46.8773 149.802C46.8773 149.802 41.698 149.06 34.1443 152.2C34.0692 152.226 33.9893 152.234 33.9106 152.225Z" fill="#D1D3D4"/>
<path d="M351.017 67.0883C369.409 80.5257 371.808 108.538 372.313 129.578C372.78 149.357 368.388 168.246 364.279 187.543C360.269 206.42 345.026 216.717 326.831 220.92C299.766 227.212 270.24 227.942 242.769 224.901C215.297 221.86 214.584 194.663 217.339 172.4C218.102 166.219 222.42 162.399 227.083 159.061C232.852 155.189 237.885 150.312 241.944 144.659C254.972 125.709 255.723 103.185 264.408 82.5654C271.273 66.2353 286.553 54.8623 304.28 55.431C322.008 55.9996 338.801 58.163 351.017 67.0883Z" fill="white"/>
<path d="M273.967 227.299C263.511 227.291 253.063 226.709 242.67 225.556C234.132 224.604 227.538 221.229 223.06 215.53C216.245 206.877 214.166 192.747 216.7 172.363C217.487 165.984 221.965 161.979 226.689 158.604C233.517 153.659 237.909 149.444 241.452 144.35C249.326 132.829 252.77 119.738 256.092 107.067C258.089 98.6486 260.688 90.3859 263.867 82.3429C271.138 65.0362 287.057 54.3184 304.317 54.8376C320.311 55.3568 338.469 57.1617 351.399 66.6062C369.483 79.8211 372.411 107.203 372.953 129.652C373.395 148.133 369.692 165.403 365.768 183.698L364.907 187.753C362.348 199.781 353.699 215.419 326.991 221.65C309.585 225.533 291.797 227.428 273.967 227.299ZM302.952 56.0244C286.651 56.0244 271.815 66.4208 264.925 82.8003C261.773 90.7975 259.191 99.0101 257.199 107.376C253.853 120.146 250.396 133.336 242.436 145.055C238.869 150.272 234.378 154.623 227.427 159.605C222.937 162.819 218.68 166.614 217.942 172.511C215.482 192.55 217.45 206.37 224.094 214.764C228.362 220.191 234.686 223.417 242.879 224.32C272.479 227.608 301.476 226.236 326.72 220.352C352.801 214.27 361.167 199.089 363.713 187.407L364.587 183.352C368.487 165.131 372.165 147.923 371.735 129.59C370.726 87.5597 359.961 74.3571 350.685 67.5828C338.026 58.3361 320.126 56.5683 304.293 56.0491L302.952 56.0244Z" fill="#231F20"/>
<path d="M302.792 171.547C290.311 171.742 278.009 168.542 267.189 162.288C264.138 160.47 259.808 157.528 257.704 153.053C255.797 148.998 256.584 142.78 258.442 139.097C259.955 136.117 262.625 134.745 265.221 133.435C266.704 132.735 268.11 131.882 269.416 130.888C273.107 127.835 274.177 121.357 274.94 116.623L278.077 97.5728C279.922 86.3482 282.481 74.8887 291.462 68.9302C296.961 65.2835 304.219 64.1956 314.307 65.5183C323.915 66.7545 331.814 69.2269 338.432 73.1457C343.201 75.8749 347.317 79.6197 350.492 84.1171C353.667 88.6146 355.824 93.7558 356.812 99.1799C358.276 107.092 360.417 122.445 358.325 136.34C357.427 142.36 355.028 150.853 348.766 157.145C344.645 161.274 339.158 164.315 330.989 166.973C324.988 168.93 318.805 170.276 312.536 170.99C309.301 171.355 306.048 171.541 302.792 171.547ZM306.643 66.2106C300.627 66.2106 295.903 67.4468 292.114 69.9192C283.502 75.5933 281.042 86.7685 279.27 97.7212L276.133 116.771C275.333 121.716 274.238 128.453 270.166 131.803C268.793 132.852 267.312 133.751 265.75 134.486C263.289 135.722 260.829 136.958 259.512 139.603C257.79 143.028 257.052 148.764 258.799 152.472C260.767 156.638 264.876 159.432 267.792 161.126C280.328 168.543 295.755 171.547 312.437 169.655C318.604 168.959 324.684 167.633 330.583 165.699C338.568 163.103 343.895 160.161 347.807 156.168C353.835 150.111 356.148 141.89 357.021 136.056C359.088 122.334 357.021 107.141 355.508 99.3159C354.556 94.0651 352.47 89.088 349.396 84.7351C346.323 80.3822 342.337 76.7595 337.719 74.1223C331.248 70.3395 323.509 67.9413 314.061 66.7051C311.601 66.3845 309.124 66.2194 306.643 66.2106Z" fill="#D1D3D4"/>
<path d="M348.09 152.225C348.013 152.242 347.933 152.242 347.856 152.225C340.302 149.085 335.184 149.827 335.123 149.827C335.042 149.839 334.96 149.835 334.881 149.815C334.801 149.795 334.727 149.76 334.661 149.711C334.595 149.662 334.54 149.601 334.498 149.531C334.456 149.46 334.428 149.383 334.416 149.301C334.403 149.22 334.407 149.137 334.427 149.058C334.447 148.978 334.482 148.903 334.531 148.837C334.579 148.771 334.64 148.715 334.71 148.673C334.78 148.631 334.858 148.603 334.938 148.591C335.16 148.591 340.425 147.787 348.323 151.063C348.399 151.093 348.467 151.137 348.525 151.194C348.583 151.251 348.629 151.318 348.661 151.393C348.693 151.468 348.71 151.548 348.712 151.629C348.713 151.71 348.698 151.791 348.668 151.866C348.616 151.976 348.534 152.068 348.431 152.131C348.329 152.195 348.21 152.227 348.09 152.225Z" fill="#D1D3D4"/>
<path d="M258.405 80.1178L220.268 59.1025C220.268 59.1025 218.065 52.7732 215.703 50.8323C213.341 48.8915 214.805 55.7771 214.805 55.7771C214.805 55.7771 201.765 47.4081 200.424 49.6703C199.083 51.9325 196.856 61.1545 201.31 64.7271C205.234 67.8547 212.542 68.6459 212.542 68.6459C232.914 85.1491 261.665 103.383 261.665 103.383" fill="white"/>
<path d="M261.665 103.976C261.552 103.974 261.441 103.939 261.345 103.877C261.05 103.692 232.447 85.52 212.283 69.264C211.053 69.1157 204.644 68.2009 200.928 65.234C196.266 61.5254 198.332 51.982 199.895 49.3737C199.992 49.2115 200.123 49.0716 200.278 48.963C200.432 48.8544 200.608 48.7796 200.793 48.7432C203.253 48.1498 210.869 52.6372 213.944 54.5286C213.661 52.7361 213.538 50.6346 214.436 50.0783C214.768 49.8805 215.31 49.7692 216.085 50.3997C218.336 52.2169 220.304 57.4954 220.735 58.6698L258.7 79.6851C258.844 79.7638 258.95 79.8966 258.997 80.0542C259.043 80.2119 259.025 80.3815 258.946 80.5257C258.868 80.67 258.736 80.7771 258.579 80.8235C258.422 80.8698 258.253 80.8517 258.11 80.773L219.972 59.7577C219.905 59.7248 219.845 59.6782 219.796 59.6207C219.747 59.5632 219.711 59.4962 219.689 59.4239C219.689 59.4239 217.561 53.2429 215.347 51.4875L215.101 51.3145C214.934 52.8146 215.051 54.333 215.445 55.7895C215.474 55.9091 215.466 56.0346 215.422 56.1495C215.378 56.2643 215.3 56.363 215.199 56.4323C215.096 56.4984 214.977 56.5335 214.855 56.5335C214.732 56.5335 214.613 56.4984 214.51 56.4323C210.315 53.7374 202.946 49.6209 201.113 50.0659C201.039 50.0659 200.99 50.0659 200.99 50.0659C199.612 52.3652 197.693 61.0928 201.728 64.3192C205.419 67.3108 212.566 68.1144 212.64 68.1144C212.757 68.1304 212.867 68.1773 212.96 68.2503C233.074 84.5434 261.751 102.765 262.034 102.938C262.171 103.027 262.267 103.165 262.304 103.324C262.341 103.484 262.315 103.651 262.231 103.791C262.159 103.866 262.07 103.921 261.971 103.954C261.872 103.986 261.767 103.994 261.665 103.976Z" fill="#231F20"/>
<path d="M248.957 199.151C248.957 199.151 251.725 230.896 250.593 232.948C249.461 235 222.359 239.129 221.867 236.224C221.375 233.319 235.129 227.571 235.129 227.571L232.102 201.611" fill="white"/>
<path d="M225.951 237.819C225.062 237.838 224.173 237.781 223.294 237.646C222.494 237.51 221.412 237.226 221.252 236.336C220.747 233.307 230.725 228.807 234.465 227.237L231.487 201.747C231.478 201.666 231.484 201.583 231.506 201.505C231.528 201.426 231.565 201.352 231.615 201.288C231.666 201.224 231.728 201.17 231.799 201.13C231.87 201.09 231.948 201.064 232.029 201.055C232.11 201.045 232.191 201.051 232.27 201.073C232.348 201.095 232.421 201.133 232.485 201.183C232.549 201.234 232.603 201.296 232.643 201.368C232.682 201.439 232.708 201.517 232.718 201.598L235.744 227.559C235.759 227.693 235.73 227.828 235.661 227.945C235.592 228.061 235.487 228.151 235.363 228.201C228.965 230.847 222.211 234.63 222.47 236.125C222.47 236.125 222.827 236.521 225.459 236.595C233.357 236.855 249.043 233.851 250.064 232.627C250.802 231.069 249.4 211.303 248.342 199.25C248.334 199.169 248.343 199.087 248.367 199.009C248.392 198.931 248.431 198.859 248.483 198.796C248.535 198.734 248.598 198.682 248.67 198.644C248.742 198.606 248.821 198.583 248.902 198.576C248.982 198.569 249.064 198.577 249.141 198.602C249.219 198.626 249.29 198.665 249.353 198.718C249.415 198.77 249.466 198.834 249.504 198.906C249.542 198.978 249.565 199.057 249.572 199.138C250.039 204.466 252.303 231.181 251.134 233.282C249.966 235.384 233.542 237.819 225.951 237.819Z" fill="#231F20"/>
<path d="M289.038 207.483C289.038 207.483 292.839 235.532 290.871 236.336C288.903 237.139 262.145 238.412 262.575 236.051C263.006 233.69 276.207 229.19 276.207 229.19L271.433 201.846" fill="white"/>
<path d="M273.156 238.054C267.952 238.054 263.4 237.745 262.342 236.892C262.199 236.785 262.087 236.641 262.02 236.476C261.953 236.31 261.932 236.129 261.96 235.952C262.379 233.48 271.802 230.043 275.493 228.782L270.794 201.945C270.769 201.784 270.808 201.62 270.902 201.488C270.996 201.356 271.139 201.267 271.298 201.24C271.377 201.224 271.459 201.224 271.538 201.24C271.617 201.257 271.693 201.289 271.759 201.335C271.826 201.381 271.882 201.44 271.926 201.509C271.969 201.578 271.998 201.654 272.012 201.734L276.797 229.079C276.823 229.227 276.794 229.38 276.718 229.509C276.641 229.638 276.521 229.736 276.379 229.784C270.437 231.799 263.917 234.728 263.215 235.965C263.954 236.385 267.472 236.917 276.748 236.706C281.357 236.688 285.959 236.37 290.527 235.755C291.376 234.197 290.121 220.277 288.386 207.532C288.365 207.369 288.408 207.203 288.507 207.071C288.606 206.94 288.753 206.852 288.915 206.828C288.995 206.815 289.077 206.82 289.156 206.84C289.234 206.86 289.308 206.896 289.372 206.946C289.436 206.996 289.49 207.058 289.53 207.129C289.57 207.2 289.595 207.278 289.604 207.359C291.376 220.376 293.061 236.051 291.068 236.867C289.912 237.399 280.808 238.054 273.156 238.054Z" fill="#231F20"/>
<path d="M259.561 151.248C258.909 153.498 253.201 212.44 253.201 212.44H230.183C230.183 212.44 219.591 153.251 223.073 138.639C225.459 128.577 236.335 123.656 247.407 126.92C263.88 126.265 280.808 124.151 280.808 124.151L259.561 151.248Z" fill="#231F20"/>
<path d="M253.201 213.058H230.183C230.039 213.06 229.899 213.01 229.789 212.917C229.678 212.824 229.604 212.694 229.581 212.551C229.15 210.079 219.001 153.066 222.47 138.491C222.993 136.287 223.961 134.214 225.313 132.4C226.665 130.586 228.373 129.071 230.331 127.946C232.934 126.533 235.793 125.658 238.739 125.373C241.684 125.089 244.657 125.4 247.481 126.29C263.707 125.647 280.562 123.558 280.697 123.545C280.819 123.528 280.943 123.548 281.053 123.603C281.163 123.658 281.253 123.746 281.312 123.854C281.371 123.961 281.397 124.083 281.386 124.204C281.375 124.325 281.328 124.44 281.251 124.534L260.091 151.52C259.475 154.475 255.342 196.369 253.779 212.502C253.765 212.649 253.699 212.785 253.593 212.887C253.487 212.989 253.348 213.05 253.201 213.058ZM230.7 211.822H252.648C253.263 205.443 258.344 153.263 258.971 151.075C258.996 150.999 259.033 150.928 259.082 150.865L279.405 124.905C274.915 125.424 260.952 126.97 247.419 127.501H247.222C244.546 126.64 241.724 126.33 238.925 126.589C236.127 126.848 233.409 127.671 230.934 129.009C229.114 130.038 227.527 131.437 226.275 133.116C225.023 134.795 224.134 136.719 223.663 138.763C220.428 152.386 229.679 206.061 230.7 211.822Z" fill="#231F20"/>
<path d="M330.62 132.384C330.62 132.384 337.866 144.474 326.671 158.085C315.476 171.695 283.613 157.38 283.613 157.38L291.572 210.635L268.198 210.4C268.198 210.4 243.839 137.897 246.644 130.394C249.449 122.89 269.403 119.429 269.403 119.429L330.62 132.384Z" fill="#231F20"/>
<path d="M291.535 211.253L268.161 211.018C268.033 211.017 267.908 210.976 267.805 210.901C267.701 210.826 267.623 210.72 267.582 210.598C266.586 207.631 243.175 137.799 246.029 130.171C248.883 122.544 268.431 118.971 269.268 118.823C269.345 118.811 269.424 118.811 269.502 118.823L330.743 131.778C330.827 131.797 330.907 131.833 330.977 131.884C331.047 131.935 331.105 132 331.149 132.075C331.223 132.199 338.53 144.684 327.138 158.48C322.414 164.228 313.298 165.897 300.799 163.425C295.17 162.247 289.66 160.555 284.338 158.369L292.138 210.536C292.153 210.624 292.148 210.713 292.125 210.799C292.102 210.884 292.06 210.963 292.003 211.031C291.945 211.098 291.873 211.153 291.792 211.192C291.712 211.23 291.624 211.251 291.535 211.253ZM268.604 209.77L290.822 210.005L282.96 157.454C282.944 157.344 282.957 157.232 282.999 157.129C283.041 157.026 283.109 156.937 283.197 156.87C283.286 156.803 283.39 156.761 283.5 156.748C283.61 156.736 283.721 156.753 283.822 156.799C284.142 156.947 315.427 170.768 326.191 157.677C331.826 150.828 332.588 144.412 332.232 140.234C332.034 137.691 331.349 135.21 330.214 132.928L269.366 120.059C267.742 120.356 249.682 123.768 247.222 130.604C244.958 136.55 261.751 189.36 268.604 209.77Z" fill="#231F20"/>
<path d="M254.751 169.692C254.629 169.693 254.51 169.657 254.409 169.589C254.308 169.521 254.23 169.423 254.185 169.309C253.656 167.962 241.28 136.167 245.167 128.193C245.356 127.75 245.639 127.353 245.996 127.031C246.353 126.708 246.775 126.468 247.234 126.327C247.312 126.304 247.393 126.297 247.473 126.306C247.554 126.314 247.631 126.339 247.702 126.378C247.773 126.417 247.836 126.47 247.886 126.533C247.937 126.596 247.974 126.669 247.997 126.747C248.039 126.904 248.02 127.072 247.942 127.215C247.864 127.358 247.734 127.465 247.579 127.513C247.284 127.61 247.015 127.771 246.789 127.985C246.564 128.199 246.388 128.46 246.275 128.75C242.584 136.241 255.194 168.543 255.329 168.864C255.359 168.94 255.373 169.022 255.371 169.104C255.369 169.185 255.351 169.266 255.318 169.341C255.285 169.416 255.237 169.483 255.178 169.539C255.119 169.595 255.049 169.639 254.973 169.668L254.751 169.692Z" fill="white"/>
<path d="M283.576 157.998C283.463 158 283.352 157.97 283.256 157.911C282.948 157.726 275.69 153.276 273.636 150.123C273.59 150.056 273.558 149.981 273.542 149.901C273.526 149.822 273.526 149.74 273.542 149.66C273.558 149.581 273.59 149.505 273.635 149.438C273.681 149.371 273.74 149.314 273.808 149.27C273.943 149.181 274.109 149.149 274.268 149.181C274.427 149.214 274.566 149.308 274.657 149.443C276.564 152.373 283.822 156.861 283.896 156.861C284.034 156.948 284.133 157.085 284.172 157.245C284.212 157.404 284.187 157.572 284.105 157.714C284.047 157.801 283.968 157.872 283.876 157.922C283.783 157.972 283.68 157.998 283.576 157.998Z" fill="white"/>
<path d="M330.62 132.384C330.62 132.384 356.32 68.7572 337.337 54.1577C318.355 39.5583 291.302 46.0606 287.611 59.7082C283.92 73.3558 269.367 119.429 269.367 119.429C269.367 119.429 315.993 133.398 330.62 132.384Z" fill="#34A853"/>
<path d="M303.752 61.0928L299.311 106.004L323.805 57.9158L303.752 61.0928Z" fill="#231F20"/>
<path d="M299.261 106.622C299.201 106.634 299.138 106.634 299.077 106.622C298.938 106.584 298.818 106.497 298.738 106.376C298.659 106.255 298.626 106.11 298.646 105.967L303.1 61.0557C303.112 60.9183 303.169 60.789 303.263 60.6882C303.356 60.5874 303.481 60.5209 303.617 60.4994L323.657 57.3347C323.771 57.3136 323.888 57.3257 323.995 57.3695C324.101 57.4134 324.194 57.4871 324.26 57.582C324.317 57.6793 324.348 57.7903 324.348 57.9034C324.348 58.0165 324.317 58.1275 324.26 58.2248L299.754 106.313C299.703 106.401 299.632 106.475 299.546 106.529C299.46 106.583 299.362 106.615 299.261 106.622ZM304.269 61.6243L300.184 102.814L322.661 58.7193L304.269 61.6243Z" fill="#231F20"/>
<path d="M289.296 54.2319L257.211 77.0396L260.139 106.004L294.525 91.4042C294.525 91.4042 300.221 59.3621 289.296 54.2319Z" fill="#34A853"/>
<path d="M301.722 54.8871C304.028 54.1081 306.476 53.8423 308.894 54.1083C312.671 54.7758 316.128 56.5807 319.966 57.1493C324.198 57.5325 328.455 57.5325 332.687 57.1493C333.917 57.0875 332.687 58.7564 333.72 58.0394C337.19 55.4928 337.017 50.4491 337.005 46.6664C337.111 37.9052 336.022 29.1707 333.77 20.7063C332.539 16.3055 327.68 0.197878 320.581 7.1082C322.181 5.53823 314.43 1.8791 313.323 1.57005C303.26 -1.23611 294.131 7.65213 291.88 16.8989C290.244 23.6114 290.121 30.2745 286.959 36.5791C285.557 39.3605 283.736 42.1048 283.613 45.2324C283.644 47.1175 284.195 48.9569 285.205 50.5458C286.215 52.1347 287.644 53.4107 289.333 54.2319C292.762 55.8148 296.626 56.1682 300.283 55.2332L301.722 54.8871Z" fill="white"/>
<path d="M333.363 58.8305C333.247 58.8283 333.134 58.7987 333.031 58.744C332.892 58.6496 332.784 58.5158 332.72 58.3595C332.657 58.2033 332.641 58.0317 332.675 57.8663V57.7798L330.743 57.8663C327.127 58.1673 323.49 58.1342 319.88 57.7674C317.834 57.4175 315.824 56.8796 313.876 56.1603C312.214 55.5513 310.507 55.0719 308.771 54.7264C306.559 54.471 304.318 54.6987 302.201 55.3939L301.845 55.4804L300.381 55.8389C296.585 56.7906 292.581 56.4156 289.026 54.7758C287.23 53.9083 285.71 52.5541 284.639 50.8659C283.567 49.1776 282.986 47.2223 282.96 45.22C283.251 42.5771 284.148 40.038 285.581 37.8029C285.852 37.296 286.122 36.7892 286.381 36.2824C288.497 32.104 289.235 27.8144 290.071 23.2776C290.428 21.139 290.809 18.9386 291.301 16.7381C292.759 10.8979 296.427 5.85954 301.525 2.69497C303.299 1.60015 305.277 0.881799 307.338 0.58416C309.399 0.286521 311.498 0.415889 313.507 0.964298C314.209 1.16209 319.942 3.68392 321.184 5.79781C321.734 5.34824 322.38 5.03279 323.072 4.87622C323.763 4.71965 324.481 4.72621 325.17 4.89539C329.476 6.05742 332.551 14.0061 334.385 20.4714C336.666 28.9981 337.763 37.8007 337.645 46.6293V47.0991C337.645 50.8076 337.645 55.8884 334.102 58.5091C333.895 58.691 333.637 58.8034 333.363 58.8305ZM332.736 56.4818C332.894 56.4734 333.052 56.4976 333.2 56.5528C333.348 56.6081 333.483 56.6933 333.597 56.8032C333.686 56.8961 333.757 57.0052 333.806 57.1246C336.439 54.7758 336.414 50.5233 336.402 47.0743V46.6169C336.518 37.8975 335.438 29.2035 333.191 20.7805C330.731 12.1271 327.766 6.84858 324.85 6.06978C324.142 5.93578 323.41 5.99979 322.736 6.25483C322.061 6.50988 321.469 6.94617 321.024 7.51612C320.907 7.63087 320.749 7.69404 320.585 7.69172C320.421 7.6894 320.265 7.62179 320.151 7.50376C320.036 7.38573 319.974 7.22695 319.976 7.06236C319.978 6.89775 320.045 6.74081 320.163 6.62606C320.384 5.69892 314.885 2.60843 313.163 2.12632C311.306 1.61572 309.365 1.4949 307.46 1.77139C305.555 2.04788 303.727 2.71576 302.091 3.73337C297.275 6.72528 293.814 11.4897 292.446 17.0101C291.917 19.1611 291.548 21.3491 291.215 23.463C290.465 27.901 289.678 32.4749 287.525 36.8263C287.266 37.3331 286.983 37.84 286.713 38.3591C285.391 40.4274 284.55 42.7682 284.252 45.2077C284.279 46.9763 284.799 48.7019 285.751 50.1896C286.703 51.6773 288.05 52.8676 289.641 53.6262C292.946 55.1368 296.664 55.4725 300.184 54.578L301.611 54.2319L301.968 54.1454C304.249 53.4055 306.662 53.1694 309.042 53.4531C310.839 53.8162 312.607 54.312 314.332 54.9365C316.208 55.6315 318.143 56.1529 320.114 56.4941C323.647 56.8508 327.205 56.8798 330.743 56.5807L332.711 56.4818H332.736Z" fill="#231F20"/>
<path d="M295.706 20.4961C295.706 20.4961 292.347 30.8678 294.352 38.6187C294.855 40.7841 295.974 42.7555 297.573 44.2922C299.173 45.8289 301.183 46.8644 303.358 47.2721L303.751 61.0804C303.751 61.0804 303.899 68.1514 312.474 66.8039C314.961 66.4141 317.308 65.3916 319.291 63.8338C321.274 62.276 322.828 60.2345 323.804 57.9033L324.05 32.4749C324.05 32.4749 314.122 27.1098 314.701 17.9743C314.701 17.9867 303.259 23.9698 295.706 20.4961Z" fill="white"/>
<path d="M310.42 67.6075C308.642 67.6895 306.894 67.1232 305.499 66.0129C304.802 65.3854 304.235 64.6254 303.832 63.7767C303.428 62.928 303.196 62.0074 303.149 61.0681L302.755 47.8284C300.572 47.3089 298.575 46.1917 296.986 44.601C295.396 43.0102 294.276 41.008 293.75 38.8166C291.732 30.9791 294.98 20.7682 295.128 20.2737C295.155 20.1921 295.198 20.1169 295.255 20.0531C295.312 19.9892 295.382 19.9381 295.46 19.9028C295.54 19.8692 295.626 19.8518 295.712 19.8518C295.799 19.8518 295.885 19.8692 295.964 19.9028C303.161 23.2158 314.307 17.4304 314.418 17.4304C314.514 17.3763 314.622 17.3478 314.732 17.3478C314.842 17.3478 314.95 17.3763 315.045 17.4304C315.135 17.4911 315.208 17.5744 315.255 17.6721C315.303 17.7697 315.324 17.8783 315.316 17.9867C314.762 26.6401 324.248 31.8568 324.334 31.9063C324.433 31.958 324.517 32.036 324.575 32.1318C324.634 32.2277 324.665 32.3377 324.666 32.4502L324.42 57.8911C324.432 57.9565 324.432 58.0235 324.42 58.0889C323.417 60.5309 321.802 62.6705 319.733 64.2995C317.663 65.9285 315.209 66.9915 312.61 67.385C311.887 67.5194 311.155 67.5939 310.42 67.6075ZM296.1 21.3368C295.423 23.6979 293.295 32.067 294.943 38.4581C295.402 40.5114 296.452 42.3839 297.961 43.8432C299.47 45.3024 301.372 46.2841 303.432 46.6664C303.578 46.6841 303.713 46.7536 303.812 46.8624C303.911 46.9713 303.968 47.1122 303.973 47.2598L304.367 61.0681C304.463 62.6033 305.152 64.0402 306.286 65.0733C307.676 66.3095 309.731 66.6186 312.437 66.2107C314.796 65.831 317.022 64.8608 318.91 63.3896C320.797 61.9184 322.286 59.9935 323.239 57.7922L323.473 32.8458C321.775 31.8445 314.246 26.9491 314.11 18.9757C311.244 20.2984 302.608 23.8339 296.1 21.3368Z" fill="#231F20"/>
<path d="M319.228 30.8431C319.228 30.8431 323.202 21.1266 328.16 27.0356C333.117 32.9446 326.339 39.7684 322.082 39.3234" fill="white"/>
<path d="M322.488 39.9663H322.021C321.94 39.9585 321.861 39.9348 321.789 39.8963C321.718 39.8579 321.654 39.8055 321.603 39.7423C321.551 39.6791 321.513 39.6063 321.489 39.528C321.466 39.4497 321.459 39.3676 321.467 39.2863C321.475 39.205 321.498 39.126 321.537 39.054C321.575 38.9819 321.627 38.9181 321.69 38.8664C321.753 38.8147 321.825 38.776 321.903 38.7526C321.981 38.7292 322.063 38.7215 322.144 38.7301C324.284 38.9526 327.163 37.0612 328.504 34.5023C329.13 33.3932 329.389 32.1126 329.243 30.8459C329.097 29.5791 328.554 28.3919 327.692 27.456C327.355 26.9263 326.886 26.4947 326.331 26.204C325.776 25.9134 325.155 25.7739 324.53 25.7995C322.291 26.1456 320.36 29.7429 319.806 31.1027C319.744 31.2552 319.625 31.3767 319.473 31.4404C319.322 31.5042 319.152 31.505 319 31.4427C318.849 31.3804 318.728 31.2601 318.664 31.1083C318.601 30.9564 318.6 30.7854 318.662 30.633C318.761 30.3981 320.963 25.1072 324.346 24.5756C325.834 24.3408 327.274 25.0454 328.639 26.6648C329.654 27.792 330.291 29.2097 330.463 30.7193C330.636 32.229 330.333 33.7549 329.599 35.0833C328.098 37.9389 325.096 39.9663 322.488 39.9663Z" fill="#231F20"/>
<path d="M301.279 38.9154C300.612 38.9349 299.948 38.8084 299.335 38.5446C299.186 38.4726 299.055 38.3672 298.952 38.2365C298.85 38.1058 298.779 37.9532 298.744 37.7905C298.289 36.0227 301.599 31.1521 302.632 29.6934C302.677 29.627 302.736 29.5703 302.803 29.5268C302.871 29.4833 302.946 29.4537 303.025 29.4399C303.104 29.4261 303.185 29.4283 303.264 29.4464C303.342 29.4644 303.416 29.498 303.481 29.5451C303.547 29.5919 303.604 29.6516 303.647 29.7205C303.691 29.7895 303.72 29.8664 303.734 29.9469C303.748 30.0273 303.746 30.1097 303.727 30.1893C303.709 30.2688 303.676 30.344 303.628 30.4104C301.414 33.5504 299.679 36.8634 299.938 37.4938C301.224 37.7704 302.561 37.7022 303.813 37.296C303.894 37.2725 303.978 37.2652 304.062 37.2745C304.146 37.2838 304.227 37.3096 304.3 37.3503C304.374 37.3911 304.439 37.446 304.491 37.512C304.544 37.578 304.583 37.6537 304.607 37.7349C304.63 37.816 304.637 37.901 304.628 37.985C304.619 38.069 304.593 38.1504 304.552 38.2244C304.512 38.2985 304.457 38.3638 304.392 38.4166C304.326 38.4694 304.251 38.5087 304.17 38.5322C303.228 38.7934 302.255 38.9224 301.279 38.9154Z" fill="#231F20"/>
<path d="M303.358 47.2845C303.358 47.2845 310.739 48.0015 314.91 46.79C314.91 46.79 310.616 57.8045 303.641 57.9157L303.358 47.2845Z" fill="#231F20"/>
<path d="M303.641 58.5709C303.48 58.571 303.325 58.5075 303.21 58.3943C303.095 58.281 303.029 58.127 303.026 57.9652L302.743 47.2968C302.741 47.2092 302.757 47.122 302.791 47.0412C302.825 46.9604 302.876 46.8878 302.94 46.8281C303.004 46.7685 303.079 46.7232 303.162 46.6953C303.245 46.6675 303.333 46.6576 303.42 46.6664C303.493 46.6664 310.715 47.3586 314.738 46.1966C314.848 46.1621 314.965 46.1601 315.077 46.1908C315.188 46.2215 315.288 46.2836 315.365 46.3697C315.443 46.4545 315.496 46.5597 315.518 46.6734C315.54 46.787 315.53 46.9045 315.488 47.0125C315.304 47.4823 310.961 58.4102 303.653 58.5709H303.641ZM303.985 47.952L304.231 57.2853C309.152 56.6919 312.622 50.3008 313.852 47.6801C310.584 48.1485 307.274 48.2397 303.985 47.952Z" fill="#231F20"/>
<path d="M308.983 28.4845C309.009 27.4335 308.546 26.569 307.949 26.5537C307.351 26.5384 306.845 27.378 306.818 28.4291C306.792 29.4801 307.255 30.3446 307.852 30.3599C308.45 30.3752 308.956 29.5356 308.983 28.4845Z" fill="#231F20"/>
<path d="M299.023 28.2398C299.049 27.1887 298.587 26.3243 297.989 26.309C297.391 26.2936 296.885 27.1333 296.858 28.1843C296.832 29.2354 297.295 30.0999 297.892 30.1152C298.49 30.1305 298.996 29.2908 299.023 28.2398Z" fill="#231F20"/>
<path d="M336.87 41.6474C337.399 49.7692 338.1 64.7024 325.256 61.0186C322.595 60.2178 320.338 58.4273 318.945 56.012C316.485 51.5864 323.103 45.1829 326.24 42.3026" fill="white"/>
<path d="M328.91 62.2177C327.614 62.1987 326.326 61.999 325.084 61.6243C322.239 60.7988 319.825 58.8922 318.355 56.3087C315.808 51.8089 321.369 45.8999 325.736 41.8452C325.853 41.7312 326.01 41.6674 326.173 41.6674C326.336 41.6674 326.493 41.7312 326.61 41.8452C326.667 41.9027 326.713 41.971 326.744 42.0464C326.776 42.1217 326.792 42.2025 326.792 42.2841C326.792 42.3657 326.776 42.4465 326.744 42.5218C326.713 42.5971 326.667 42.6655 326.61 42.7229C324.248 44.8986 317.075 51.4999 319.437 55.6659C320.752 57.9662 322.905 59.6637 325.441 60.4005C328.664 61.3276 331.199 61.068 332.97 59.634C337.214 56.1851 336.575 46.382 336.267 41.6721C336.261 41.591 336.272 41.5095 336.297 41.4323C336.323 41.3552 336.364 41.2838 336.417 41.2224C336.47 41.161 336.535 41.1107 336.607 41.0744C336.68 41.0381 336.758 41.0165 336.839 41.0108C336.92 41.0051 337.001 41.0155 337.078 41.0413C337.155 41.0671 337.226 41.1079 337.287 41.1612C337.348 41.2146 337.398 41.2796 337.434 41.3524C337.47 41.4252 337.492 41.5044 337.497 41.5856C337.842 46.8889 338.494 56.7414 333.733 60.5983C332.367 61.695 330.658 62.2688 328.91 62.2177Z" fill="#231F20"/>
<path d="M308.882 41.734C308.882 42.3891 307.787 42.9702 306.421 42.9702C305.056 42.9702 305.61 42.4262 305.61 41.734C305.61 41.0417 305.068 40.4978 306.421 40.4978C307.775 40.4978 308.882 41.0788 308.882 41.734Z" fill="#231F20"/>
<path d="M339.576 57.4954C339.576 57.4954 328.221 67.0265 328.172 75.0865C328.123 83.1464 336.784 120.826 336.784 120.826L360.441 107.574C360.441 107.574 351.214 60.759 339.576 57.4954Z" fill="#34A853"/>
<path d="M270.658 115.943H270.486C270.408 115.919 270.336 115.879 270.273 115.827C270.21 115.775 270.159 115.711 270.121 115.638C270.083 115.566 270.06 115.487 270.053 115.405C270.046 115.324 270.055 115.242 270.08 115.164L287.033 59.5351C287.048 59.4494 287.082 59.3678 287.131 59.296C287.18 59.2241 287.244 59.1635 287.318 59.1181C287.392 59.0727 287.475 59.0436 287.561 59.0327C287.647 59.0218 287.734 59.0293 287.817 59.0548C287.9 59.0803 287.977 59.1231 288.042 59.1805C288.108 59.2378 288.16 59.3084 288.197 59.3877C288.233 59.4669 288.252 59.5529 288.253 59.6401C288.254 59.7274 288.236 59.8137 288.201 59.8936L271.249 115.522C271.207 115.646 271.127 115.753 271.021 115.829C270.915 115.904 270.788 115.944 270.658 115.943Z" fill="#231F20"/>
<path d="M337.017 118.872C336.876 118.875 336.739 118.829 336.629 118.741C336.519 118.653 336.443 118.529 336.414 118.39C326.831 75.4326 327.421 74.9258 327.803 74.6167C327.92 74.5027 328.076 74.4389 328.239 74.4389C328.402 74.4389 328.559 74.5027 328.676 74.6167C328.747 74.6985 328.794 74.7979 328.814 74.9044C328.833 75.0109 328.824 75.1208 328.787 75.2225C328.787 77.2375 334.04 101.862 337.657 118.057C337.675 118.136 337.677 118.218 337.664 118.299C337.65 118.379 337.62 118.456 337.577 118.525C337.534 118.594 337.477 118.654 337.41 118.701C337.344 118.748 337.269 118.781 337.189 118.798L337.017 118.872Z" fill="#231F20"/>
<path d="M303.998 118.254L259.894 134.955L240.308 120.826L278.864 109.131L303.998 118.254Z" fill="white"/>
<path d="M259.894 135.598C259.762 135.599 259.634 135.56 259.525 135.487L239.951 121.345C239.856 121.279 239.781 121.187 239.735 121.079C239.69 120.972 239.675 120.854 239.693 120.739C239.715 120.627 239.766 120.523 239.842 120.438C239.918 120.353 240.015 120.291 240.124 120.257L278.679 108.575C278.808 108.538 278.944 108.538 279.073 108.575L304.182 117.673C304.298 117.721 304.398 117.801 304.47 117.904C304.542 118.007 304.583 118.129 304.588 118.254C304.588 118.381 304.549 118.505 304.477 118.609C304.404 118.713 304.301 118.792 304.182 118.835L260.103 135.598C260.034 135.611 259.963 135.611 259.894 135.598ZM241.674 121.073L259.98 134.288L302.214 118.291L278.839 109.811L241.674 121.073Z" fill="#231F20"/>
<path d="M357.685 109.144C357.685 109.144 362.606 134.152 349.209 136.538C335.812 138.923 291.388 130.184 291.388 130.184C291.388 130.184 275.96 132.916 276.945 128.947C277.929 124.979 287.562 123.224 287.562 123.224C287.562 123.224 279.614 119.354 283.526 119.367C287.69 119.615 291.837 120.082 295.952 120.764L337.042 115.263" fill="white"/>
<path d="M343.132 137.576C326.302 137.576 294.057 131.395 291.461 130.814C289.136 131.222 278.962 132.841 276.822 130.517C276.617 130.3 276.473 130.033 276.404 129.742C276.335 129.451 276.343 129.147 276.428 128.861C277.252 125.634 282.887 123.805 285.827 123.063C281.644 120.838 281.841 119.96 281.927 119.614C282.112 118.811 283.157 118.811 283.6 118.811C287.767 119.053 291.919 119.515 296.038 120.195L337.042 114.706C337.205 114.685 337.37 114.73 337.5 114.831C337.631 114.932 337.716 115.08 337.737 115.244C337.758 115.408 337.714 115.574 337.613 115.705C337.513 115.836 337.365 115.921 337.202 115.943L296.112 121.431C296.051 121.444 295.988 121.444 295.927 121.431C291.853 120.759 287.746 120.297 283.625 120.047H283.44C284.844 121.096 286.353 121.995 287.943 122.729C288.057 122.789 288.15 122.882 288.21 122.996C288.27 123.11 288.293 123.24 288.277 123.368C288.261 123.496 288.206 123.616 288.12 123.712C288.034 123.808 287.921 123.875 287.795 123.904C285.224 124.386 278.384 126.29 277.658 129.17C277.622 129.255 277.612 129.348 277.629 129.439C277.647 129.529 277.691 129.612 277.757 129.677C279.085 131.123 286.823 130.381 291.388 129.578H291.621C292.064 129.664 336.07 138.231 349.16 135.932C350.336 135.731 351.458 135.29 352.459 134.638C353.46 133.985 354.317 133.134 354.979 132.137C359.998 124.806 357.267 109.885 357.144 109.267C357.128 109.176 357.132 109.082 357.155 108.993C357.178 108.903 357.221 108.82 357.279 108.748C357.352 108.655 357.45 108.586 357.562 108.549C357.673 108.511 357.793 108.508 357.907 108.538C358.02 108.566 358.122 108.626 358.2 108.712C358.279 108.798 358.331 108.905 358.35 109.02L357.747 109.144L358.362 109.032C358.669 110.664 361.216 125.226 355.987 132.841C355.236 133.976 354.261 134.943 353.122 135.683C351.984 136.423 350.706 136.92 349.369 137.143C347.306 137.467 345.219 137.612 343.132 137.576Z" fill="#231F20"/>
<path d="M186.571 215.753C187.847 216.987 189.48 217.783 191.234 218.027C193.288 218.027 215.568 213.899 216.491 216.964C217.413 220.03 215.592 221.563 210.265 224.085C203.13 227.46 179.177 235.384 179.177 235.384L173.937 223.022L186.571 215.753Z" fill="white"/>
<path d="M179.178 235.952C179.067 235.955 178.958 235.923 178.865 235.861C178.773 235.799 178.701 235.71 178.661 235.606L173.42 223.244C173.366 223.118 173.36 222.977 173.403 222.847C173.446 222.717 173.535 222.607 173.654 222.54L186.289 215.271C186.4 215.206 186.531 215.182 186.659 215.202C186.786 215.222 186.903 215.286 186.99 215.382C188.159 216.504 189.647 217.234 191.246 217.471C192.748 217.369 194.243 217.183 195.724 216.915C208.999 215.048 216.319 214.443 217.032 216.804C218.09 220.327 215.876 222.057 210.5 224.604C203.426 227.966 179.596 235.853 179.35 235.94L179.178 235.952ZM174.65 223.257L179.498 234.691C182.942 233.542 203.561 226.631 210.02 223.566C215.494 220.97 216.712 219.647 215.95 217.113C215.396 215.271 200.707 217.335 195.884 218.015C193.178 218.398 191.738 218.559 191.222 218.584C189.463 218.365 187.811 217.615 186.485 216.433L174.65 223.257Z" fill="#231F20"/>
<path d="M117.321 229.017C117.321 229.017 141.2 237.263 142.221 238.833C143.242 240.403 141.434 242.245 135.073 242.813C128.713 243.382 101.5 241.898 101.5 241.898C101.5 241.898 101.156 234.481 102.866 230.773C104.576 227.064 117.321 229.017 117.321 229.017Z" fill="white"/>
<path d="M130.534 243.505C120.79 243.505 102.398 242.516 101.476 242.467C101.335 242.458 101.202 242.398 101.103 242.298C101.003 242.198 100.943 242.064 100.934 241.923C100.934 241.614 100.614 234.333 102.349 230.501C104.182 226.458 116.054 228.251 117.407 228.461H117.493C123.14 230.414 141.643 236.892 142.689 238.511C142.889 238.792 143.01 239.121 143.04 239.464C143.071 239.808 143.009 240.153 142.861 240.464C142.135 241.96 139.453 242.937 135.123 243.345C134.077 243.468 132.478 243.505 130.534 243.505ZM102.042 241.367C105.831 241.565 129.267 242.764 135.024 242.245C140.585 241.75 141.655 240.403 141.84 239.995C141.909 239.859 141.937 239.707 141.922 239.555C141.906 239.404 141.848 239.261 141.754 239.142C140.806 238.029 126.203 232.689 117.149 229.574C112.376 228.807 104.441 228.523 103.333 230.97C102.005 233.999 102.005 239.649 102.042 241.367Z" fill="#231F20"/>
<path d="M55.3907 150.853C55.3907 150.853 35.9037 101.912 37.9459 77.769C39.9881 53.6261 55.6737 52.1551 61.1728 51.8089C66.672 51.4628 95.5457 47.5935 106.089 60.5859C116.632 73.5783 113.926 136.154 113.926 136.154L55.3907 150.853Z" fill="#34A853"/>
<path d="M89.7884 62.9594L89.4316 111.999L68.7144 59.6711L89.7884 62.9594Z" fill="#231F20"/>
<path d="M89.4318 112.617C89.3086 112.618 89.1881 112.581 89.0853 112.513C88.9824 112.445 88.9018 112.348 88.8535 112.234L68.1363 59.8937C68.1001 59.7906 68.0901 59.68 68.1073 59.572C68.1245 59.4641 68.1683 59.3622 68.2347 59.2756C68.3021 59.1894 68.3914 59.1232 68.4932 59.084C68.5951 59.0448 68.7055 59.0341 68.8129 59.053L89.8869 62.3537C90.0326 62.3744 90.1661 62.4469 90.2632 62.558C90.3603 62.6691 90.4144 62.8116 90.4159 62.9594L90.0469 112.012C90.0435 112.154 89.9915 112.29 89.8996 112.398C89.8078 112.506 89.6816 112.579 89.5425 112.605L89.4318 112.617ZM69.7479 60.4376L88.8904 108.835L89.2226 63.491L69.7479 60.4376Z" fill="#231F20"/>
<path d="M115.119 123.755C115.119 123.755 138.936 130.159 160.232 144.697C170 151.36 188.244 216.729 188.244 216.729C188.244 216.729 186.202 228.053 173.186 226.285L116.3 152.225C116.3 152.225 104.096 123.471 115.119 123.755Z" fill="#231F20"/>
<path d="M175.844 227.076C174.926 227.074 174.009 227.008 173.1 226.879C172.941 226.854 172.796 226.77 172.694 226.644L115.82 152.583C115.785 152.543 115.755 152.497 115.734 152.447C115.377 151.594 106.84 131.321 111.084 125.041C111.528 124.389 112.138 123.868 112.849 123.532C113.56 123.195 114.348 123.055 115.131 123.125H115.279C115.513 123.187 139.441 129.726 160.576 144.14C170.418 150.865 188.085 213.849 188.872 216.532C188.89 216.621 188.89 216.714 188.872 216.804C188.24 219.777 186.59 222.434 184.209 224.311C181.829 226.188 178.868 227.167 175.844 227.076ZM173.519 225.692C184.947 227.114 187.334 218.028 187.605 216.742C186.645 213.318 169.151 151.508 159.887 145.191C139.49 131.271 116.485 124.757 115.033 124.361H114.959C114.406 124.32 113.851 124.425 113.351 124.666C112.85 124.907 112.421 125.275 112.105 125.733C108.353 131.296 116.275 150.556 116.841 151.891L173.519 225.692Z" fill="#231F20"/>
<path d="M55.3907 150.853C55.3907 150.853 100.516 132.409 112.08 130.703C112.08 130.703 128.627 136.884 137.128 152.633C145.629 168.382 117.321 229.017 117.321 229.017C112.663 231.785 107.164 232.76 101.845 231.762L101.475 168.295C101.475 168.295 46.9635 173.722 55.3907 150.853Z" fill="#231F20"/>
<path d="M105.966 232.775C104.542 232.774 103.121 232.637 101.722 232.367C101.583 232.339 101.458 232.263 101.368 232.153C101.278 232.042 101.23 231.904 101.23 231.762L100.86 168.975C95.6689 169.433 64.0148 171.732 55.8337 161.076C53.6439 158.245 53.3732 154.734 54.8126 150.643C54.8421 150.562 54.888 150.489 54.9473 150.427C55.0066 150.365 55.078 150.317 55.1571 150.284C57.0024 149.53 100.479 131.741 111.994 130.085C112.095 130.061 112.201 130.061 112.302 130.085C112.462 130.147 129.156 136.55 137.669 152.336C146.183 168.122 119.031 226.792 117.875 229.277C117.829 229.384 117.752 229.475 117.653 229.536C114.124 231.666 110.083 232.786 105.966 232.775ZM102.423 231.242C107.377 232.034 112.451 231.101 116.804 228.597C118.416 225.086 144.608 167.801 136.55 152.93C128.676 138.367 113.618 131.988 111.945 131.333C100.787 133.089 59.4629 149.876 55.8214 151.323C54.5912 154.883 54.8864 157.899 56.7441 160.322C65.0605 171.151 101.033 167.739 101.353 167.739C101.436 167.731 101.521 167.74 101.601 167.766C101.682 167.791 101.756 167.833 101.82 167.888C101.885 167.945 101.937 168.015 101.973 168.094C102.009 168.173 102.028 168.258 102.029 168.345L102.423 231.242Z" fill="#231F20"/>
<path d="M136.107 178.754H135.996C135.836 178.723 135.693 178.632 135.599 178.498C135.505 178.364 135.467 178.199 135.492 178.037C137.079 168.963 138.715 154.648 136.722 152.398C130.165 145.129 113.876 133.014 113.716 132.891C113.588 132.795 113.501 132.651 113.476 132.492C113.451 132.333 113.488 132.17 113.581 132.038C113.679 131.908 113.824 131.82 113.984 131.795C114.145 131.77 114.309 131.808 114.442 131.902C114.602 132.026 130.989 144.264 137.632 151.57C140.72 154.982 137.165 175.886 136.747 178.259C136.72 178.406 136.639 178.539 136.521 178.63C136.403 178.721 136.255 178.765 136.107 178.754Z" fill="white"/>
<path d="M106.113 60.5859C106.113 60.5859 113.925 75.6675 118.527 83.4184C123.128 91.1694 133.117 102.283 133.117 102.283C133.117 102.283 168.499 114.929 168.733 115.609C168.966 116.289 165.374 128.243 165.374 128.243C165.374 128.243 128.258 125.56 122.107 122.643C115.955 119.725 103.505 105.336 103.505 105.336L106.113 60.5859Z" fill="#34A853"/>
<path d="M81.7673 68.374L79.1592 72.5028L82.0133 74.2088L82.2963 93.9879L89.4317 111.999L89.7885 95.3353L83.8464 73.6401L85.6179 71.551L81.7673 68.374Z" fill="white"/>
<path d="M89.4318 112.617C89.3086 112.618 89.1881 112.581 89.0853 112.513C88.9824 112.445 88.9018 112.348 88.8535 112.234L81.7304 94.2227C81.7247 94.1487 81.7247 94.0743 81.7304 94.0002L81.4598 74.5549L78.8886 73.0344C78.7481 72.9431 78.647 72.8018 78.6056 72.6388C78.586 72.5589 78.5836 72.4756 78.5984 72.3946C78.6133 72.3136 78.6451 72.2368 78.6918 72.1691L81.2999 68.0402C81.3462 67.9663 81.4073 67.9028 81.4793 67.8539C81.5513 67.8049 81.6326 67.7715 81.7181 67.7559C81.8051 67.7434 81.8936 67.749 81.9783 67.7724C82.0629 67.7958 82.1419 67.8365 82.2102 67.8918L86.0609 71.0689C86.1236 71.1212 86.1754 71.1856 86.2131 71.2583C86.2508 71.331 86.2738 71.4105 86.2807 71.4922C86.2875 71.5739 86.2782 71.6561 86.2531 71.7341C86.2281 71.8121 86.1878 71.8843 86.1347 71.9465L84.5354 73.7885L90.3913 95.1746C90.3974 95.2363 90.3974 95.2984 90.3913 95.36L90.0223 112.012C90.0189 112.154 89.9669 112.29 89.8751 112.398C89.7832 112.506 89.657 112.579 89.5179 112.605L89.4318 112.617ZM82.9115 93.8766L88.8905 108.946L89.1857 95.4219L83.2559 73.7885C83.2324 73.6905 83.2312 73.5885 83.2525 73.49C83.2739 73.3915 83.3171 73.2991 83.379 73.2198L84.7445 71.6128L81.915 69.2764L80.0204 72.2803L82.3333 73.6649C82.423 73.7183 82.4974 73.7943 82.5491 73.8853C82.6009 73.9763 82.6282 74.0792 82.6285 74.1841L82.9115 93.8766Z" fill="#231F20"/>
<path d="M67.4224 12.3126C68.132 12.0405 68.8712 11.8538 69.6245 11.7563C72.6263 11.4101 72.6755 12.0653 74.9883 10.1121C78.5167 7.3228 82.8093 5.68373 87.2907 5.4146C95.9024 4.84595 102.164 9.18499 100.196 18.679C99.2495 22.4393 97.5314 25.9594 95.152 29.0135C90.231 35.7879 83.4278 41.9194 75.136 42.6117C72.6755 42.7971 68.0621 42.6117 66.2783 40.5967C63.744 37.709 61.9918 34.2147 61.1903 30.4498C60.3888 26.6848 60.5649 22.776 61.7018 19.0993C62.1556 17.5247 62.9121 16.0548 63.9285 14.7726C64.8725 13.6746 66.0731 12.8293 67.4224 12.3126Z" fill="white"/>
<path d="M73.6231 43.2174C71.4333 43.2174 67.5581 42.9207 65.7865 40.9428C63.188 37.9822 61.3927 34.3987 60.5739 30.5379C59.755 26.6771 59.9402 22.6694 61.1116 18.9015C61.5892 17.2519 62.3879 15.714 63.4614 14.377C65.0303 12.5565 67.2291 11.4032 69.6126 11.1505C70.2332 11.0732 70.8573 11.0278 71.4825 11.0145C72.7128 11.0145 73.0941 11.0145 74.6442 9.64237C78.2509 6.75465 82.662 5.06548 87.2665 4.80885C92.3474 4.47508 96.4687 5.81017 98.8677 8.51743C101.008 10.9898 101.685 14.5253 100.811 18.7408C99.8698 22.5931 98.1162 26.1974 95.6691 29.3102C91.4247 35.2192 84.437 42.4139 75.1979 43.1061C74.9641 43.1803 74.3982 43.2174 73.6231 43.2174ZM88.7305 5.98324C88.263 5.98324 87.7832 5.98324 87.2911 5.98324C82.9388 6.26283 78.7752 7.87161 75.3578 10.5942C74.864 11.1352 74.2602 11.5632 73.5873 11.849C72.9144 12.1348 72.1882 12.2718 71.4579 12.2507C71.0027 12.2507 70.4368 12.2507 69.6741 12.3744C68.9704 12.4609 68.2803 12.6353 67.6196 12.8936C66.3695 13.3695 65.2574 14.1513 64.384 15.1682C63.4152 16.3884 62.6923 17.7866 62.2557 19.2847C61.1585 22.8536 60.9953 26.6465 61.7819 30.2973C62.5684 33.9481 64.2782 37.3335 66.7461 40.1269C68.1486 41.6969 72.0607 42.179 75.0994 41.9318C83.8587 41.2766 90.5759 34.3415 94.6603 28.655C96.9984 25.6795 98.6762 22.2359 99.5812 18.5553C100.369 14.7231 99.7904 11.5585 97.9081 9.38277C96.0258 7.20707 92.7534 5.98324 88.7305 5.98324Z" fill="#231F20"/>
<path d="M89.8007 49.9052V62.9594C89.8007 62.9594 86.7497 70.1417 78.2487 67.9783C69.7478 65.815 68.7144 59.6587 68.7144 59.6587L69.0957 35.4664C69.0957 35.4664 75.4561 32.1534 73.7583 18.3452C80.7053 21.4438 88.3546 22.6053 95.9026 21.7076C95.9026 21.7076 98.5108 36.8015 97.6004 43.4522C96.6777 49.9299 89.9114 49.8186 89.8007 49.9052Z" fill="white"/>
<path d="M81.3118 69.0044C80.2278 68.9946 79.1492 68.8492 78.1009 68.5717C69.317 66.3218 68.1482 60.0296 68.1113 59.77L68.4804 35.4912C68.4839 35.3793 68.5163 35.2703 68.5746 35.1749C68.6328 35.0795 68.7149 35.001 68.8126 34.9473C68.8126 34.9473 74.7669 31.5972 73.1553 18.4564C73.1375 18.3448 73.1524 18.2304 73.1983 18.1272C73.2442 18.024 73.319 17.9365 73.4137 17.8754C73.5082 17.8175 73.6167 17.7869 73.7274 17.7869C73.838 17.7869 73.9466 17.8175 74.0411 17.8754C80.8749 20.8982 88.3867 22.0375 95.804 21.1761C95.9593 21.1609 96.1147 21.2044 96.2398 21.2981C96.3649 21.3918 96.4508 21.529 96.4806 21.6829C96.5791 22.301 99.0887 36.9499 98.1661 43.6253C97.6371 47.5688 94.8813 50.0041 90.4156 50.5109V63.0088C90.4284 63.0866 90.4284 63.166 90.4156 63.2437C89.5855 64.9629 88.2926 66.4139 86.6834 67.4321C85.0743 68.4503 83.2134 68.995 81.3118 69.0044ZM69.7106 35.8497L69.3293 59.6711C69.3293 59.7947 70.4242 65.3329 78.4084 67.3726C85.7899 69.2763 88.767 63.664 89.1853 62.8234V49.9052C89.1843 49.8134 89.2036 49.7224 89.2419 49.639C89.2802 49.5556 89.3365 49.4819 89.4068 49.4231C89.5733 49.3097 89.7717 49.2534 89.9727 49.2624C94.0694 48.8915 96.4806 46.8642 96.9481 43.4028C97.7355 37.6545 95.8163 25.2308 95.3611 22.3875C88.2488 23.1337 81.0634 22.0973 74.4471 19.3712C75.6158 30.9791 71.0147 34.9596 69.7106 35.8497Z" fill="#231F20"/>
<path d="M74.1273 35.1451C73.8514 33.9632 73.1991 32.9042 72.2696 32.1288C71.3762 31.4477 70.3734 30.9251 69.3047 30.5835C68.7389 30.336 68.1254 30.2178 67.5086 30.2374C67.0743 30.2995 66.6564 30.4465 66.2784 30.6701C65.3525 31.1093 64.6146 31.8683 64.1993 32.8087C63.9488 33.6081 63.8981 34.4572 64.0516 35.281C64.1483 36.174 64.3592 37.0507 64.679 37.8894C65.0133 38.7256 65.5103 39.4863 66.1408 40.1271C66.7713 40.7679 67.5227 41.2759 68.3511 41.6212C69.1794 41.9666 70.0679 42.1424 70.9647 42.1384C71.8615 42.1344 72.7484 41.9507 73.5737 41.598" fill="white"/>
<path d="M70.9042 42.6734C69.4476 42.6706 68.0244 42.2348 66.8138 41.4209C65.6032 40.607 64.6593 39.4514 64.101 38.0995C63.752 37.2122 63.5284 36.2801 63.4366 35.3305C63.2687 34.4153 63.3279 33.4728 63.6089 32.5861C64.0777 31.5054 64.9154 30.6285 65.9709 30.1137C66.4119 29.8491 66.9015 29.6767 67.4103 29.6069C68.1232 29.5756 68.834 29.7066 69.4894 29.9901C70.6239 30.356 71.6887 30.9119 72.6388 31.6342C73.6652 32.4992 74.3858 33.6743 74.6933 34.9843C74.7134 35.0631 74.7174 35.1451 74.7052 35.2255C74.6931 35.3059 74.6649 35.383 74.6224 35.4522C74.5799 35.5215 74.524 35.5814 74.458 35.6284C74.392 35.6755 74.3172 35.7087 74.2382 35.726C74.0799 35.7632 73.9135 35.736 73.7752 35.6503C73.6369 35.5646 73.538 35.4274 73.5 35.2686C73.2507 34.2201 72.6728 33.2797 71.8515 32.5861C71.0072 31.9541 70.0632 31.4694 69.0588 31.1521C68.5843 30.9339 68.0675 30.8242 67.5457 30.8307C67.1968 30.8891 66.8625 31.0151 66.5615 31.2016C65.7725 31.5739 65.1343 32.2065 64.753 32.9941C64.5592 33.6944 64.5256 34.4297 64.6546 35.145C64.7335 35.9932 64.9323 36.8257 65.2451 37.6174C65.5557 38.3698 66.0112 39.0532 66.5854 39.6281C67.1597 40.203 67.8414 40.6582 68.5914 40.9675C70.1103 41.5854 71.8088 41.5854 73.3278 40.9675C73.4009 40.9332 73.4803 40.9143 73.561 40.912C73.6416 40.9098 73.7219 40.9241 73.7969 40.9543C73.8718 40.9844 73.9398 41.0296 73.9967 41.0872C74.0535 41.1447 74.098 41.2134 74.1274 41.2889C74.16 41.3635 74.1776 41.4439 74.1791 41.5254C74.1807 41.6069 74.1662 41.6879 74.1364 41.7637C74.1067 41.8396 74.0623 41.9087 74.0059 41.9673C73.9495 42.0258 73.8821 42.0725 73.8076 42.1048C72.8879 42.4893 71.9003 42.6827 70.9042 42.6734Z" fill="#231F20"/>
<path d="M89.2963 30.4228C89.2963 30.4228 93.922 37.0241 92.8886 38.2108C91.8552 39.3976 88.8657 38.6929 88.8657 38.6929" fill="white"/>
<path d="M90.6864 39.5212C90.0285 39.5157 89.3729 39.4412 88.7303 39.2987C88.6496 39.2808 88.5731 39.2471 88.5052 39.1996C88.4374 39.152 88.3796 39.0915 88.335 39.0215C88.2905 38.9515 88.2601 38.8733 88.2456 38.7915C88.2311 38.7096 88.2328 38.6258 88.2506 38.5446C88.2683 38.4634 88.3018 38.3866 88.3492 38.3184C88.3965 38.2502 88.4567 38.1921 88.5264 38.1474C88.5961 38.1026 88.6739 38.072 88.7553 38.0575C88.8367 38.0429 88.9202 38.0446 89.001 38.0625C90.0221 38.2973 91.8551 38.421 92.4211 37.7658C92.6794 37.1601 90.9817 33.8718 88.7303 30.7442C88.6472 30.6097 88.6187 30.4482 88.6506 30.2931C88.6825 30.138 88.7725 30.0011 88.9019 29.9107C89.0313 29.8203 89.1903 29.7833 89.3461 29.8073C89.5019 29.8313 89.6426 29.9144 89.7391 30.0396C91.5722 32.6479 94.4632 37.2219 93.2945 38.5817C92.9453 38.9069 92.5342 39.1578 92.086 39.3192C91.6378 39.4807 91.1617 39.5494 90.6864 39.5212Z" fill="#231F20"/>
<path d="M86.7329 29.0565C86.7857 28.1979 86.3336 27.4712 85.7233 27.4334C85.1129 27.3956 84.5754 28.0609 84.5227 28.9195C84.47 29.7782 84.922 30.5049 85.5324 30.5427C86.1427 30.5805 86.6802 29.9152 86.7329 29.0565Z" fill="#231F20"/>
<path d="M95.2266 30.5661C95.8366 30.523 96.2825 29.7925 96.2225 28.9343C96.1625 28.0762 95.6193 27.4155 95.0093 27.4586C94.3993 27.5016 93.9534 28.2322 94.0135 29.0903C94.0735 29.9485 94.6166 30.6092 95.2266 30.5661Z" fill="#231F20"/>
<path d="M89.5179 43.477C86.959 43.477 83.6004 43.0814 81.386 41.2889C81.2584 41.1847 81.1766 41.0344 81.1582 40.8703C81.1398 40.7062 81.1863 40.5413 81.2876 40.4112C81.3377 40.3477 81.4 40.2949 81.4709 40.256C81.5417 40.2171 81.6196 40.1929 81.6999 40.1849C81.7802 40.1768 81.8613 40.185 81.9384 40.209C82.0155 40.233 82.087 40.2724 82.1487 40.3247C85.6549 43.1556 92.8641 42.0059 92.9379 41.9936C93.1011 41.9673 93.2679 42.0073 93.4017 42.1047C93.5355 42.202 93.6254 42.3488 93.6515 42.5128C93.6776 42.6767 93.6378 42.8443 93.5409 42.9788C93.444 43.1132 93.2979 43.2035 93.1348 43.2297C91.937 43.4034 90.728 43.4861 89.5179 43.477Z" fill="#231F20"/>
<path d="M97.8465 37.296C96.6363 37.2998 95.4399 37.0369 94.3417 36.5258C93.2435 36.0148 92.2702 35.268 91.4902 34.3382C90.7103 33.4083 90.1427 32.3179 89.8274 31.1438C89.5121 29.9697 89.4568 28.7404 89.6654 27.5425C90.0496 25.3725 91.2738 23.4438 93.0699 22.1788C94.8661 20.9138 97.0879 20.4154 99.249 20.7928C101.302 21.1335 103.151 22.2393 104.428 23.8895C105.705 25.5397 106.316 27.613 106.139 29.6958C105.962 31.7786 105.01 33.7178 103.473 35.1266C101.936 36.5353 99.9268 37.31 97.8465 37.296ZM90.8834 27.765C90.6406 29.1445 90.8111 30.5654 91.3732 31.8475C91.9354 33.1295 92.8639 34.2148 94.0409 34.9657C95.2179 35.7167 96.5903 36.0993 97.9841 36.0653C99.3779 36.0312 100.73 35.5818 101.869 34.7742C102.629 34.2388 103.276 33.5582 103.774 32.7712C104.272 31.9843 104.61 31.1066 104.77 30.1881C104.93 29.2696 104.909 28.3285 104.706 27.4185C104.504 26.5085 104.125 25.6475 103.592 24.8847C102.79 23.7396 101.668 22.859 100.368 22.3543C99.0682 21.8495 97.6486 21.7433 96.2887 22.0488C94.9288 22.3544 93.6895 23.0582 92.7274 24.0712C91.7653 25.0842 91.1236 26.361 90.8834 27.7403V27.765Z" fill="#231F20"/>
<path d="M81.7795 36.7027C81.297 36.7045 80.8153 36.6631 80.3402 36.579C79.2388 36.4254 78.1795 36.0504 77.2255 35.4764C76.2715 34.9024 75.4423 34.1413 74.7874 33.2383C74.1326 32.3353 73.6654 31.309 73.4139 30.2207C73.1623 29.1323 73.1315 28.0042 73.3233 26.9036C73.5151 25.803 73.9255 24.7526 74.5301 23.8149C75.1347 22.8771 75.9211 22.0714 76.8423 21.4457C77.7636 20.82 78.8008 20.3872 79.8921 20.1731C80.9834 19.959 82.1065 19.968 83.1943 20.1995C84.8054 20.4843 86.2964 21.2422 87.4791 22.3776C88.6619 23.5131 89.4835 24.9751 89.8402 26.5793C90.1968 28.1834 90.0726 29.8578 89.4832 31.3911C88.8937 32.9244 87.8655 34.2478 86.5283 35.1945C85.1365 36.1743 83.4788 36.7008 81.7795 36.7027ZM81.7795 21.3121C80.4947 21.3178 79.2358 21.6762 78.139 22.3486C77.0422 23.0211 76.1492 23.982 75.5564 25.1274C74.9636 26.2729 74.6937 27.5594 74.7757 28.8478C74.8578 30.1362 75.2888 31.3776 76.022 32.4378C76.5536 33.2028 77.2307 33.8545 78.0142 34.3554C78.7976 34.8563 79.672 35.1964 80.5869 35.3561C81.5018 35.5158 82.4391 35.492 83.3448 35.2861C84.2505 35.0801 85.1066 34.6961 85.8639 34.1561C86.6236 33.6207 87.2708 32.9401 87.7686 32.1532C88.2664 31.3662 88.6049 30.4885 88.7648 29.57C88.9248 28.6516 88.903 27.7104 88.7008 26.8004C88.4986 25.8904 88.1199 25.0294 87.5863 24.2666C86.9389 23.3304 86.0738 22.5674 85.066 22.0439C84.0583 21.5203 82.9385 21.2521 81.8041 21.2626L81.7795 21.3121Z" fill="#231F20"/>
<path d="M89.8007 49.9052C89.8007 49.9052 81.7181 51.7842 76.957 49.0646C76.957 49.0646 82.2225 60.0049 89.8007 58.8676V49.9052Z" fill="#231F20"/>
<path d="M88.6687 59.5599C81.4103 59.5599 76.6124 49.7569 76.3663 49.3242C76.3039 49.2071 76.2834 49.0721 76.308 48.9417C76.3326 48.8112 76.401 48.6932 76.5016 48.6072C76.5945 48.5159 76.7148 48.4579 76.8438 48.4423C76.9728 48.4267 77.1033 48.4542 77.2152 48.5207C81.7179 51.1043 89.5176 49.3242 89.616 49.3118C89.7061 49.2894 89.8 49.2878 89.8908 49.3071C89.9816 49.3264 90.0669 49.366 90.1402 49.4231C90.2136 49.4802 90.2732 49.5532 90.3145 49.6367C90.3558 49.7202 90.3777 49.812 90.3787 49.9052V58.8552C90.3773 59.0031 90.3231 59.1455 90.226 59.2567C90.1289 59.3678 89.9954 59.4403 89.8497 59.461C89.4589 59.5223 89.0642 59.5554 88.6687 59.5599ZM78.3962 50.375C80.0939 53.1688 84.1168 58.6698 89.1854 58.299V50.6716C87.3031 51.0178 82.3453 51.7224 78.3962 50.375Z" fill="#231F20"/>
<path d="M45.8317 57.718C39.2253 58.9542 12.4676 121.061 21.6329 128.181C35.9283 139.307 85.6669 128.057 85.6669 128.057L81.6194 108.773C81.6194 108.773 49.6331 109.675 49.178 103.074C48.7228 96.4726 67.7792 65.9881 65.2818 61.3647C62.7844 56.7414 45.8317 57.718 45.8317 57.718Z" fill="#34A853"/>
<path d="M61.4188 134.424C61.338 134.431 61.2566 134.422 61.1792 134.398C61.1018 134.374 61.0299 134.334 60.9676 134.282C60.9054 134.23 60.854 134.166 60.8163 134.094C60.7787 134.021 60.7556 133.942 60.7483 133.861C60.741 133.78 60.7497 133.698 60.7739 133.621C60.7981 133.543 60.8373 133.471 60.8893 133.408C60.9413 133.345 61.005 133.294 61.0769 133.256C61.1487 133.218 61.2273 133.195 61.3081 133.188L76.3539 130.592L76.8214 112.976L48.5259 110.046C48.4371 110.04 48.351 110.013 48.2742 109.968C48.1974 109.923 48.132 109.861 48.083 109.786C48.0307 109.712 47.9958 109.627 47.9809 109.537C47.9659 109.447 47.9714 109.355 47.9969 109.267L60.5945 65.8645C60.6402 65.7071 60.7462 65.5744 60.8893 65.4956C61.0323 65.4168 61.2007 65.3983 61.3573 65.4442C61.5121 65.4928 61.6421 65.5998 61.7201 65.7427C61.7981 65.8856 61.8179 66.0533 61.7756 66.2106L49.4731 108.909L77.535 111.814C77.6894 111.829 77.8322 111.903 77.9349 112.02C78.0375 112.137 78.0924 112.288 78.0886 112.444L77.5965 131.135C77.5926 131.279 77.5388 131.417 77.4445 131.526C77.3502 131.634 77.2212 131.706 77.0798 131.729L61.5418 134.424H61.4188Z" fill="#231F20"/>
<path d="M78.1256 115.213C83.4444 115.536 88.7824 115.275 94.0449 114.435C97.9306 113.486 101.918 113.026 105.917 113.062C111.193 113.319 116.383 114.511 121.245 116.585C121.446 116.65 121.625 116.77 121.762 116.932C122.23 117.587 121.11 118.168 120.31 118.254C118.195 118.304 116.084 118.033 114.049 117.451C119.08 119.327 123.838 121.871 128.196 125.016C128.701 125.375 129.242 125.931 128.996 126.5C128.75 127.068 127.766 126.957 127.089 126.66L115.648 121.407C118.613 122.591 121.361 124.262 123.78 126.351C124.124 126.66 124.493 127.056 124.395 127.513C124.235 128.28 123.091 128.132 122.377 127.785C118.9 126.044 115.578 124.005 112.449 121.691L119.511 127.118C119.597 127.699 118.994 128.193 118.404 128.218C117.82 128.177 117.258 127.976 116.78 127.637L108.906 123.063L113.827 126.525C114.602 127.068 115.476 127.946 115.057 128.811C114.639 129.677 113.101 129.516 112.08 129.059C108.026 127.29 103.788 125.98 99.4456 125.152C97.9262 124.65 96.3528 124.33 94.7584 124.2C92.3254 124.505 89.9248 125.031 87.5861 125.77C84.0307 126.574 80.4753 127.402 76.9199 128.243" fill="white"/>
<path d="M113.852 130.072C113.171 130.038 112.503 129.875 111.883 129.59C107.87 127.832 103.673 126.53 99.3718 125.709C98.8304 125.61 98.3014 125.449 97.7724 125.301C96.8226 124.969 95.8255 124.793 94.8199 124.781C93.1776 124.921 91.5559 125.244 89.985 125.746C89.2223 125.956 88.4718 126.166 87.746 126.327C84.1906 127.143 80.6352 127.958 77.0798 128.799C76.9349 128.829 76.784 128.803 76.6581 128.724C76.5322 128.646 76.441 128.523 76.4032 128.379C76.3849 128.306 76.3814 128.231 76.3927 128.158C76.404 128.084 76.4299 128.013 76.4689 127.95C76.508 127.886 76.5593 127.831 76.6198 127.788C76.6804 127.745 76.7489 127.715 76.8214 127.699C80.3768 126.858 83.9445 126.042 87.4999 125.226C88.2012 125.066 88.9393 124.868 89.6898 124.658C91.3438 124.127 93.0525 123.787 94.783 123.644C95.9036 123.672 97.0142 123.864 98.08 124.213C98.5844 124.361 99.0765 124.509 99.5932 124.608C103.979 125.439 108.259 126.762 112.351 128.552C112.939 128.878 113.621 128.992 114.282 128.873C114.348 128.853 114.409 128.818 114.46 128.771C114.511 128.724 114.551 128.666 114.578 128.601C114.836 128.008 113.815 127.229 113.495 126.994L108.574 123.545C108.454 123.46 108.37 123.332 108.341 123.188C108.311 123.043 108.337 122.892 108.414 122.766C108.495 122.644 108.619 122.558 108.761 122.526C108.903 122.494 109.052 122.518 109.177 122.593L117.05 127.167C117.437 127.456 117.898 127.628 118.379 127.662C118.473 127.656 118.566 127.631 118.65 127.589C118.735 127.546 118.81 127.487 118.871 127.415L112.068 122.185C111.999 122.145 111.94 122.09 111.893 122.025C111.847 121.959 111.815 121.885 111.8 121.806C111.784 121.728 111.785 121.647 111.803 121.569C111.821 121.491 111.855 121.417 111.903 121.353C111.951 121.289 112.012 121.236 112.081 121.197C112.151 121.159 112.228 121.135 112.308 121.128C112.387 121.122 112.467 121.132 112.543 121.159C112.618 121.185 112.687 121.228 112.744 121.283C115.845 123.58 119.138 125.603 122.586 127.328C122.937 127.528 123.349 127.59 123.743 127.501C123.817 127.377 123.743 127.204 123.361 126.834C121.707 125.39 119.89 124.145 117.948 123.125L115.365 121.889C115.244 121.819 115.154 121.708 115.11 121.576C115.065 121.443 115.071 121.3 115.126 121.171C115.181 121.043 115.28 120.94 115.406 120.88C115.532 120.821 115.675 120.811 115.808 120.85C116.706 121.209 117.579 121.617 118.44 122.087L127.274 126.154C127.605 126.332 127.985 126.397 128.356 126.339C128.504 126.117 128.246 125.77 127.827 125.474C123.507 122.358 118.79 119.838 113.802 117.982C113.666 117.932 113.555 117.83 113.493 117.698C113.431 117.567 113.423 117.415 113.47 117.278C113.516 117.139 113.613 117.023 113.741 116.954C113.869 116.885 114.019 116.868 114.159 116.907C116.133 117.479 118.183 117.742 120.237 117.686C120.429 117.685 120.62 117.645 120.795 117.566C120.971 117.487 121.129 117.372 121.258 117.228L120.975 117.105C116.176 115.05 111.053 113.87 105.843 113.619C102.379 113.56 98.9203 113.93 95.5457 114.719L94.094 114.991C88.8067 115.831 83.4447 116.096 78.1009 115.782C78.0266 115.779 77.9536 115.761 77.8861 115.729C77.8186 115.698 77.758 115.653 77.7078 115.598C77.6575 115.543 77.6185 115.478 77.5931 115.408C77.5677 115.338 77.5563 115.263 77.5596 115.189C77.5594 115.114 77.5745 115.04 77.604 114.971C77.6335 114.903 77.6767 114.841 77.7309 114.79C77.7852 114.739 77.8493 114.7 77.9193 114.675C77.9893 114.65 78.0637 114.64 78.1378 114.645C83.4113 114.959 88.703 114.702 93.9218 113.878L95.3735 113.606C98.8324 112.797 102.378 112.423 105.929 112.494C111.273 112.755 116.53 113.964 121.455 116.066C121.75 116.167 122.011 116.352 122.205 116.598C122.325 116.76 122.397 116.952 122.415 117.152C122.432 117.353 122.394 117.555 122.303 117.735C122.081 118.062 121.784 118.33 121.437 118.517C121.09 118.704 120.704 118.805 120.31 118.811C119.769 118.811 119.228 118.811 118.699 118.811C122.152 120.417 125.447 122.345 128.541 124.571C129.476 125.239 129.833 126.03 129.525 126.735C129.459 126.891 129.362 127.032 129.239 127.149C129.116 127.266 128.97 127.357 128.811 127.415C128.158 127.581 127.467 127.501 126.868 127.192L124.124 125.956C124.392 126.144 124.607 126.399 124.748 126.696C124.888 126.993 124.949 127.322 124.924 127.649C124.885 127.833 124.805 128.005 124.69 128.153C124.575 128.301 124.427 128.42 124.26 128.502C123.907 128.624 123.533 128.67 123.162 128.636C122.791 128.602 122.431 128.489 122.107 128.305C121.418 127.971 120.741 127.612 120.052 127.241C120.056 127.577 119.938 127.902 119.72 128.156C119.556 128.348 119.355 128.505 119.128 128.615C118.902 128.726 118.655 128.789 118.404 128.799C117.712 128.775 117.041 128.552 116.472 128.156L115.525 127.6C115.634 127.827 115.69 128.077 115.69 128.329C115.69 128.582 115.634 128.831 115.525 129.059C115.441 129.26 115.317 129.441 115.16 129.592C115.004 129.743 114.818 129.86 114.614 129.936C114.369 130.024 114.112 130.07 113.852 130.072Z" fill="#231F20"/>
<path d="M99.3721 68.3863C99.3721 68.3863 105.228 92.3808 110.444 109.453L99.3721 68.3863Z" fill="white"/>
<path d="M110.493 110.009C110.375 110.009 110.259 109.97 110.164 109.899C110.069 109.828 109.999 109.728 109.964 109.613C104.748 92.7393 98.8922 68.819 98.8184 68.5223C98.8001 68.4492 98.7964 68.3732 98.8076 68.2987C98.8187 68.2242 98.8445 68.1527 98.8834 68.0882C98.9224 68.0238 98.9736 67.9678 99.0343 67.9235C99.0949 67.8792 99.1637 67.8474 99.2367 67.83C99.3818 67.7966 99.5343 67.8219 99.6609 67.9006C99.7876 67.9793 99.8783 68.1049 99.9133 68.2503C99.9749 68.4852 105.831 92.4303 110.986 109.28C111.028 109.422 111.013 109.576 110.944 109.708C110.875 109.839 110.758 109.939 110.616 109.984C110.577 109.999 110.535 110.007 110.493 110.009Z" fill="#231F20"/>
<path d="M169.606 138.404L169.299 141.767L94.0449 152.818L94.7954 149.295L169.606 138.404Z" fill="white"/>
<path d="M94.045 153.436C93.9598 153.436 93.8757 153.418 93.7975 153.384C93.7194 153.35 93.6487 153.3 93.5898 153.239C93.5222 153.167 93.4733 153.08 93.4476 152.985C93.4218 152.89 93.4199 152.791 93.4421 152.695L94.1926 149.159C94.2237 149.037 94.2889 148.927 94.3805 148.842C94.4721 148.756 94.5862 148.699 94.7093 148.677L169.52 137.799C169.611 137.787 169.703 137.795 169.79 137.823C169.877 137.851 169.957 137.897 170.025 137.959C170.092 138.025 170.144 138.104 170.178 138.191C170.212 138.279 170.227 138.372 170.221 138.466L169.914 141.816C169.902 141.954 169.844 142.083 169.751 142.184C169.657 142.284 169.533 142.351 169.397 142.372L94.1311 153.498L94.045 153.436ZM95.2752 149.839L94.7954 152.077L168.696 141.223L168.88 139.134L95.2752 149.839Z" fill="#231F20"/>
<path d="M169.606 138.404C169.606 138.404 152.469 123.644 151.903 123.78C151.337 123.916 74.3979 133.188 74.3979 133.188L94.8322 149.258L169.606 138.404Z" fill="white"/>
<path d="M94.7953 149.913C94.6601 149.914 94.5292 149.865 94.4263 149.777L73.9797 133.707C73.8838 133.631 73.8124 133.529 73.7746 133.412C73.7367 133.296 73.7341 133.171 73.7671 133.053C73.8 132.935 73.867 132.83 73.9596 132.75C74.0522 132.671 74.1662 132.621 74.2872 132.606C75.05 132.52 150.562 123.422 151.792 123.211C152.137 123.137 152.641 123.001 170.012 137.972C170.102 138.049 170.168 138.151 170.203 138.264C170.238 138.378 170.24 138.5 170.209 138.614C170.174 138.728 170.109 138.83 170.02 138.909C169.931 138.987 169.822 139.039 169.705 139.059L94.906 149.938L94.7953 149.913ZM75.9111 133.62L94.9676 148.64L168.179 137.996C162.028 132.742 153.146 125.202 151.817 124.398C147.806 124.967 91.0677 131.791 75.9111 133.62Z" fill="#231F20"/>
<path d="M94.0451 152.818L74.0537 136.538L74.3613 133.188L94.7956 149.295L94.0451 152.818Z" fill="white"/>
<path d="M94.0449 153.436C93.9023 153.436 93.7637 153.389 93.6512 153.3L73.6721 137.02C73.5944 136.956 73.5327 136.874 73.4921 136.782C73.4515 136.69 73.4331 136.589 73.4384 136.488L73.746 133.126C73.7589 133.016 73.8002 132.912 73.8659 132.823C73.9316 132.734 74.0193 132.665 74.1202 132.621C74.2211 132.577 74.3317 132.561 74.4409 132.573C74.5501 132.586 74.6541 132.627 74.7424 132.693L95.1767 148.764C95.2666 148.836 95.3348 148.932 95.3739 149.041C95.413 149.15 95.4214 149.268 95.3982 149.382L94.6477 152.917C94.6236 153.02 94.5736 153.115 94.5025 153.193C94.4314 153.271 94.3416 153.329 94.2417 153.362C94.1815 153.399 94.1146 153.424 94.0449 153.436ZM74.6932 136.266L93.6512 151.669L94.1187 149.505L74.8655 134.362L74.6932 136.266Z" fill="#231F20"/>
<path d="M169.606 138.404L184.062 89.7106L104.736 103.296L94.7954 149.295L169.606 138.404Z" fill="white"/>
<path d="M94.7956 149.913C94.7123 149.912 94.63 149.894 94.5539 149.86C94.4778 149.826 94.4093 149.777 94.3527 149.715C94.2854 149.641 94.236 149.552 94.2082 149.456C94.1805 149.36 94.1752 149.258 94.1927 149.159L104.133 103.173C104.156 103.052 104.216 102.941 104.304 102.854C104.392 102.768 104.504 102.711 104.625 102.691L183.963 89.0925C184.066 89.0725 184.172 89.0798 184.271 89.1135C184.37 89.1472 184.459 89.2062 184.529 89.2848C184.598 89.3634 184.646 89.4588 184.668 89.5616C184.689 89.6644 184.684 89.7712 184.652 89.8713L170.197 138.577C170.159 138.688 170.092 138.787 170.004 138.863C169.915 138.939 169.808 138.99 169.693 139.01L94.894 149.889L94.7956 149.913ZM105.253 103.84L95.5952 148.553L169.127 137.848L183.188 90.4894L105.253 103.84Z" fill="#231F20"/>
<path d="M212.135 65.3082C211.986 65.309 211.841 65.2537 211.73 65.1531C211.618 65.0526 211.548 64.9139 211.533 64.7642C211.114 60.6724 214.153 55.6411 214.288 55.431C214.33 55.3609 214.385 55.2997 214.451 55.2512C214.516 55.2026 214.59 55.1675 214.669 55.148C214.748 55.1284 214.83 55.1248 214.911 55.1373C214.991 55.1498 215.068 55.1782 215.137 55.2208C215.274 55.3097 215.37 55.4483 215.407 55.6074C215.444 55.7665 215.418 55.9337 215.334 56.0738C215.334 56.0738 212.382 61.0186 212.751 64.6283C212.759 64.7095 212.751 64.7916 212.728 64.8699C212.705 64.9482 212.666 65.021 212.615 65.0842C212.563 65.1475 212.5 65.1998 212.428 65.2382C212.357 65.2767 212.278 65.3004 212.197 65.3082H212.135Z" fill="#231F20"/>
<path d="M262.44 130.32C262.323 130.317 262.208 130.283 262.108 130.221L248.366 121.345C248.228 121.256 248.13 121.116 248.094 120.955C248.058 120.794 248.088 120.625 248.176 120.486C248.264 120.346 248.403 120.248 248.564 120.212C248.724 120.176 248.892 120.206 249.031 120.294L262.773 129.17C262.91 129.261 263.007 129.403 263.041 129.565C263.076 129.727 263.046 129.896 262.957 130.035C262.899 130.12 262.822 130.19 262.732 130.239C262.643 130.289 262.543 130.316 262.44 130.32Z" fill="#D1D3D4"/>
<path d="M267.41 128.094C267.294 128.098 267.178 128.068 267.078 128.008L254.025 119.528C253.888 119.437 253.793 119.296 253.759 119.135C253.726 118.974 253.757 118.806 253.847 118.668C253.937 118.531 254.077 118.435 254.238 118.401C254.398 118.367 254.565 118.399 254.702 118.489L267.743 126.908C267.88 126.999 267.977 127.14 268.011 127.302C268.046 127.464 268.016 127.633 267.927 127.773C267.874 127.865 267.799 127.943 267.709 127.999C267.619 128.055 267.516 128.088 267.41 128.094Z" fill="#D1D3D4"/>
<path d="M272.196 126.45C272.078 126.446 271.964 126.412 271.864 126.351L258.663 117.846C258.526 117.756 258.43 117.615 258.397 117.454C258.363 117.293 258.395 117.125 258.485 116.987C258.574 116.85 258.715 116.753 258.875 116.72C259.036 116.686 259.203 116.718 259.34 116.808L272.491 125.313C272.628 125.402 272.724 125.541 272.759 125.701C272.793 125.861 272.763 126.028 272.676 126.166C272.625 126.249 272.555 126.319 272.471 126.369C272.387 126.418 272.293 126.446 272.196 126.45Z" fill="#D1D3D4"/>
<path d="M278.212 124.818C278.103 124.821 277.996 124.791 277.904 124.732L263.744 116.351C263.666 116.315 263.596 116.263 263.538 116.199C263.481 116.134 263.438 116.058 263.412 115.976C263.385 115.893 263.377 115.806 263.386 115.72C263.395 115.635 263.422 115.551 263.466 115.477C263.509 115.402 263.567 115.337 263.637 115.286C263.707 115.236 263.786 115.2 263.871 115.183C263.955 115.165 264.042 115.165 264.126 115.183C264.21 115.201 264.29 115.237 264.359 115.287L278.519 123.669C278.635 123.738 278.725 123.843 278.775 123.968C278.826 124.092 278.834 124.231 278.799 124.361C278.765 124.491 278.688 124.606 278.582 124.689C278.476 124.772 278.346 124.817 278.212 124.818Z" fill="#D1D3D4"/>
<path d="M282.505 123.347C282.393 123.35 282.282 123.32 282.186 123.261L268.025 114.88C267.887 114.793 267.788 114.655 267.749 114.496C267.71 114.336 267.734 114.168 267.816 114.027C267.856 113.956 267.909 113.893 267.973 113.844C268.037 113.795 268.111 113.759 268.189 113.739C268.268 113.719 268.349 113.716 268.429 113.729C268.509 113.743 268.585 113.772 268.653 113.816L282.813 122.198C282.928 122.267 283.018 122.372 283.069 122.496C283.119 122.621 283.128 122.76 283.093 122.89C283.058 123.02 282.982 123.135 282.876 123.218C282.77 123.301 282.64 123.346 282.505 123.347Z" fill="#D1D3D4"/>
</svg>
